<?xml version="1.0" encoding="UTF-8"?>
<svg width="41px" height="31px" viewBox="0 0 41 31" version="1.1" xmlns="http://www.w3.org/2000/svg" xmlns:xlink="http://www.w3.org/1999/xlink">
    <!-- Generator: Sketch 51.3 (57544) - http://www.bohemiancoding.com/sketch -->
    <title>art_logo</title>
    <desc>Created with Sketch.</desc>
    <defs></defs>
    <g id="Page-1" stroke="none" stroke-width="1" fill="none" fill-rule="evenodd">
        <g id="art_logo" fill-rule="nonzero">
            <path d="M27.2219194,30.2619047 C25.3323788,30.2619047 23.4195105,30.2387629 21.5688492,30.2233349 L19.858154,30.207907 C18.5518049,30.200193 15.8380201,30.1770511 14.7571718,28.0171394 C14.329498,27.1686028 14.2906185,26.1735006 14.6560852,25.294108 C13.0075971,25.3712477 11.3357813,25.4175315 9.66396545,25.4175315 C9.5084477,25.4175315 9.1507569,25.4406734 8.8319455,25.4638154 C8.18654685,25.5100991 7.37785455,25.5640969 6.5380587,25.5640969 C4.33748252,25.5640969 0.57395297,25.039547 0.0840720581,21.5142626 C-0.421360629,17.8886967 1.46040415,14.4791219 2.83673623,11.9952236 L2.8600639,11.9489397 C3.09334052,11.5323853 3.34994481,10.9846934 3.62210087,10.4061457 C4.65629391,8.21537815 5.93931535,5.4923467 8.28763335,4.11154607 C9.4617924,3.42500273 10.7525897,3.16272775 11.7867828,2.94673659 C12.1211459,2.87731086 12.4399573,2.81559909 12.7043375,2.74617336 C14.1428767,2.36818882 15.5580882,2.19076752 16.9266444,2.02106017 C17.3543182,1.96706238 17.781992,1.91306459 18.2018899,1.8590668 C25.0446709,0.902534505 32.229591,0.208277193 37.4083321,0 L37.5405221,0 C38.8779748,0 40.4020487,0.856250685 40.7675155,2.77702924 C40.8608261,3.24758142 40.8763779,3.71813359 40.8997055,4.37382105 L40.938585,5.2917835 C41.0007921,6.78057975 41.0707751,8.32337375 40.8452743,9.9664494 C40.8297226,10.074445 40.8219467,10.1901545 40.8063949,10.3135781 C40.6742048,11.4861015 40.3787211,14.201419 37.7660229,15.1810932 C39.0257167,15.8059247 40.106565,16.8087409 40.6664289,18.4209607 C41.1718616,19.863473 40.9852403,21.5836884 40.8219467,23.0956265 L40.7830672,23.489039 C40.7675155,23.6047486 40.7597396,23.7436 40.7441878,23.8747375 C40.6197736,25.3558197 40.4098246,27.8397181 38.3336627,28.9968136 C36.9651065,29.7604967 35.4254807,29.8376364 34.3057529,29.8839202 C34.0724763,29.8916342 33.8391997,29.9070622 33.6292507,29.9224901 L33.1626975,29.9610599 C31.7630377,30.0921974 30.3089468,30.2233349 28.8159764,30.2310489 C28.2949919,30.2541908 27.7584557,30.2619047 27.2219194,30.2619047 Z" id="Shape" fill="#000000"></path>
            <path d="M28.8643281,27.1643968 C25.9187629,27.1874781 22.9498818,27.1413153 20.0043165,27.1105401 C19.6234915,27.1028462 16.8489089,27.1259277 17.610559,26.1103442 C18.271174,25.2255556 20.4706329,25.1409237 21.4732132,24.9485783 C24.1700764,24.4177052 27.0068344,24.1253403 29.7425573,23.763731 C30.6363304,23.6483238 33.9782646,23.2636331 34.2735984,23.0559001 C34.5689321,22.8481671 34.7710025,21.9172157 34.3901775,21.2863229 C34.0171243,20.6631239 33.7295625,20.7246745 32.7580701,20.8016126 C31.0715591,20.9477951 27.9860989,21.1709157 26.2995879,21.324792 C20.7659667,21.8325837 15.3022929,22.3249877 9.7453558,22.3326816 C8.3075469,22.3326816 3.4423125,23.1328382 3.14697878,21.0093456 C2.77392566,18.3472859 4.35162947,15.5313501 5.579596,13.300144 C6.6909834,11.2997524 7.8334586,7.8221485 9.9007946,6.6142197 C10.9500065,5.9987146 12.3878154,5.87561355 13.5536064,5.567861 C15.2168015,5.1293136 16.9888039,4.99082496 18.6986306,4.75231673 C24.4887259,3.94446627 31.8098933,3.15969724 37.5999887,2.92888283 C37.949726,2.9134952 37.934182,3.46744981 37.9885856,4.79847961 C38.0507611,6.36801765 38.1595683,7.9375557 37.941954,9.49939995 C37.809831,10.4534329 37.809831,11.9921956 36.6906716,12.3538049 C36.2243553,12.5076812 32.3850169,12.5384564 32.3850169,12.5538441 C26.5871497,12.2691729 20.7970545,12.2307039 14.9914153,11.8614008 C12.7686404,11.7229122 9.89302265,11.1151008 8.6572842,13.5617337 C8.3230908,14.2234017 7.94226575,15.3159233 8.25314335,15.6082882 C8.56402095,15.9006532 13.2116411,15.9622037 14.3308004,16.0853047 C19.9576849,16.6854222 25.6933766,16.6161778 31.3591209,16.9470118 C33.4420007,17.0701129 37.0714967,16.939318 37.8875504,19.3013189 C38.2061999,20.2168828 37.9808137,21.8787466 37.8564626,23.0943691 C37.7476555,24.133034 37.7165678,25.8641422 36.9238298,26.3103834 C35.9523374,26.8566442 34.4834407,26.7643184 33.4264569,26.864338 C31.9031567,26.9951328 30.3798564,27.1490091 28.8643281,27.1643968 Z" id="Shape" fill="#FFD700"></path>
        </g>
    </g>
</svg>