<?xml version="1.0" encoding="UTF-8"?>
<svg width="25px" height="25px" viewBox="0 0 25 25" version="1.1" xmlns="http://www.w3.org/2000/svg" xmlns:xlink="http://www.w3.org/1999/xlink">
    <!-- Generator: Sketch 51.3 (57544) - http://www.bohemiancoding.com/sketch -->
    <title>Group 2 Copy</title>
    <desc>Created with Sketch.</desc>
    <defs></defs>
    <g id="Symbols-&amp;-Style-Guide" stroke="none" stroke-width="1" fill="none" fill-rule="evenodd">
        <g id="Website-Banner-•-Menu-Items-in-Cart" transform="translate(-148.000000, -12.000000)">
            <g id="Group-2-Copy" transform="translate(148.000000, 12.000000)">
                <circle id="Oval-4-Copy" stroke="#BF262E" stroke-width="2" fill-rule="nonzero" cx="12.5" cy="12.5" r="11.5"></circle>
                <path d="M6.275,13.5 C6.15,13.425 6.025,13.225 6.025,13.075 L6.025,12.95 C6.025,12.8 6.15,12.6 6.275,12.525 L15.025,7.225 C15.35,7.025 15.725,7.225 15.725,7.625 L15.725,9.8 C15.725,9.9 15.625,10.1 15.525,10.15 L10.75,12.975 L15.525,15.7 C15.625,15.75 15.725,15.95 15.725,16.05 L15.725,18.225 C15.725,18.625 15.35,18.825 15.025,18.625 L6.275,13.5 Z" id="&lt;" fill="#BF262E"></path>
            </g>
        </g>
    </g>
</svg>