<?xml version="1.0" encoding="utf-8"?>
<!-- Generator: Adobe Illustrator 23.0.3, SVG Export Plug-In . SVG Version: 6.00 Build 0)  -->
<svg version="1.1" id="Layer_1" xmlns="http://www.w3.org/2000/svg" xmlns:xlink="http://www.w3.org/1999/xlink" x="0px" y="0px"
	 viewBox="0 0 25.4 25" style="enable-background:new 0 0 25.4 25;" xml:space="preserve">
<style type="text/css">
	.st0{clip-path:url(#SVGID_2_);fill:none;stroke:#FFFFFF;stroke-width:4;stroke-miterlimit:10;}
	.st1{clip-path:url(#SVGID_4_);fill:#FFFFFF;}
</style>
<g>
	<defs>
		<circle id="SVGID_1_" cx="12.9" cy="12.5" r="12.5"/>
	</defs>
	<clipPath id="SVGID_2_">
		<use xlink:href="#SVGID_1_"  style="overflow:visible;"/>
	</clipPath>
	<circle class="st0" cx="12.9" cy="12.5" r="12.5"/>
</g>
<g>
	<defs>
		<path id="SVGID_3_" d="M6.6,13.5c-0.1-0.1-0.2-0.3-0.2-0.4v-0.1c0-0.1,0.1-0.3,0.2-0.4l8.7-5.3c0.3-0.2,0.7,0,0.7,0.4v2.2
			c0,0.1-0.1,0.3-0.2,0.3L11.1,13l4.8,2.7c0.1,0.1,0.2,0.2,0.2,0.3v2.2c0,0.4-0.4,0.6-0.7,0.4L6.6,13.5z"/>
	</defs>
	<clipPath id="SVGID_4_">
		<use xlink:href="#SVGID_3_"  style="overflow:visible;"/>
	</clipPath>
	<rect x="1.4" y="2.1" class="st1" width="19.7" height="21.6"/>
</g>
</svg>
