<?xml version="1.0" encoding="utf-8"?>
<!-- Generator: Adobe Illustrator 23.0.3, SVG Export Plug-In . SVG Version: 6.00 Build 0)  -->
<svg version="1.1" id="Layer_1" xmlns="http://www.w3.org/2000/svg" xmlns:xlink="http://www.w3.org/1999/xlink" x="0px" y="0px"
	 viewBox="0 0 25.4 25" style="enable-background:new 0 0 25.4 25;" xml:space="preserve">
<style type="text/css">
	.st0{clip-path:url(#SVGID_2_);fill:#FFFFFF;}
</style>
<g>
	<defs>
		<path id="SVGID_1_" d="M16,12.3c1.5-1.1,2.5-2.9,2.5-5c0-3.3-2.6-6.1-5.8-6.1S6.9,4,6.9,7.3c0,2.1,1,3.9,2.5,5
			c-2.7,1.3-4.2,4.3-4.2,8.9c0,0.3,0.1,0.6,0.4,0.7c0.1,0.1,2.8,1.9,7.1,1.9s7-1.8,7.1-1.9c0.2-0.2,0.4-0.4,0.4-0.7
			C20.2,16.6,18.7,13.6,16,12.3 M8,7.3c0-2.6,2.1-4.7,4.7-4.7s4.7,2.1,4.7,4.7S15.3,12,12.7,12S8,9.9,8,7.3 M12.6,22.7
			c-3.2,0-5.5-1-6.4-1.5c0.1-5.4,2.3-8.1,6.4-8.1c4.1,0,6.2,2.7,6.4,8.1C18.1,21.6,15.9,22.7,12.6,22.7"/>
	</defs>
	<clipPath id="SVGID_2_">
		<use xlink:href="#SVGID_1_"  style="overflow:visible;"/>
	</clipPath>
	<rect x="0.2" y="-3.8" class="st0" width="25" height="32.5"/>
</g>
</svg>
