<?xml version="1.0" standalone="no"?>
<!DOCTYPE svg PUBLIC "-//W3C//DTD SVG 1.1//EN" "http://www.w3.org/Graphics/SVG/1.1/DTD/svg11.dtd" >
<svg>
<metadata>
Created by FontForge 20090914 at Mon Nov 16 09:46:00 2020
 By www-data
Copyright (c) 2011 by Marcelo Magalhaes (marcelomagalhaes.net), with Reserved Font Name "Londrina"
</metadata>
<defs>
<font id="LondrinaSolid-Regular" horiz-adv-x="476" >
  <font-face 
    font-family="Londrina Solid"
    font-weight="400"
    font-stretch="normal"
    units-per-em="1000"
    panose-1="2 0 5 6 0 0 0 2 0 3"
    ascent="800"
    descent="-200"
    x-height="499"
    cap-height="708"
    bbox="-125.999 -208.002 980.001 936.001"
    underline-thickness="50"
    underline-position="-50"
    unicode-range="U+0020-U+FB04"
  />
<missing-glyph horiz-adv-x="238" 
 />
    <glyph glyph-name=".notdef" horiz-adv-x="238" 
 />
    <glyph glyph-name="space" unicode=" " horiz-adv-x="200" 
 />
    <glyph glyph-name="exclam" unicode="!" horiz-adv-x="217" 
d="M166 1l-38.001 1h-2l-75 -1c-3.33301 6.66699 -3.66602 25.667 -0.999023 57s4 51.333 4 60v1c10 4.66699 24 7 42 7l80 -5c-2 -74 -3 -114 -3 -120h-7zM50.999 702c31.333 4.66699 57.167 7 77.5 7s35.5 -1.66699 45.5 -5c-2 -113.333 -3 -215.5 -3 -306.5
s1.33301 -165.167 4 -222.5c-12.667 -1.33301 -55.667 -3 -129 -5h-1v43l-2 321c0 84 1.66699 140 5 168h3z" />
    <glyph glyph-name="quotedbl" unicode="&#x22;" horiz-adv-x="378" 
d="M128 460l-91 -1.00098v1c0 136.667 0.666992 217.334 2 242.001v2h1l83 7c10.667 0 19 -1.66699 25 -5l2 -246h-22zM321 459.999l-91 -1.00098v1c0 136.667 0.666992 217.334 2 242.001v2h1l83 7c10.667 0 19 -1.66699 25 -5l2 -246h-22z" />
    <glyph glyph-name="numbersign" unicode="#" horiz-adv-x="669" 
d="M576 483l62.998 -1.00098v-4l7 -92l-106 -3c-5.33301 -14.667 -12.333 -35.667 -21 -63s-15.667 -48.333 -21 -63h24c30.667 0 66 -1.33301 106 -4c3.33301 -7.33301 5 -20.666 5 -39.999s0.666992 -37 2 -53v-2c-19.333 -2 -45.666 -3 -78.999 -3s-64 -0.333008 -92 -1
h-3c-1.33301 -2 -5 -12.333 -11 -31c-20 -57.333 -36 -97.666 -48 -120.999l-1 -1h-116c5.33301 20.667 14.166 48.167 26.499 82.5s20.5 58.833 24.5 73.5h-1c-8.66699 0.666992 -22.667 1 -42 1s-44 -0.333008 -74 -1c-8 -26 -13.667 -42 -17 -48
c-8.66699 -17.333 -18.667 -41.333 -30 -72c-4 -14 -8.66699 -25.667 -14 -35c-1.33301 -1.33301 -6.5 -1.66602 -15.5 -0.999023s-22.333 1 -40 1s-37.5 -0.666992 -59.5 -2c6 31.333 15.5 63.666 28.5 96.999l22.5 58l-55 -2h-11c-2 32 -3 68.333 -3 109
c4 -4 18.667 -6 44 -6s47.333 0.333008 66 1c2.66699 2.66699 5.16699 8.5 7.5 17.5s4.83301 17.5 7.5 25.5c7.33301 26.667 16 54.334 26 83.001c-4.66699 0 -50.667 -0.333008 -138 -1l-2 108h1c12 -4 33.333 -6 64 -6s56.667 0.333008 78 1h31
c0 0.666992 0.166992 1 0.5 1s1.5 2.16699 3.5 6.5s8.83301 25 20.5 62s19.5 64.5 23.5 82.5v1c2 -0.666992 41.667 -2.33398 119 -5.00098c0 -0.666992 -14.667 -49.667 -44 -147l80 1c14.667 0 27.667 -0.333008 39 -1c11.333 17.333 28 68.333 50 153h2
c9.33301 -1.33301 22 -2 38 -2h36c16.667 0 29.667 -0.666992 39 -2c0.666992 -2 1 -4 1 -6s-0.166992 -4.16699 -0.5 -6.5s-1.16602 -5.33301 -2.49902 -9s-2.5 -7.66699 -3.5 -12s-2.83301 -10.5 -5.5 -18.5s-5.16699 -16.167 -7.5 -24.5s-5.66602 -19.333 -9.99902 -33
s-8.5 -27.834 -12.5 -42.501zM419.998 383.999l-2.00195 -0.000976562c-57.333 1.33301 -97 2 -119 2h-2v-1l-21 -63.5c-9.33301 -28.333 -16.666 -49.833 -21.999 -64.5l125 1c0.666992 1.33301 1.83398 5.83301 3.50098 13.5s7.5 24.834 17.5 51.501s16.667 46.667 20 60
v1z" />
    <glyph glyph-name="dollar" unicode="$" horiz-adv-x="445" 
d="M376 442l-55.998 -1.99902c-19.333 0 -32.833 4.16699 -40.5 12.5s-11.167 17.5 -10.5 27.5c2 27.333 -9.66699 41 -35 41c-10.667 0 -21.167 -4.66699 -31.5 -14s-15.5 -19.666 -15.5 -30.999s3.16699 -22.5 9.5 -33.5s16.166 -22.333 29.499 -34s25 -21.167 35 -28.5
c12 -10 38.333 -28.333 79 -55c24.667 -18 44.5 -42.667 59.5 -74s22.5 -61.666 22.5 -90.999c0 -45.333 -19.667 -84 -59 -116c-3.33301 -3.33301 -14 -10.5 -32 -21.5s-28.333 -16.5 -31 -16.5l-1 -71v-4c0 -18 -12.667 -27 -38 -27l-42 -1h-28c-24 0 -36 11 -36 33l3 27
c0 25.333 -10.667 41.333 -32 48c-44.667 14.667 -73.5 35.5 -86.5 62.5s-19.5 66.167 -19.5 117.5c0 20.667 1.66699 33.667 5 39c5.33301 8 19 12 41 12l62 -4c11.333 0 19.5 -0.5 24.5 -1.5s9.83301 -4 14.5 -9s7 -12.167 7 -21.5l1 -31c0 -29.333 14 -44 42 -44
c11.333 0 21.833 3.5 31.5 10.5s14.5 15.5 14.5 25.5c0 25.333 -10.167 49.666 -30.5 72.999s-47.5 48 -81.5 74s-57 45.667 -69 59c-36 40.667 -54 85.334 -54 134.001c0 36 12 66 36 90s54 41.333 90 52c4 1.33301 5.5 3.66602 4.5 6.99902s-1.5 5.66602 -1.5 6.99902
l-5 74c0 10.667 8.66699 16 26 16h32c53.333 0 82 -4.33301 86 -13v-82c0 -8.66699 4.33301 -13.334 13 -14.001c22.667 -2 43.167 -11.5 61.5 -28.5s32.166 -35.167 41.499 -54.5s14 -50.333 14 -93c0 -17.333 -11.333 -26 -34 -26h-16z" />
    <glyph glyph-name="percent" unicode="%" horiz-adv-x="604" 
d="M381 707l54.001 1c24.667 0 40 -2.33301 46 -7c-2 -4 -4 -9.83301 -6 -17.5s-10.333 -35.5 -25 -83.5s-26.834 -85.167 -36.501 -111.5l-19.5 -54l-32 -97.5c-28.667 -86.667 -50.667 -148.667 -66 -186l-57 -144c-0.666992 -2 -1.66699 -3.66699 -3 -5
c-4.66699 -0.666992 -14.334 -1 -29.001 -1s-46.667 -0.666992 -96 -2h-1c-5.33301 0 -2.5 14.667 8.5 44s19.5 53.5 25.5 72.5s14 39.833 24 62.5c4.66699 16.667 23 68 55 154s52.333 143.167 61 171.5s13.834 44.333 15.501 48s5.16699 12.5 10.5 26.5
c13.333 39.333 26.333 83 39 131c6 -1.33301 16.667 -2 32 -2zM202.501 653.5c18.333 -19.667 30.5 -44.5 36.5 -74.5c2.66699 -20 4 -34 4 -42v-17.5v-26.5c0 -14 -3 -33 -9 -57s-18.333 -45.667 -37 -65s-41.334 -29 -68.001 -29c-18.667 0 -36.334 4.33301 -53.001 13
c-25.333 16.667 -41.666 41 -48.999 73l-8 59v1l-1 25l2 25c0.666992 3.33301 1.5 10.5 2.5 21.5s2 19.167 3 24.5s2.5 12.333 4.5 21c4.66699 16.667 12 30 22 40c20.667 25.333 46.334 38 77.001 38s55.167 -9.83301 73.5 -29.5zM160.001 462l0.998047 11.002
c0.666992 12 1 28.5 1 49.5s-1.66699 38.167 -5 51.5s-5.33301 20.166 -6 20.499s-2.66699 2.66602 -6 6.99902s-7.5 6.5 -12.5 6.5s-10.167 -1 -15.5 -3c-13.333 -6 -20 -20 -20 -42v-10v-1l5 -73l2 -38c0 -8 3.33301 -13.833 10 -17.5s12.667 -4.66699 18 -3
s9 3.16699 11 4.5s3.66699 2.5 5 3.5s2.5 2.66699 3.5 5s1.83301 4 2.5 5s1.33398 2.83301 2.00098 5.5s1.33398 4.66699 2.00098 6c1.33301 4.66699 2 8.66699 2 12zM545.499 336.502c18.333 -19.667 30.5 -44.5 36.5 -74.5c2.66699 -20 4 -34 4 -42v-17.5v-26.5
c0 -14 -3 -33 -9 -57s-18.333 -45.667 -37 -65s-41.334 -29 -68.001 -29c-18.667 0 -36.334 4.33301 -53.001 13c-25.333 16.667 -41.666 41 -48.999 73l-8 59v1l-1 25l2 25c0.666992 3.33301 1.5 10.5 2.5 21.5s2 19.167 3 24.5s2.83301 12.333 5.5 21
c4 16.667 11 30 21 40c20.667 25.333 46.334 38 77.001 38s55.167 -9.83301 73.5 -29.5zM502.999 145.002l0.99707 11c0.666992 12 1 28.5 1 49.5s-3.33301 44.167 -10 69.5c-2 2 -3 3.66699 -3 5c-5.33301 7.33301 -10.666 11 -15.999 11s-10.666 -1 -15.999 -3
c-13.333 -6 -20 -20 -20 -42v-10v-1l5 -73l2 -38c0 -8 2.66699 -13.5 8 -16.5s9.83301 -4.5 13.5 -4.5s7 0.5 10 1.5s5.5 2.16699 7.5 3.5s3.66699 2.5 5 3.5s2.5 2.66699 3.5 5s1.83301 4 2.5 5s1.33398 2.83301 2.00098 5.5s1 4.33398 1 5.00098
c2 5.33301 3 9.66602 3 12.999z" />
    <glyph glyph-name="ampersand" unicode="&#x26;" horiz-adv-x="565" 
d="M476 -1l-4.99902 0.000976562c-26.667 0 -47 2.16699 -61 6.5s-30 15.166 -48 32.499c-33.333 -22.667 -81 -35.667 -143 -39c-62 0 -111 22.333 -147 67s-54 97.5 -54 158.5s33.333 122.833 100 185.5c-51.333 68.667 -77 124.5 -77 167.5s19.833 79.333 59.5 109
s84.334 44.5 134.001 44.5s90.667 -15 123 -45s48.5 -65.667 48.5 -107c0 -21.333 -3.16699 -38.333 -9.5 -51s-10 -20.334 -11 -23.001s-3.5 -7.33398 -7.5 -14.001s-6.66699 -11 -8 -13c-6.66699 -8 -12.334 -16.667 -17.001 -26c-20 -29.333 -30 -45.333 -30 -48
c-0.666992 -5.33301 -0.833984 -9.16602 -0.500977 -11.499s0.666016 -5.66602 0.999023 -9.99902s1.5 -9.16602 3.5 -14.499l7 -18c6 -11.333 16.333 -27.333 31 -48c6.66699 10.667 10 24 10 40c4 30.667 23.333 46 58 46h71c12.667 0 22 -2.5 28 -7.5s9 -17.667 9 -38
s-9.66699 -52.833 -29 -97.5l-8 -21c-1.33301 -1.33301 -3 -4.33301 -5 -9s-6.16699 -13.5 -12.5 -26.5s-9.5 -20.833 -9.5 -23.5s1.16699 -5.66699 3.5 -9s6 -8 11 -14l11.5 -14v1c29.333 -36.667 46 -65.334 50 -86.001v-9l-1 -5c-5.33301 -20 -30.666 -30 -75.999 -30z
M234.001 618.001c-28.667 0 -43 -13.667 -43 -41c0 -14 3.5 -30 10.5 -48s13.5 -27 19.5 -27h1v-1c21.333 3.33301 32 35.333 32 96c0 14 -6.66699 21 -20 21zM292.001 207.001c0 54 -22.001 81.001 -66.001 81.001c-6 0 -12 -0.333008 -18 -1
c-12 -1.33301 -21.5 -10.833 -28.5 -28.5s-10.5 -30.834 -10.5 -39.501s0.333008 -15 1 -19c4.66699 -40.667 26.334 -61 65.001 -61c4 0 13 1 27 3c16.667 6 25 10 25 12z" />
    <glyph glyph-name="quotesingle" unicode="'" horiz-adv-x="185" 
d="M128 460l-91 -1.00098v1c0 136.667 0.666992 217.334 2 242.001v2h1l83 7c10.667 0 19 -1.66699 25 -5l2 -246h-22z" />
    <glyph glyph-name="parenleft" unicode="(" horiz-adv-x="314" 
d="M176 380l-0.99707 -70c0 -46 3.66699 -81.667 11 -107c9.33301 -21.333 23.833 -38.833 43.5 -52.5s39.5 -20.834 59.5 -21.501h1v-5c-1.33301 -11.333 -2 -30.666 -2 -57.999s-0.333008 -46.333 -1 -57c-4.66699 -6 -18.667 -9 -42 -9h-17
c-24 1.33301 -46 5.33301 -66 12c-36.667 12.667 -67.334 35.334 -92.001 68.001c-21.333 37.333 -34 78.333 -38 123c4 94 6 152.5 6 175.5v41.5v24c0 69.333 2.16699 113 6.5 131s10.166 33.333 17.499 46c30.667 58.667 80.667 88.667 150 90
c26.667 -1.33301 51 -3.33301 73 -6l1 -1c1.33301 -6.66699 2 -20.334 2 -41.001s-0.666992 -48 -2 -82c-54.667 -16 -85.334 -42.667 -92.001 -80c-3.33301 -9.33301 -6 -20 -8 -32s-5.33301 -41.667 -10 -89z" />
    <glyph glyph-name="parenright" unicode=")" horiz-adv-x="313" 
d="M139 310l-0.998047 69.998c-4.66699 47.333 -8 77 -10 89s-4.66699 22.667 -8 32c-6.66699 37.333 -37.334 64 -92.001 80c-1.33301 34 -2 61.333 -2 82s0.666992 34.334 2 41.001l1 1c21.333 2.66699 45.666 4.66699 72.999 6c69.333 -1.33301 119.333 -31.333 150 -90
c14 -24.667 21.333 -53.667 22 -87c1.33301 -42.667 2 -72.667 2 -90v-24v-41.5c0 -23 2 -81.5 6 -175.5c-4 -44.667 -16.667 -85.667 -38 -123c-24 -32 -55 -55 -93 -69c-19.333 -6 -41 -9.66699 -65 -11h-17c-23.333 0 -37.333 3 -42 9c-0.666992 10.667 -1 29.5 -1 56.5
s-0.666992 46.5 -2 58.5v5h1c20 0.666992 39.833 7.83398 59.5 21.501s34.167 31.167 43.5 52.5c7.33301 25.333 11 61 11 107z" />
    <glyph glyph-name="asterisk" unicode="*" horiz-adv-x="367" 
d="M319 414l-65 -51.9971c-0.666992 -0.666992 -1.33398 -1 -2.00098 -1l-1 1c-8.66699 11.333 -15 17.666 -19 18.999c-30.667 30.667 -48.334 47 -53.001 49c-4 -2 -14.5 -11.333 -31.5 -28s-27.667 -26.667 -32 -30s-7.5 -5 -9.5 -5c-45.333 42.667 -74 69 -86 79
c5.33301 8 16.833 21.333 34.5 40l31 33c3 3.33301 3.5 7 1.5 11s-13.5 17.833 -34.5 41.5s-32.167 37.5 -33.5 41.5c3.33301 1.33301 17.333 14.333 42 39l46 45c2.66699 -0.666992 15.834 -12 39.501 -34s36.834 -34 39.501 -36l74 68l84 -84
c-1.33301 -8.66699 -12 -22.834 -32 -42.501s-31.333 -32.834 -34 -39.501c2 0 13.833 -13 35.5 -39s33.167 -39.333 34.5 -40c1.33301 -5.33301 -3 -12.333 -13 -21s-15.333 -13.667 -16 -15z" />
    <glyph glyph-name="plus" unicode="+" horiz-adv-x="445" 
d="M262 112l-109 1.99707h-11c-2 2 -3 15 -3 39l1 40c0 28.667 -1 44 -3 46h-2c-12 0 -32.333 1 -61 3c-34 2.66699 -51 5.66699 -51 9c0.666992 6.66699 1 13.834 1 21.501s-0.333008 17.834 -1 30.501l-2.5 49.5c-1 20.333 -1.5 30.833 -1.5 31.5h8.5c5 0 25 1.33301 60 4
s54.5 4.66699 58.5 6c0 25.333 1 50 3 74s3 36.667 3 38l3 18c0 -3.33301 14 -5 42 -5l92 1h11c0 -78.667 0.666992 -120 2 -124c8.66699 -0.666992 28.167 -1 58.5 -1s51.166 -1 62.499 -3c-0.666992 -15.333 -1 -38.833 -1 -70.5s-1 -56.5 -3 -74.5
c-2 -1.33301 -21.167 -2.16602 -57.5 -2.49902s-56.833 -1.83301 -61.5 -4.5c0.666992 -2.66699 1 -6.66699 1 -12l-8 -110v-2c-3.33301 -2.66699 -13.666 -4 -30.999 -4z" />
    <glyph glyph-name="comma" unicode="," horiz-adv-x="188" 
d="M150 1l-20.002 -101c-0.666992 0 -23.667 0.666992 -69 2c-1.33301 1.33301 -0.666016 7.33301 2.00098 18l10 40c4 16 6.66699 29 8 39l-47 4c-1.33301 0 -2.33301 0.333008 -3 1c0 18.667 1.33301 57 4 115v1h1c10.667 4 20.334 6 29.001 6s39 -2.33301 91 -7h1
l-4 -115h-2c-0.666992 -1.33301 -1 -2.33301 -1 -3z" />
    <glyph glyph-name="hyphen" unicode="-" horiz-adv-x="521" 
d="M484 195l-448 7.00098l3 160h443l-2 -96c0 -28.667 1.66699 -52.334 5 -71.001h-1z" />
    <glyph glyph-name="period" unicode="." horiz-adv-x="189" 
d="M34 1c-2 11.333 -3 29 -3 53l2 63c12.667 5.33301 34.5 8 65.5 8s50.833 -2 59.5 -6l-2 -25c-2.66699 -51.333 -4 -82 -4 -92v-2h-2l-113 1h-3z" />
    <glyph glyph-name="slash" unicode="/" horiz-adv-x="412" 
d="M293 707l54.001 1c24.667 0 40 -2.33301 46 -7c-2 -4 -4 -9.83301 -6 -17.5s-10.333 -35.5 -25 -83.5s-26.834 -85.167 -36.501 -111.5l-19.5 -54l-32 -97.5c-28.667 -86.667 -50.667 -148.667 -66 -186l-57 -144c-0.666992 -2 -1.66699 -3.66699 -3 -5
c-4.66699 -0.666992 -14.334 -1 -29.001 -1s-46.667 -0.666992 -96 -2h-1c-1.33301 0 -2 1.5 -2 4.5s1.5 9.66699 4.5 20s7.5 23.5 13.5 39.5s12 33.5 18 52.5s14 39.833 24 62.5c4.66699 16.667 23 68 55 154s52.333 143.167 61 171.5s13.834 44.333 15.501 48
s5.16699 12.5 10.5 26.5c13.333 39.333 26.333 83 39 131c6 -1.33301 16.667 -2 32 -2z" />
    <glyph glyph-name="zero" unicode="0" horiz-adv-x="513" 
d="M404 648c38.667 -41.333 64 -92.999 76 -154.999c6 -36 9 -63 9 -81v-39v-43.5c0 -21 -3.66699 -50.667 -11 -89s-20 -76.833 -38 -115.5s-43.167 -68.834 -75.5 -90.501s-67.833 -32.5 -106.5 -32.5c-4.66699 0 -14.334 0.166992 -29.001 0.5s-34 4.83301 -58 13.5
s-45.167 21.667 -63.5 39s-32.166 34.5 -41.499 51.5s-16.666 39.5 -21.999 67.5c-6.66699 40 -10.834 85 -12.501 135s-2.5 89.333 -2.5 118s4.33301 60.667 13 96c10 44 26.667 80 50 108c47.333 52.667 101.5 79 162.5 79s110.833 -20.667 149.5 -62zM213 178.001
c4.66699 -4.66699 10.998 -8 18.998 -10s15 -3 21 -3c34.667 0 55.667 26.333 63 79c1.33301 10 2.33301 22.5 3 37.5s1.33398 28.5 2.00098 40.5s1 26.333 1 43c0 83.333 -9.66699 139 -29 167c-10.667 13.333 -23.667 20 -39 20c-6.66699 0 -14 -1.33301 -22 -4
c-14 -3.33301 -25.333 -12.333 -34 -27c-5.33301 -8 -9.83301 -30.667 -13.5 -68s-5.5 -75.666 -5.5 -114.999s2.5 -67.833 7.5 -85.5s8.66699 -31 11 -40s4.33301 -15.833 6 -20.5s4.83398 -9.33398 9.50098 -14.001z" />
    <glyph glyph-name="one" unicode="1" horiz-adv-x="366" 
d="M324 542l-11 -454.001c0 -31.333 0.333008 -54.666 1 -69.999c0 -12 -20.333 -18 -61 -18c-23.333 -0 -56 2.33301 -98 7v98c0 43.333 2 107.333 6 192s6 139.667 6 165s-0.333008 40.333 -1 45c-4.66699 1.33301 -9.66699 -4.66699 -15 -18
c-9.33301 -24.667 -18.5 -37 -27.5 -37s-31.5 4.83301 -67.5 14.5s-54 17.167 -54 22.5c2 19.333 20.667 59.333 56 120s57 95 65 103c41.333 1.33301 76.333 2 105 2s59 -1.33301 91 -4c3.33301 -47.333 5 -103.333 5 -168z" />
    <glyph glyph-name="two" unicode="2" horiz-adv-x="498" 
d="M249 142l202.005 3.00293c4.66699 -12.667 7 -29.667 7 -51v-57c0 -16.667 0.666992 -27.334 2 -32.001c0 -0.666992 -1.33301 -1 -4 -1l-380 -5h-45c-0.666992 0.666992 -0.666992 5.33398 0 14.001s1.16699 32.5 1.5 71.5s2.66602 71 6.99902 96
s12.833 48.167 25.5 69.5c24.667 27.333 62.5 56.5 113.5 87.5s84.167 52.833 99.5 65.5c24 16 36 40 36 72c0 14 -3 27 -9 39c-9.33301 18.667 -24 29.334 -44 32.001c-34.667 0 -56.334 -19.333 -65.001 -58c-4.66699 -18.667 -7.66699 -39.667 -9 -63v-2h-1
c-40.667 -4.66699 -72.334 -7 -95.001 -7s-40.334 0.666992 -53.001 2h-1v2c-4 24 -6 47 -6 69c0 65.333 18.667 119.333 56 162c16.667 21.333 42.167 36.666 76.5 45.999s67.166 14 98.499 14h18c37.333 -2 68.333 -8 93 -18c57.333 -29.333 90 -85 98 -167
c1.33301 -36.667 2 -60 2 -70c0 -44 -11.333 -78.833 -34 -104.5s-46.667 -44.167 -72 -55.5c-78 -34.667 -128.667 -66.334 -152 -95.001c-9.33301 -24.667 -14 -40.334 -14 -47.001s1 -10.334 3 -11.001c9.33301 -0.666992 24.333 -1 45 -1z" />
    <glyph glyph-name="three" unicode="3" horiz-adv-x="492" 
d="M28 489l-2.00098 50.998c0 16.667 2 30.667 6 42c9.33301 30.667 27.333 56.5 54 77.5s54.5 34.333 83.5 40s52.167 8.5 69.5 8.5c56 0 100.167 -8.33301 132.5 -25s55.166 -36.667 68.499 -60c9.33301 -15.333 14 -36 14 -62c0 -3.33301 0.333008 -16.5 1 -39.5
s1 -62 1 -117s-0.833008 -101 -2.5 -138s-2.66699 -62.167 -3 -75.5s-0.833008 -23.666 -1.5 -30.999c-2 -21.333 -6.66699 -40 -14 -56c-20 -46.667 -53.333 -77.667 -100 -93c-26.667 -8 -54.167 -12 -82.5 -12s-55.166 1.66699 -80.499 5l-44 11.5
c-26.667 7 -47.667 18.167 -63 33.5s-24.666 37.333 -27.999 66c-2 10.667 -3.66699 27.334 -5 50.001s-2.33301 37.334 -3 44.001s-0.666992 10 0 10h1h14c7.33301 0 22.5 1.5 45.5 4.5s39.5 4.5 49.5 4.5h21h1l1 -1c5.33301 -16.667 16.333 -31 33 -43
c17.333 -13.333 35 -20 53 -20s34 8.33301 48 25c6.66699 10 10 19 10 27c0 27.333 -8.5 47.166 -25.5 59.499s-35.5 18.5 -55.5 18.5s-38.333 -1.66699 -55 -5c-4.66699 4.66699 -7 18 -7 40l3 83c0 7.33301 -0.333008 12.333 -1 15v1c8.66699 3.33301 26.667 5 54 5
s48.333 3.83301 63 11.5s22 22.5 22 44.5c0 39.333 -17.667 59 -53 59c-15.333 0 -32.5 -5.16699 -51.5 -15.5s-32.167 -24.833 -39.5 -43.5c-9.33301 -1.33301 -53.333 -2 -132 -2v2z" />
    <glyph glyph-name="four" unicode="4" horiz-adv-x="469" 
d="M233 702l126.999 3.00098c11.333 0 21.333 -0.333008 30 -1h2l-1 -38c-0.666992 -24.667 -1.5 -53.834 -2.5 -87.501s-2 -69.167 -3 -106.5s-1.5 -68.5 -1.5 -93.5s0.333008 -41.5 1 -49.5c10.667 2 24 2.33301 40 1s25 -2 27 -2l-6 -145c-5.33301 -2 -11 -3 -17 -3
s-13.167 0.333008 -21.5 1s-15.833 0.333984 -22.5 -0.999023l-1 -20c-6.66699 -96 -11 -148 -13 -156c-3.33301 -4.66699 -15.333 -7 -36 -7h-59h-49c-2 2 -0.666992 34.167 4 96.5s7 94.166 7 95.499c-4 1.33301 -24 2 -60 2c-101.333 0 -152.666 1 -153.999 3
c-7.33301 22 -11 47.833 -11 77.5s0.333008 52.167 1 67.5c5.33301 8 16 26.333 32 55c53.333 100 115.333 202.333 186 307c0 0.666992 0.333008 1 1 1zM266.999 543.001c-7.33301 0 -46 -61 -116 -183l-18 -32l132 -1l3 214c0 1.33301 -0.333008 2 -1 2z" />
    <glyph glyph-name="five" unicode="5" horiz-adv-x="503" 
d="M186 544c1.33301 -2 2.33398 -7.99902 3.00098 -17.999c0.666992 -10.667 2.66699 -17.667 6 -21h1c20.667 4 39.667 6 57 6s33.333 -1.33301 48 -4c31.333 -4.66699 58.333 -15.667 81 -33c40 -30 68 -79.333 84 -148c6.66699 -28.667 10 -51 10 -67
c0 -44.667 -2 -86.334 -6 -125.001c-6.66699 -30 -22 -56 -46 -78c-46.667 -43.333 -108 -65 -184 -65c-80.667 0 -139 24.333 -175 73c-18.667 24.667 -28 54 -28 88c0 20 2 40.667 6 62v2l142 5v-1c4.66699 -27.333 11.5 -44.833 20.5 -52.5s17.333 -11.5 25 -11.5
s13.834 0.666992 18.501 2c29.333 5.33301 49.666 22 60.999 50c5.33301 14.667 8 29.167 8 43.5s-2.66699 28.5 -8 42.5c-10.667 29.333 -28.667 48 -54 56c-12.667 2.66699 -31.334 4 -56.001 4l-138 -5c-16 0 -24 0.666992 -24 2l-2 345h1l111 2
c136.667 3.33301 220.167 5 250.5 5s51.833 -0.333008 64.5 -1c0.666992 0 1 -8 1 -24c0 -18.667 -1 -52 -3 -100l-1 -24c-34 -4.66699 -125 -7 -273 -7h-1v-3z" />
    <glyph glyph-name="six" unicode="6" horiz-adv-x="503" 
d="M204 325c42 22.667 86.3359 34.0039 133.003 34.0039c14.667 0 27.667 -1.66699 39 -5c28 -8.66699 51 -23 69 -43c17.333 -16.667 28.666 -44.667 33.999 -84l2 -24c0.666992 -8 1 -16 1 -24c0 -40 -12.667 -75.667 -38 -107c-42.667 -50.667 -109.334 -76 -200.001 -76
c-15.333 0 -31 1 -47 3c-42.667 7.33301 -76.834 28 -102.501 62s-41.834 74.333 -48.501 121c-9.33301 59.333 -14 116 -14 170s1 91 3 111s3.66699 40.333 5 61c1.33301 30.667 5 51 11 61c16.667 38 47.834 68 93.501 90s93.834 33 144.501 33h5
c58.667 0 104.667 -23 138 -69c23.333 -32.667 35 -67.334 35 -104.001c0 -16 -2.33301 -32.667 -7 -50c-15.333 -2.66699 -39.333 -4.33398 -72 -5.00098s-52.667 -1.33398 -60 -2.00098h-2v1c-1.33301 31.333 -8 53.166 -20 65.499s-24.667 18.5 -38 18.5
c-14.667 0 -27.334 -5.33301 -38.001 -16c-14.667 -12.667 -23.5 -28.167 -26.5 -46.5s-4.5 -36.833 -4.5 -55.5l5 -110v-9v-1zM362.003 191.004l-0.000976562 12.999c0 30.667 -15.667 46 -47 46c-24 0 -44 -10.333 -60 -31c-4.66699 -8 -7 -15 -7 -21
c0 -19.333 8 -33.666 24 -42.999c9.33301 -4 19 -6 29 -6s20.667 3 32 9c16.667 8 26.334 19 29.001 33z" />
    <glyph glyph-name="seven" unicode="7" 
d="M168 7l-105.998 -4.99805c-18.667 0 -34 1.66699 -46 5l125 260c62 127.333 108 225.333 138 294c-99.333 6.66699 -164.333 10 -195 10s-50.667 -0.333008 -60 -1h-2c1.33301 12 3 57.333 5 136v1l227 5c96 0 165.333 -2.33301 208 -7v-1
c-0.666992 -4.66699 -1 -14.334 -1 -29.001l2 -110c-30.667 -70.667 -82.334 -171.334 -155.001 -302.001s-119.334 -216 -140.001 -256z" />
    <glyph glyph-name="eight" unicode="8" horiz-adv-x="490" 
d="M87 352c-36.667 38 -55 84.9961 -55 140.996s15 105.167 45 147.5s71 64.833 123 67.5c22.667 0.666992 44.167 1 64.5 1s39.833 -1 58.5 -3c24.667 -2.66699 47.667 -11.667 69 -27c3.33301 -2.66699 6 -4.66699 8 -6s4.66699 -3.66602 8 -6.99902l8 -8
c2.66699 -2.66699 5.66699 -6.66699 9 -12l11 -16c10.667 -18 17.834 -39.667 21.501 -65s5.5 -39.333 5.5 -42v-28c0 -12.667 -1.33301 -23 -4 -31c-11.333 -48 -35.666 -87.333 -72.999 -118v-1c31.333 -23.333 52.666 -53.666 63.999 -90.999
c7.33301 -22 11 -42.333 11 -61c0 -58 -18.333 -107.333 -55 -148c-22 -26 -56 -43.333 -102 -52c-19.333 -4 -40.333 -6 -63 -6s-47 3.66699 -73 11c-44.667 11.333 -77.334 31 -98.001 59c-30.667 36.667 -46 84.834 -46 144.501s21 109.834 63 150.501zM288 468.996
c2 6.66699 3.00098 14.834 3.00098 24.501s-4.33301 18.5 -13 26.5s-19.834 12 -33.501 12s-23.5 -2.5 -29.5 -7.5s-10.833 -8.83301 -14.5 -11.5s-5.5 -5 -5.5 -7v-2c-0.666992 -3.33301 -1 -8.83301 -1 -16.5s3.66699 -17.834 11 -30.501c8 -13.333 22 -20 42 -20
s33.667 10.667 41 32zM284.001 181.996c2.66699 1.33301 6.33301 6.33203 11 14.999s7 15.667 7 21c0 18 -6.5 32.5 -19.5 43.5s-27.833 16.5 -44.5 16.5c-4.66699 0 -9.66699 -0.666992 -15 -2c-24.667 -9.33301 -37 -29 -37 -59c0 -18 8.66699 -31 26 -39
c8.66699 -3.33301 18 -5 28 -5s19.167 0.833008 27.5 2.5s13.833 3.83398 16.5 6.50098z" />
    <glyph glyph-name="nine" unicode="9" horiz-adv-x="513" 
d="M30 222l105.004 5c11.333 0 28.666 -1 51.999 -3c4 -14 11.5 -25.333 22.5 -34s22.833 -13 35.5 -13h5c36 4 54 37.333 54 100c0 7.33301 -0.333008 15 -1 23l-1 1c-24.667 -10 -48.334 -15 -71.001 -15s-44.334 3.66699 -65.001 11c-46 15.333 -81.667 42.333 -107 81
c-20.667 30.667 -31 74 -31 130c0 36.667 5.33301 66.667 16 90c9.33301 16.667 16.666 28 21.999 34c40.667 48 104 73.667 190 77c68 0 112.667 -5 134 -15c49.333 -21.333 76.666 -72.666 81.999 -153.999c0.666992 -17.333 1.33398 -40.333 2.00098 -69l2 -148
c1.33301 -46.667 2 -79.334 2 -98.001c0 -64.667 -17 -120.667 -51 -168c-34 -41.333 -87.667 -62 -161 -62c-35.333 0 -70.333 6.33301 -105 19c-89.333 30.667 -134 86.667 -134 168c0 11.333 1 23 3 35v5zM208.004 466c10 -21.333 27.502 -32 52.502 -32
s42.167 7.66699 51.5 23l6 12c1.33301 2.66699 2 4.83398 2 6.50098s0.5 3.66699 1.5 6s1.5 8.16602 1.5 17.499c0 18 -9.66699 32 -29 42c-10.667 5.33301 -21.334 8 -32.001 8l-30 -7c-20.667 -8.66699 -31 -21.334 -31 -38.001
c1.33301 -15.333 3.66602 -27.666 6.99902 -36.999v-1z" />
    <glyph glyph-name="colon" unicode=":" horiz-adv-x="205" 
d="M42 1c-2 11.333 -3 29 -3 53l2 63c12.667 5.33301 34.5 8 65.5 8s50.833 -2 59.5 -6l-2 -25c-2.66699 -51.333 -4 -82 -4 -92v-2h-2l-113 1h-3zM42 337c-2 11.333 -3 29 -3 53l2 63c12.667 5.33301 34.5 8 65.5 8s50.833 -2 59.5 -6l-2 -25
c-2.66699 -51.333 -4 -82 -4 -92v-2h-2l-113 1h-3z" />
    <glyph glyph-name="semicolon" unicode=";" horiz-adv-x="205" 
d="M42 337c-2 11.333 -3 29 -3 53l2 63c12.667 5.33301 34.5 8 65.5 8s50.833 -2 59.5 -6l-2 -25c-2.66699 -51.333 -4 -82 -4 -92v-2h-2l-113 1h-3zM159 1l-20 -101c-0.666992 0 -23.667 0.666992 -69 2c-1.33301 1.33301 -0.666016 7.33301 2.00098 18l10 40
c4 16 6.66699 29 8 39l-47 4c-1.33301 0 -2.33301 0.333008 -3 1c0 18.667 1.33301 57 4 115v1h1c11.333 4 21.166 6 29.499 6s38.5 -2.33301 90.5 -7h1l-4 -115h-2c-0.666992 -1.33301 -1 -2.33301 -1 -3z" />
    <glyph glyph-name="less" unicode="&#x3c;" horiz-adv-x="363" 
d="M343 93l-27 -25.999c-18 -18 -35 -34 -51 -48c-9.33301 9.33301 -46.333 43.5 -111 102.5s-111.667 108.5 -141 148.5c26.667 34 89.334 100.333 188.001 199l57 59c8 -4.66699 20.833 -16 38.5 -34s30.167 -29.667 37.5 -35c-12.667 -16 -40.834 -46.5 -84.501 -91.5
s-74.167 -78.5 -91.5 -100.5c18 -16 47.5 -44.333 88.5 -85s73.167 -70.334 96.5 -89.001z" />
    <glyph glyph-name="equal" unicode="=" horiz-adv-x="466" 
d="M425 320l-384 5.99902l3 137h379l-2 -82c0 -25.333 1.66699 -45.666 5 -60.999h-1zM425 112.999l-384 5.99902l3 137h379l-2 -82c0 -25.333 1.66699 -45.666 5 -60.999h-1z" />
    <glyph glyph-name="greater" unicode="&#x3e;" horiz-adv-x="363" 
d="M31 83l-11.001 9.99707c23.333 18.667 55.5 48.334 96.5 89.001s70.5 69 88.5 85c-18 21.333 -48.5 54.5 -91.5 99.5s-71.167 75.833 -84.5 92.5c7.33301 4.66699 19.666 16.167 36.999 34.5s30.333 29.833 39 34.5l57 -59c98.667 -98.667 161.334 -165 188.001 -199
c-30 -39.333 -76.167 -87.666 -138.5 -144.999s-100.166 -92.666 -113.499 -105.999c-16 14 -33 30 -51 48z" />
    <glyph glyph-name="question" unicode="?" horiz-adv-x="451" 
d="M227 177l-53.999 0.999023c-10 0 -18.667 -0.333008 -26 -1h-1c-2.66699 2.66699 -4 10 -4 22l2 38c8.66699 54 21.667 93.667 39 119c4.66699 8.66699 13.334 21.334 26.001 38.001c41.333 54 62 91.667 62 113c0 20 -12.667 34.667 -38 44
c-8.66699 4.66699 -15.834 7 -21.501 7s-12 -1.5 -19 -4.5s-12.5 -8.16699 -16.5 -15.5c-14.667 -24 -27.334 -38 -38.001 -42c-15.333 -1.33301 -27.333 -2 -36 -2l-86 4v1c2.66699 52.667 22.5 99.834 59.5 141.501s82.833 63.834 137.5 66.501
c7.33301 0.666992 14.666 1 21.999 1c53.333 0 99.333 -16.833 138 -50.5s58 -75.167 58 -124.5c0 -45.333 -16 -88 -48 -128c-7.33301 -10 -17.5 -21.833 -30.5 -35.5s-22.833 -24.834 -29.5 -33.501c-23.333 -32.667 -39.666 -73.334 -48.999 -122.001
c-3.33301 -11.333 -5 -19.333 -5 -24s0.333008 -8 1 -10v-1c-10.667 -1.33301 -25 -2 -43 -2zM143.001 0.999023c-2 11.333 -3 29 -3 53l2 63c12.667 5.33301 34.5 8 65.5 8s50.833 -2 59.5 -6l-1 -25c-3.33301 -51.333 -5 -82 -5 -92v-2h-2l-113 1h-3z" />
    <glyph glyph-name="at" unicode="@" horiz-adv-x="564" 
d="M193 88c21.333 -12.667 58.1699 -18.9941 110.503 -18.9941s115.5 18.333 189.5 55l38 -82c-19.333 -12 -42.833 -23.833 -70.5 -35.5s-50.5 -18.834 -68.5 -21.501c-23.333 -5.33301 -51.666 -8 -84.999 -8s-61 1 -83 3c-58.667 8 -103.334 32.333 -134.001 73
c-12 17.333 -23 40.333 -33 69s-15.667 53 -17 73c-4.66699 79.333 -7 139.666 -7 180.999v30c1.33301 81.333 18 142.666 50 183.999c28 35.333 76.667 57.333 146 66c10 2 27 3 51 3s54.167 -2.5 90.5 -7.5s69.5 -21.5 99.5 -49.5c18.667 -16.667 33 -39.334 43 -68.001
s15.833 -53.334 17.5 -74.001s2.5 -47.334 2.5 -80.001v-54c0 -35.333 -2.16699 -65.5 -6.5 -90.5s-16.333 -44.667 -36 -59s-43.834 -21.833 -72.501 -22.5c-12.667 0 -26.334 4.33301 -41.001 13c-7.33301 7.33301 -13.333 14 -18 20c-22 -18 -49.667 -27 -83 -27
s-60.333 11.667 -81 35s-31 60 -31 110c0 48.667 14 89 42 121c10.667 14 28.167 26.333 52.5 37s48.833 16 73.5 16c25.333 0 46.333 -5.66699 63 -17c6.66699 -8 10 -18.333 10 -31l-1 -32c-0.666992 -11.333 -1 -30.666 -1 -57.999c0 -66.667 7 -101.334 21 -104.001
c4.66699 3.33301 8.66699 14.666 12 33.999c2.66699 20.667 4 39.834 4 57.501s-0.333008 34.834 -1 51.501v28c-4 74 -27.667 123 -71 147c-14.667 7.33301 -32.834 12.333 -54.501 15s-36.167 4 -43.5 4c-66.667 0 -109 -29 -127 -87
c-6.66699 -21.333 -10.667 -39 -12 -53c-3.33301 -36 -5 -74 -5 -114s3.33301 -79.667 10 -119c8.66699 -56.667 27.667 -94.334 57 -113.001zM249.004 289.006v-3c0 -12 3.33301 -20.333 10 -25s12.5 -7 17.5 -7s10.167 1.33301 15.5 4c18 7.33301 27 29.833 27 67.5
s1.66699 56.5 5 56.5c-4.66699 0.666992 -9 1 -13 1c-24 0 -40 -8 -48 -24c-9.33301 -14.667 -14 -38 -14 -70z" />
    <glyph glyph-name="A" unicode="A" horiz-adv-x="434" 
d="M157 700c9.33301 1.33301 15.667 1.66699 19 1s12 -1 26 -1s40 1.66699 78 5l82 -354l75 -350v-1c-16.667 -3.33301 -36 -5 -58 -5s-47.333 3 -76 9h-1c-4.66699 12.667 -12 39.5 -22 80.5s-18.333 68.5 -25 82.5c-2.66699 2 -9 3 -19 3l-43 -2
c-5.33301 -12.667 -12 -39.667 -20 -81s-16 -70 -24 -86c-6 -1.33301 -12 -2 -18 -2l-125 2c-0.666992 0 -1.33398 0.333008 -2.00098 1c0.666992 2 7.33398 39.667 20.001 113s31 165.5 55 276.5s50 213.833 78 308.5zM186.001 286.001h74.001
c-16 139.333 -28.667 209 -38 209c-2.66699 0 -5.33398 -5 -8.00098 -15s-12 -74.667 -28 -194z" />
    <glyph glyph-name="B" unicode="B" horiz-adv-x="477" 
d="M40 218l1.99707 340c0 57.333 -0.333008 102 -1 134l1 1c53.333 14.667 96.5 22 129.5 22s63.333 -1.83301 91 -5.5s55.334 -12.5 83.001 -26.5s50.167 -36 67.5 -66s26 -68 26 -114s-16.333 -96.333 -49 -151c-3.33301 -6 -0.833008 -14 7.5 -24
s13.666 -16.5 15.999 -19.5l16 -21.5c8.33301 -11.333 13.5 -19.5 15.5 -24.5s5.5 -13 10.5 -24s8 -20.667 9 -29s1.5 -18.166 1.5 -29.499s-1.5 -25.666 -4.5 -42.999s-9.5 -34.833 -19.5 -52.5s-21.167 -31.834 -33.5 -42.501s-28.166 -19.334 -47.499 -26.001
c-36.667 -14 -86 -20.667 -148 -20c-15.333 0 -40.666 0.666992 -75.999 2l-71 4c-11.333 0 -18.666 0.666992 -21.999 2c-2.66699 44.667 -4 116 -4 214zM187.997 140l37.998 -0.999023c26.667 0 44.5 2.83301 53.5 8.5s16.167 11.5 21.5 17.5c7.33301 10 11 21.333 11 34
s-2.66699 26 -8 40c-9.33301 18 -23.666 29.333 -42.999 34c-10 2.66699 -24.667 4.5 -44 5.5s-30.666 1.83301 -33.999 2.5c-8 -31.333 -12 -58.833 -12 -82.5s5 -42.834 15 -57.501zM179.995 535.001l-1 -66.999c0 -22 1.66699 -38 5 -48c14 -2 26.667 -3 38 -3
c40.667 0 66.667 11 78 33c8.66699 16 13 28.667 13 38s-1.33301 16.666 -4 21.999c-10 19.333 -24.667 31 -44 35s-36 6 -50 6s-25.667 -2.33301 -35 -7v-9z" />
    <glyph glyph-name="C" unicode="C" horiz-adv-x="488" 
d="M360 285l44.9961 0.00292969c27.333 0 45 -1.66699 53 -5c6.66699 -25.333 10 -49.333 10 -72c0 -71.333 -26.667 -129 -80 -173c-36 -30 -77.667 -45.333 -125 -46c-14 -2 -29.333 -3 -46 -3s-37.667 2.66699 -63 8s-50.5 19.166 -75.5 41.499
s-39.167 51.166 -42.5 86.499c-2.66699 56.667 -4 122.834 -4 198.501v168v70.5c0 10.667 4 25.667 12 45c12 35.333 30.333 64.333 55 87c13.333 10 30.333 17.667 51 23c25.333 8 47 12 65 12c56.667 0 101.334 -10.333 134.001 -31c81.333 -52 122 -117.667 122 -197
c0 -24.667 -4 -50.334 -12 -77.001c-15.333 -3.33301 -34.666 -5 -57.999 -5s-52.666 3 -87.999 9c-1.33301 7.33301 -2.33301 18.666 -3 33.999s-1.66699 27.666 -3 36.999c-4 28 -13.333 46.333 -28 55c-8 4.66699 -15.667 7 -23 7s-18.166 -1.16699 -32.499 -3.5
s-24.5 -6.5 -30.5 -12.5c-2 -1.33301 -3.66699 -4.66602 -5 -9.99902c-6 -16 -9 -60.667 -9 -134s1.33301 -124.666 4 -153.999c5.33301 -52 24.333 -82.667 57 -92c4 -0.666992 7.66699 -1 11 -1c44.667 0 68 29.667 70 89c0.666992 23.333 1.66699 38.666 3 45.999
c6 -0.666992 18 -1 36 -1z" />
    <glyph glyph-name="D" unicode="D" horiz-adv-x="482" 
d="M167 702l93.0029 -1.00195h24c21.333 -5.33301 41.833 -15.666 61.5 -30.999s35.5 -33 47.5 -53c27.333 -42.667 47.333 -91.667 60 -147c4.66699 -14 7.66699 -35 9 -63c-0.666992 -10 -1.33398 -25.5 -2.00098 -46.5s-1.33398 -37.5 -2.00098 -49.5
c-2 -37.333 -4.16699 -62.166 -6.5 -74.499s-3.66602 -18.5 -3.99902 -18.5s-0.5 -0.333008 -0.5 -1c-22 -63.333 -64.333 -134 -127 -212c-58.667 -2 -146.334 -3 -263.001 -3l-1 -1c-11.333 81.333 -17 195.333 -17 342l2 251c0 36.667 -0.333008 67.667 -1 93l3 4
c31.333 7.33301 72.666 11 123.999 11zM183.003 409.998v-106.002c0 -32.667 0.333008 -60 1 -82c6.66699 -5.33301 16.667 -8 30 -8c23.333 0 42 2.66699 56 8c10.667 6.66699 21 17.334 31 32.001c18.667 28.667 28 58.334 28 89.001c0 22 -3.33301 43.667 -10 65
c-13.333 43.333 -33 69.333 -59 78c-13.333 2 -26.333 3 -39 3s-24.667 -1.33301 -36 -4h-3v-4c0.666992 -16 1 -39.667 1 -71z" />
    <glyph glyph-name="E" unicode="E" horiz-adv-x="481" 
d="M201 141l219.999 -6.00098c15.333 0 29.333 0.333008 42 1v-2c1.33301 -16 2 -36 2 -60s-3.33301 -47.667 -10 -71l-284 -3c-46 0 -88 1.66699 -126 5l-5 469c0 75.333 2 147 6 215c112.667 6 209.667 9 291 9s122.333 -1 123 -3c2 -14 3 -29 3 -45l-3 -97v-1
c-29.333 -6.66699 -68 -10 -116 -10h-52c-37.333 0 -68.666 -0.666992 -93.999 -2h-3l-1 -1l-3 -87c0 -17.333 1.66699 -27.666 5 -30.999c36 -2 77 -3 123 -3v-1c2.66699 -2 4 -16 4 -42l-2 -97c-14 -4 -36.5 -6 -67.5 -6s-48.833 -1.66699 -53.5 -5
c-2.66699 -14 -4 -31.5 -4 -52.5s1.33301 -45.167 4 -72.5z" />
    <glyph glyph-name="F" unicode="F" horiz-adv-x="494" 
d="M353 261l-128 -15.0029h-1c-4 -45.333 -6.66699 -127 -8 -245c-27.333 -2.66699 -62.5 -4 -105.5 -4s-66.167 1.66699 -69.5 5l2 677v1c65.333 11.333 142.333 17 231 17s160.667 -5 216 -15v-148c-145.333 -7.33301 -234.333 -12.666 -267 -15.999
c-6.66699 -15.333 -10 -30.666 -10 -45.999s2.16699 -26.666 6.5 -33.999s6.83301 -11 7.5 -11c18 -2 37.5 -3 58.5 -3s43.5 1 67.5 3c2 -5.33301 3 -19.333 3 -42l-1 -76c0 -18.667 0.333008 -34 1 -46c0 -1.33301 -1 -2 -3 -2z" />
    <glyph glyph-name="G" unicode="G" horiz-adv-x="481" 
d="M305 238h-39c-12 0 -19.333 0.666992 -22 2c-1.33301 14 -2 31 -2 51s-0.666992 38 -2 54v1c0 0.666992 0.333008 1 1 1s1.33398 0.333008 2.00098 1c10 6 23.833 9.16699 41.5 9.5s33.834 0.5 48.501 0.5s37.167 -1 67.5 -3s46.166 -3 47.499 -3h2l1 -1
c5.33301 -46 8 -88 8 -126s-2.66699 -71.333 -8 -100c-6 -58 -37.667 -97.667 -95 -119c-50 -14 -92.167 -21 -126.5 -21s-63.5 5.16699 -87.5 15.5s-43.333 24.833 -58 43.5c-23.333 30.667 -38.666 78.334 -45.999 143.001c-7.33301 74 -11 127.667 -11 161
c0 88.667 4 157.834 12 207.501s27.333 85.167 58 106.5c31.333 26.667 77.666 40 138.999 40s112.666 -15.833 153.999 -47.5s62 -77.834 62 -138.501c0 -14.667 -1 -28.334 -3 -41.001c-1.33301 -2 -18.666 -3.16699 -51.999 -3.5s-58 0.5 -74 2.5
c-16.667 55.333 -39.334 83 -68.001 83c-6 0.666992 -11.833 1 -17.5 1s-12.667 -0.333008 -21 -1s-15 -3.5 -20 -8.5s-10.833 -18.833 -17.5 -41.5c-10 -35.333 -15 -82.5 -15 -141.5s1.83301 -107.5 5.5 -145.5s14.167 -64 31.5 -78c10 -6.66699 22.167 -10 36.5 -10
s30.5 3.33301 48.5 10c16.667 7.33301 27 19.333 31 36c2 8 3.5 19 4.5 33s-0.166992 23 -3.5 27h-13z" />
    <glyph glyph-name="H" unicode="H" horiz-adv-x="499" 
d="M71 697l66.0029 2.99902c14.667 0 25.667 -1.33301 33 -4c3.33301 -26.667 6.16602 -69.5 8.49902 -128.5s6.5 -103.833 12.5 -134.5h1c8 -2 20.667 -3 38 -3s40.666 1.33301 69.999 4h1c4 48 6 94.5 6 139.5s-0.666992 85.5 -2 121.5c26 8.66699 51.667 13 77 13
s45.333 -0.666992 60 -2l27 -700c-18 -3.33301 -44.333 -5 -79 -5s-55 -0.333008 -61 -1h-1c-4.66699 30.667 -7.5 77.5 -8.5 140.5s-3.16699 108.167 -6.5 135.5l-1 1c-18.667 3.33301 -37.667 5 -57 5s-39 -2.33301 -59 -7c-1.33301 -16.667 -2 -40.334 -2 -71.001l1 -112
c0 -39.333 -1.66699 -67.666 -5 -84.999c-8 -4.66699 -21.333 -7 -40 -7l-71 4c-12.667 0 -21 -1 -25 -3c-4.66699 62 -8.33398 155.333 -11.001 280s-4 216.334 -4 275.001s0.333008 106 1 142v1h3c6.66699 -1.33301 16 -2 28 -2z" />
    <glyph glyph-name="I" unicode="I" horiz-adv-x="260" 
d="M52 708l36 -2c55.333 -2 92 -3 110 -3h24v-4l-7 -477c0 -52.667 2 -125 6 -217c-2 -7.33301 -22 -11 -60 -11l-103 3c-10 0 -16.333 -0.333008 -19 -1c3.33301 43.333 5 100.333 5 171l-5 345c0 85.333 2.66699 150 8 194v2h5z" />
    <glyph glyph-name="J" unicode="J" horiz-adv-x="463" 
d="M159 286l-0.00292969 -6c5.33301 -74 25.333 -112 60 -114c4 -0.666992 8 -1 12 -1c12.667 0 23.5 6.33301 32.5 19s14.5 30 16.5 52c-2 110.667 -3 203.834 -3 279.501s0.666992 138.167 2 187.5v7l146 2v-31l5 -296c0 -21.333 -0.333008 -38 -1 -50
s-1.16699 -30 -1.5 -54s-1 -42.167 -2 -54.5s-2.66699 -29.333 -5 -51s-6.16602 -39.167 -11.499 -52.5s-11.666 -27.666 -18.999 -42.999c-14.667 -28.667 -40.334 -50 -77.001 -64c-33.333 -16.667 -66.166 -25 -98.499 -25s-61.833 3 -88.5 9
c-26 7.33301 -48 21.666 -66 42.999c-38 46 -57 118.333 -57 217c0 9.33301 0.333008 18.666 1 27.999c18.667 4.66699 40.834 7 66.501 7s55.167 -3 88.5 -9z" />
    <glyph glyph-name="K" unicode="K" horiz-adv-x="459" 
d="M463 4c-15.333 -3.33301 -34.666 -4.99805 -57.999 -4.99805l-81 3c-22 25.333 -49.167 72.666 -81.5 141.999s-51.166 109 -56.499 119c-0.666992 -13.333 -1 -29.666 -1 -48.999l4 -209c-18 -4.66699 -34.333 -7 -49 -7c-44.667 0 -77 2.33301 -97 7
c-3.33301 22.667 -5 75 -5 157l7 537h23l111 -2c0.666992 -25.333 1 -65.333 1 -120s0.333008 -94.667 1 -120c0 0.666992 5.66699 8.16699 17 22.5s31.166 48.166 59.499 101.499s51.166 92.333 68.499 117h25h62c24 0 40.333 -1 49 -3c-12 -42 -40.333 -101.333 -85 -178
s-73 -129.334 -85 -158.001z" />
    <glyph glyph-name="L" unicode="L" horiz-adv-x="461" 
d="M457 101l2.99805 -68c0 -8.66699 -1.16699 -16 -3.5 -22s-4.66602 -9.33301 -6.99902 -10s-5.83301 -1 -10.5 -1h-8h-15l-202 -3c-47.333 0 -106.666 0.666992 -177.999 2v18c5.33301 204.667 8 320 8 346l-5 340c12 6 37 9 75 9s66.333 -4 85 -12
c-1.33301 -28.667 -2 -68.667 -2 -120l3 -367v-54v-1c4 1.33301 13.333 2 28 2l218 -8h13z" />
    <glyph glyph-name="M" unicode="M" horiz-adv-x="501" 
d="M456 -1c-16 2 -35.6611 2.99707 -58.9941 2.99707l-73 -2c-0.666992 12 -1.83398 68.833 -3.50098 170.5s-5.16699 174.5 -10.5 218.5c-4.66699 -7.33301 -11.334 -23.666 -20.001 -48.999c-24 -64.667 -38.333 -97 -43 -97s-10.334 6.83301 -17.001 20.5
s-11.834 25.5 -15.501 35.5l-11 29.5c-3.66699 9.66699 -6.83398 18.667 -9.50098 27s-5.66699 17.166 -9 26.499c-3.33301 -42 -5 -93.667 -5 -155s2.66699 -136 8 -224c-18.667 -3.33301 -41.334 -5 -68.001 -5l-72 2c-1.33301 0 -2.66602 2.33301 -3.99902 7
s-2 68.834 -2 192.501s0.666992 285.834 2 486.501c2.66699 4 18 6 46 6l73 -1h17h1c9.33301 -10 21.166 -35.333 35.499 -76s24.5 -65.667 30.5 -75c2 -2 3.83301 -3.16699 5.5 -3.5s4 3.83398 7 12.501s6.5 19.667 10.5 33l13 42c12 36.667 21.667 59.667 29 69
c5.33301 -0.666992 11 -1 17 -1l131 5c-0.666992 -18 -1 -40.333 -1 -67l2 -212c0 -42 -0.666992 -75.333 -2 -100z" />
    <glyph glyph-name="N" unicode="N" horiz-adv-x="498" 
d="M456 100l1 -79.999v-20c-10 -3.33301 -21 -5 -33 -5l-92 5c-61.333 132 -101.666 224.333 -120.999 277l-10 30c-6.66699 20 -11 30 -13 30c-4.66699 0 -7 -52.333 -7 -157s0.333008 -164.667 1 -180c-12.667 -3.33301 -27.334 -5 -44.001 -5l-96 6v70l-3 361
c0 106 3 195.333 9 268c11.333 2.66699 24.833 4 40.5 4s34.167 -1 55.5 -3s32 -4.33301 32 -7c6.66699 -17.333 15.167 -36 25.5 -56s18.5 -37.167 24.5 -51.5s21.5 -46.5 46.5 -96.5s38.167 -75 39.5 -75c4.66699 3.33301 7 21.666 7 54.999l-3 145
c0 15.333 0.666992 45 2 89c22.667 4 46.667 6 72 6s47.333 -2 66 -6v-322c0.666992 -37.333 1 -94.333 1 -171z" />
    <glyph glyph-name="O" unicode="O" horiz-adv-x="483" 
d="M456 468l-3.00098 -138.003c0 -45.333 -1 -80 -3 -104l-3 -33c-3.33301 -54.667 -16 -99.667 -38 -135c-20 -27.333 -54.333 -47.666 -103 -60.999c-25.333 -7.33301 -48 -11 -68 -11s-40.833 0.833008 -62.5 2.5s-43.667 7.5 -66 17.5s-38.833 27 -49.5 51
c-14.667 25.333 -22.667 62.333 -24 111c-5.33301 102 -8 164 -8 186c0 52.667 1 95.334 3 128.001c1.33301 74.667 19 131.667 53 171c8 8 15.667 14 23 18c38.667 19.333 82.334 29 131.001 29c64 0 116.667 -15.667 158 -47c19.333 -17.333 33 -37.666 41 -60.999
c6.66699 -15.333 11.5 -34 14.5 -56s4.5 -44.667 4.5 -68zM327.999 247.997l1.99707 52.0029v48l-2 68c-2.66699 25.333 -4 44.333 -4 57c-3.33301 41.333 -20.666 69.666 -51.999 84.999c-9.33301 4 -18.333 6 -27 6l-51 -20c-23.333 -18.667 -39 -41.667 -47 -69
c-6.66699 -32.667 -10 -63.834 -10 -93.501s0.333008 -50.5 1 -62.5c4.66699 -74 11 -123.667 19 -149c14 -29.333 40.667 -44 80 -44c28.667 0 52.334 10.333 71.001 31c10.667 14.667 16.334 25.167 17.001 31.5s1.16699 15.166 1.5 26.499s0.833008 22.333 1.5 33z" />
    <glyph glyph-name="P" unicode="P" horiz-adv-x="497" 
d="M40 289l1 102.001c0 132.667 -1.33301 234 -4 304c44 12 90.167 18 138.5 18s95.5 -6 141.5 -18s84.667 -35.5 116 -70.5s48.333 -79.5 51 -133.5v-1c0 -74 -32 -134.667 -96 -182c-44 -32 -90.333 -48 -139 -48c-12.667 0 -25.667 1 -39 3
c0.666992 -10 1 -33.833 1 -71.5s1 -97.5 3 -179.5v-1c-1.33301 -0.666992 -2.33301 -1 -3 -1c-18.667 -5.33301 -46.5 -8 -83.5 -8s-64.833 1.33301 -83.5 4c-2.66699 57.333 -4 151.666 -4 282.999zM184 483.001c0 -35.333 2.66699 -61.332 8 -77.999h3
c46.667 0 78.5 3 95.5 9s29.167 12.667 36.5 20c8.66699 11.333 13 22 13 32c0 32.667 -10.333 55 -31 67c-23.333 18.667 -50.333 28 -81 28c-13.333 0 -24 -0.833008 -32 -2.5s-12.333 -2.83398 -13 -3.50098c0.666992 -12 1 -23.667 1 -35v-37z" />
    <glyph glyph-name="Q" unicode="Q" horiz-adv-x="495" 
d="M428 78c12.667 -15.333 19 -25.667 19 -31s-1.5 -10.5 -4.5 -15.5s-5.83301 -8.5 -8.5 -10.5l-14 -11c-18.667 -12 -31.334 -18 -38.001 -18c-13.333 0 -27.333 10.667 -42 32c-8 -9.33301 -22 -16.666 -42 -21.999s-35.333 -8 -46 -8c-66 0 -120 20 -162 60
c-14.667 13.333 -25.167 26.833 -31.5 40.5s-11 24 -14 31s-5.33301 16.5 -7 28.5s-3.16699 21.167 -4.5 27.5s-2.16602 16.666 -2.49902 30.999s-0.5 24.166 -0.5 29.499v167c0 83.333 7.33301 153 22 209c9.33301 28 32.5 51 69.5 69s81.333 27 133 27
s90.167 -6.33301 115.5 -19s48.333 -43.667 69 -93c19.333 -60.667 29 -138.667 29 -234c0 -42.667 -0.666992 -72.5 -2 -89.5s-2 -32.5 -2 -46.5c-1.33301 -30 -4 -52.333 -8 -67c-1.33301 -12 -3.33301 -22.667 -6 -32s-10 -27.666 -22 -54.999zM153 342.999
l-0.99707 -85.998c0 -40.667 3 -69.334 9 -86.001c14 -37.333 44 -56 90 -56c7.33301 0 13.333 0.333008 18 1l-22 23c-14 16.667 -21 29 -21 37s1.33301 13.5 4 16.5s7.5 6.33301 14.5 10s11.667 6.33398 14 8.00098s5.66602 4.5 9.99902 8.5s8.5 7.16699 12.5 9.5
s8.33301 3.5 13 3.5s9.16699 -2.83301 13.5 -8.5s8.66602 -12.834 12.999 -21.501s8.83301 -15.334 13.5 -20.001c1.33301 4 2.66602 14.5 3.99902 31.5s2.5 28.167 3.5 33.5s1.5 35 1.5 89s-1.66699 98.667 -5 134s-11.5 60 -24.5 74s-36.333 21 -70 21
s-55.5 -4.33301 -65.5 -13c-16.667 -15.333 -25 -85 -25 -209z" />
    <glyph glyph-name="R" unicode="R" horiz-adv-x="518" 
d="M516 3l-129.999 -4.00098c-16.667 0 -28.334 0.666992 -35.001 2h-1c-48 112 -94.333 195.667 -139 251l-2 3c-1.33301 -11.333 -2 -33.833 -2 -67.5s2.33301 -92.5 7 -176.5c-18.667 -7.33301 -55.667 -11 -111 -11h-51h-12c2.66699 0 4 105.167 4 315.5
s-3.66699 338.166 -11 383.499c78 11.333 136.5 17 175.5 17s68.167 -1 87.5 -3c38.667 -2 74 -13.333 106 -34c62 -40 95.333 -99.667 100 -179c0.666992 -3.33301 1 -6.66602 1 -9.99902c0 -33.333 -10 -65.666 -30 -96.999c-28 -54.667 -71.333 -83.667 -130 -87h-5v-1
c6.66699 -12 34 -54.5 82 -127.5s80 -131.167 96 -174.5zM241.001 432.999c16.667 0 31.666 1 44.999 3c28.667 6 43 28 43 66c0 24 -8.33301 42 -25 54c-14 12.667 -31.5 19 -52.5 19s-45.167 -5.33301 -72.5 -16c0.666992 -9.33301 1.16699 -29.333 1.5 -60
s1.5 -51.667 3.5 -63h1c20.667 -2 39.334 -3 56.001 -3z" />
    <glyph glyph-name="S" unicode="S" horiz-adv-x="485" 
d="M55 210l109.997 -2.99707c2 -29.333 17.667 -49 47 -59c10 -4 21.333 -6 34 -6s25 5.16699 37 15.5s18 24.166 18 41.499c0 22 -5.33301 38.333 -16 49c-13.333 13.333 -25.666 22.166 -36.999 26.499s-21.666 7.66602 -30.999 9.99902s-15.666 3.83301 -18.999 4.5
c-24.667 4.66699 -38.334 7.33398 -41.001 8.00098c-23.333 4.66699 -46 16 -68 34c-44.667 42.667 -67 94 -67 154c0 48.667 17.333 94.334 52 137.001c22.667 27.333 49.667 47.666 81 60.999c28.667 10.667 59.667 16 93 16c46.667 0 89.667 -9 129 -27
c34 -17.333 59 -42.666 75 -75.999c10.667 -22 16 -43.5 16 -64.5s-1.66699 -40.167 -5 -57.5h-1c-29.333 -4.66699 -56.666 -7 -81.999 -7s-48 2.66699 -68 8c1.33301 4.66699 2 9.33398 2 14.001c0 16 -7.5 29.333 -22.5 40s-27.833 16 -38.5 16
c-48.667 0 -70.667 -24 -66 -72c8 -23.333 29.667 -37.666 65 -42.999c35.333 -4 68 -15.333 98 -34s55 -42.334 75 -71.001c25.333 -32.667 38 -69.334 38 -110.001s-7.33301 -75.667 -22 -105c-15.333 -39.333 -40 -68.333 -74 -87s-71 -28 -111 -28
c-42 0 -82 8.16699 -120 24.5s-68.167 39.666 -90.5 69.999s-33.5 63.166 -33.5 98.499v12v6c4 2.66699 18.333 4 43 4z" />
    <glyph glyph-name="T" unicode="T" horiz-adv-x="443" 
d="M143 9l0.999023 135.001c0 128 -2.66699 257.333 -8 388l-1 1c-12 6 -34.5 9.33301 -67.5 10s-50.5 1.33398 -52.5 2.00098c-4 8 -6 30.833 -6 68.5s0.666992 67.167 2 88.5l-1 2c46.667 1.33301 89.334 2 128.001 2s82.667 -0.166992 132 -0.5
s103.333 -3.83301 162 -10.5c1.33301 -22 2 -46.333 2 -73s-2 -54 -6 -82c-8 1.33301 -22 2 -42 2s-46.667 -0.666992 -80 -2h-3c-1.33301 -2.66699 -2 -33.334 -2 -92.001s2 -205.334 6 -440.001v-2c-14.667 -2.66699 -38 -4 -70 -4l-25 1c-32 0 -55 -1.33301 -69 -4v10z
" />
    <glyph glyph-name="U" unicode="U" horiz-adv-x="505" 
d="M323 672l86.999 6.99902c28.667 0 48.334 -3.33301 59.001 -10c2.66699 -66 4 -143.667 4 -233s-5.33301 -184.333 -16 -285c-6 -45.333 -23 -83 -51 -113c-34 -36 -83 -54 -147 -54c-75.333 0 -135 21.667 -179 65c-27.333 26.667 -41.666 59.334 -42.999 98.001l5 439
c0 61.333 -0.666992 92.666 -2 93.999h1l74 2c29.333 0 51.666 -2.33301 66.999 -7v-1c-2.66699 -57.333 -4 -126.666 -4 -207.999s4.33301 -175.666 13 -282.999c8.66699 -30 28.667 -45 60 -45c10 0 20.333 2.66699 31 8c17.333 8.66699 28 22.667 32 42
c2.66699 60.667 4.66699 147.667 6 261s2.33301 187.666 3 222.999z" />
    <glyph glyph-name="V" unicode="V" horiz-adv-x="440" 
d="M279 1l-63.0039 -4.00098c-39.333 0 -67 2.66699 -83 8c-58 209.333 -97 434.666 -117 675.999v1c8 9.33301 31.833 14 71.5 14s63.167 -1.33301 70.5 -4c2 -10 4 -40 6 -90c4.66699 -141.333 20.334 -267.666 47.001 -378.999c18.667 78 35.834 167.333 51.501 268
s27.834 167.334 36.501 200.001c0 1.33301 0.666992 2 2 2c16 -3.33301 40.333 -5 73 -5s56.334 -1.33301 71.001 -4c-32.667 -174 -88 -401.667 -166 -683z" />
    <glyph glyph-name="W" unicode="W" horiz-adv-x="465" 
d="M307 694c18.667 4 45.835 5.99902 81.502 5.99902s54.834 -1.33301 57.501 -4c-6 -70.667 -16.833 -183 -32.5 -337s-26.834 -272 -33.501 -354c-4 -1.33301 -15.333 -2 -34 -2h-48c-8 10.667 -17.833 38.667 -29.5 84s-21.5 74 -29.5 86h-1
c-8.66699 -8.66699 -18.334 -36 -29.001 -82s-19 -74 -25 -84c-18.667 -3.33301 -34 -5 -46 -5s-25.667 1 -41 3h-1c-1.33301 10.667 -6.66602 47.667 -15.999 111l-17 122c-24 170 -37.333 322.333 -40 457v1c22 3.33301 39.333 5 52 5s43 -1 91 -3
c2 -22.667 3.16699 -86.667 3.5 -192s6.16602 -180.333 17.499 -225c31.333 114.667 47 175.334 47 182.001c3.33301 -2.66699 12.333 -33.167 27 -91.5s24 -92.833 28 -103.5c4 38.667 7.16699 109.5 9.5 212.5s5.16602 173.833 8.49902 212.5v1z" />
    <glyph glyph-name="X" unicode="X" horiz-adv-x="436" 
d="M398 3l-64.0029 -2c-18 0 -32.667 1.33301 -44 4l-1 1c-9.33301 20 -20.166 56.833 -32.499 110.5s-24.166 91.5 -35.499 113.5l-1 1c-11.333 -25.333 -24 -64.166 -38 -116.499s-26.333 -89.833 -37 -112.5c-20 -1.33301 -43.5 -2 -70.5 -2s-48.833 3 -65.5 9
c6.66699 23.333 23.334 75 50.001 155s44.667 141 54 183c-13.333 62 -27.5 113.5 -42.5 154.5l-26.5 72.5c-22 61.333 -37 99.666 -45 114.999c38 2.66699 65 4 81 4h46.5c11 0 17.5 -0.333008 19.5 -1c2.66699 -1.33301 4.33398 -2.66602 5.00098 -3.99902
c36 -125.333 58 -199 66 -221c9.33301 21.333 22.5 62.666 39.5 123.999s26.833 96 29.5 104v1c31.333 2.66699 82.333 4 153 4h1l-38 -110c-37.333 -102.667 -61 -185.667 -71 -249c7.33301 -42.667 23.166 -103.667 47.499 -183s39.5 -131.333 45.5 -156
c-6 0.666992 -14.667 1 -26 1z" />
    <glyph glyph-name="Y" unicode="Y" horiz-adv-x="435" 
d="M16 692l85.998 5.99805c20 0 35.667 -2.66699 47 -8c6 -28.667 17.167 -65.834 33.5 -111.501s30.833 -81.5 43.5 -107.5c10 18 24.5 55.167 43.5 111.5s31.5 91.5 37.5 105.5c22.667 4.66699 49.5 7 80.5 7s51.833 -0.666992 62.5 -2v-1
c-26 -83.333 -75.167 -201.166 -147.5 -353.499s-121.166 -265.166 -146.499 -338.499c-5.33301 0.666992 -13.666 1 -24.999 1l-94 -3c-10.667 0 -18.667 0.333008 -24 1h-2c22 68.667 65.667 184 131 346v2c-9.33301 38.667 -30.333 96.334 -63 173.001
s-53.667 134 -63 172z" />
    <glyph glyph-name="Z" unicode="Z" horiz-adv-x="474" 
d="M454 653l-3.00098 -117.997v-1c-29.333 -50 -75 -119.333 -137 -208s-102 -147 -120 -175l-1 -1c51.333 6.66699 99.833 10.167 145.5 10.5s81.167 1.16602 106.5 2.49902v-3c2 -14.667 3 -34.834 3 -60.501s-1.66699 -58.834 -5 -99.501v-2c-74.667 4 -146 6 -214 6
s-133 -1.66699 -195 -5c-6 17.333 -9 41.333 -9 72l1 36c0 20 -0.333008 37.333 -1 52c25.333 57.333 63 121.333 113 192l71.5 100.5l60.5 83.5c-65.333 8.66699 -145.666 13 -240.999 13c-5.33301 9.33301 -8 30.333 -8 63s-2 57.334 -6 74.001v1
c0 1.33301 -0.666992 2.66602 -2 3.99902c48.667 5.33301 111 8 187 8l251 -4c2 -6 3 -19.667 3 -41z" />
    <glyph glyph-name="bracketleft" unicode="[" horiz-adv-x="321" 
d="M176 457l8 -314v-1c14.667 -4 34.5 -6.5 59.5 -7.5s40.833 -1.83301 47.5 -2.5c2.66699 -38.667 4 -67.667 4 -87s-0.333008 -34 -1 -44l-97 -1c-90 -0 -141.333 -0.666992 -154 -2v4c0.666992 48 1 93.667 1 137l-1 190c0 152.667 3.33301 277.667 10 375v1
c16 2 36.333 3 61 3l139 -4c18 0 32.667 0.666992 44 2c0 -66 -2 -105.333 -6 -118h-3h-11l-75 -3c-8 0 -14.667 0.333008 -20 1h-1c-3.33301 -51.333 -5 -94.333 -5 -129z" />
    <glyph glyph-name="backslash" unicode="\" horiz-adv-x="412" 
d="M389 -1c-50.667 1.33301 -83.1689 2.00098 -97.502 2.00098s-23.5 0.333008 -27.5 1c-1.33301 1.33301 -2.33301 3 -3 5l-57 144c-20 50 -39.5 104.5 -58.5 163.5s-31.167 96.167 -36.5 111.5s-13 36 -23 62c-21.333 60 -37 108.333 -47 145
c-11.333 42 -18 64.667 -20 68c10 4.66699 26 7 48 7l49 -1c14.667 0 26.334 0.666992 35.001 2c12.667 -48 23.667 -85.333 33 -112s14.833 -41.834 16.5 -45.501s6.83398 -19.667 15.501 -48s29 -85.5 61 -171.5s50.333 -137.333 55 -154c10 -22.667 18 -43.5 24 -62.5
s12 -36.5 18 -52.5c12 -32.667 18 -51.5 18 -56.5s-0.666992 -7.5 -2 -7.5h-1z" />
    <glyph glyph-name="bracketright" unicode="]" horiz-adv-x="321" 
d="M68 704l138.999 3.99902c24.667 0 45 -1 61 -3v-1c6 -88.667 9 -206 9 -352s0.333008 -262.667 1 -350v-4c-12.667 1.33301 -64 2 -154 2l-97 1c-0.666992 10 -1 24.667 -1 44s1.33301 48.333 4 87c6.66699 0.666992 17.334 1.33398 32.001 2.00098
c35.333 1.33301 60.333 4 75 8v1l8 314c0 34.667 -1.66699 77.667 -5 129h-1c-5.33301 -0.666992 -12 -1 -20 -1l-75 3h-11h-3c-4 12.667 -6 52 -6 118c11.333 -1.33301 26 -2 44 -2z" />
    <glyph glyph-name="asciicircum" unicode="^" horiz-adv-x="440" 
d="M408 476.5c-14 -2.33301 -27.835 -4.00293 -41.502 -5.00293s-26.167 -1.5 -37.5 -1.5s-26.666 1 -45.999 3c-4.66699 0 -15.667 9.66699 -33 29s-28.333 30.333 -33 33c-5.33301 -2 -17 -12.667 -35 -32s-28.167 -29.166 -30.5 -29.499s-7.66602 -0.5 -15.999 -0.5
s-49.833 1.66699 -124.5 5c22 30.667 46.667 59.334 74 86.001l80 75l55 50l210 -210c-0.666992 0.666992 -8 -0.166016 -22 -2.49902z" />
    <glyph glyph-name="underscore" unicode="_" horiz-adv-x="650" 
d="M43 -148l-2 105.999l569 5h1c-3.33301 -21.333 -5 -39.666 -5 -54.999l1 -58z" />
    <glyph glyph-name="grave" unicode="`" horiz-adv-x="255" 
d="M249 527c-16 -4 -38.667 -6 -68 -6s-51.333 0.666992 -66 2c-5.33301 8 -22.5 25 -51.5 51s-45.833 41.333 -50.5 46l69 70c18 -14 48.167 -42.667 90.5 -86s67.833 -69 76.5 -77z" />
    <glyph glyph-name="a" unicode="a" 
d="M349 2l-43.001 -3c-8 2.66699 -12 8.33398 -12 17.001s0.666992 16.5 2 23.5s2 12.5 2 16.5c-16.667 -16.667 -37.167 -30.5 -61.5 -41.5s-47.833 -16.5 -70.5 -16.5c-32 0 -59.667 15.333 -83 46c-42.667 56 -64 130 -64 222c0 66 16.167 120.667 48.5 164
s72.166 65.666 119.499 66.999c20.667 0 35.834 -0.5 45.501 -1.5s20 -5 31 -12s19.5 -17.833 25.5 -32.5c-0.666992 8 -0.166992 17.5 1.5 28.5s2.5 18.5 2.5 22.5c0 0.666992 16 1 48 1c46.667 -2 79.334 -3.66699 98.001 -5c1.33301 -10.667 2 -18.667 2 -24v-10
c-0.666992 -17.333 -1 -41 -1 -71l2 -234c0 -54 -0.5 -88.833 -1.5 -104.5s-1.5 -28.167 -1.5 -37.5s-4.33301 -15.333 -13 -18h-12zM177.999 344.5c-16 -12.333 -25.999 -26.333 -29.999 -42s-6 -36.667 -6 -63s8 -49.833 24 -70.5s37.667 -31 65 -31
c21.333 0 37.666 6 48.999 18c7.33301 8 11.333 20.667 12 38s1 32 1 44v21c0 50.667 -2.5 80.667 -7.5 90s-20.167 14 -45.5 14s-46 -6.16699 -62 -18.5z" />
    <glyph glyph-name="b" unicode="b" horiz-adv-x="464" 
d="M41 704c13.333 2.66699 37.667 3.99805 73 3.99805s53 -1.66699 53 -5v-11l5 -85c0 -7.33301 -0.333008 -19.666 -1 -36.999l-1 -95c2.66699 12.667 26.334 21 71.001 25c11.333 1.33301 27.666 2 48.999 2s45.666 -4.83301 72.999 -14.5s47.5 -33.167 60.5 -70.5
s19.333 -74.5 19 -111.5s-1 -63 -2 -78s-3 -33.167 -6 -54.5s-6.83301 -38.833 -11.5 -52.5s-11.167 -28.167 -19.5 -43.5s-18.166 -27.666 -29.499 -36.999c-31.333 -25.333 -70.666 -38 -117.999 -38c-34.667 0 -59.334 14.667 -74.001 44c-2.66699 6 -6 4.66699 -10 -4
l-1 -33c0 -4 -0.333008 -6.33301 -1 -7c-16 -2 -35 -3 -57 -3l-78 2c-0.666992 28.667 -1 63.667 -1 105l7 532v66zM227.001 385.998c-28 0 -45.167 -6.16797 -51.5 -18.501s-9.5 -37.833 -9.5 -76.5s0.666992 -65.167 2 -79.5s4 -28.833 8 -43.5c8.66699 -28 28 -42 58 -42
s53.333 13 70 39s25 54.333 25 85s-2.33301 52.334 -7 65.001c-7.33301 47.333 -39 71 -95 71z" />
    <glyph glyph-name="c" unicode="c" horiz-adv-x="442" 
d="M305 194l78.999 1.99902c20 0 32.333 -1.33301 37 -4c-6.66699 -92.667 -16 -145 -28 -157c-10.667 -15.333 -26.5 -26.666 -47.5 -33.999s-36.833 -11.333 -47.5 -12s-21 -1 -31 -1l-106 3c-34 6 -62.667 20.667 -86 44c-16.667 14.667 -29 34.5 -37 59.5
s-12 50.167 -12 75.5c0 70.667 -1 121.667 -3 153c0 24 1.16699 43.5 3.5 58.5s8.5 39.167 18.5 72.5c8.66699 19.333 27.167 33.833 55.5 43.5s52.666 14.334 72.999 14.001s35.166 -0.5 44.499 -0.5l31 1c60.667 0 105.667 -14.333 135 -43
c16 -10.667 26.333 -29.667 31 -57c2.66699 -16.667 4.33398 -30.834 5.00098 -42.501s1.33398 -20.167 2.00098 -25.5c0.666992 -14.667 1 -33 1 -55c-9.33301 -2 -23.5 -3 -42.5 -3s-47.167 2.66699 -84.5 8c-3.33301 24.667 -11.833 42 -25.5 52s-26.167 15 -37.5 15
c-28.667 0 -49.667 -8.33301 -63 -25c-4 -3.33301 -7 -11.333 -9 -24s-3.33301 -34 -4 -64l-2 -67c0 -16.667 7 -29.5 21 -38.5s29.333 -13.5 46 -13.5c20 0 35.333 3.66699 46 11s19.334 25.333 26.001 54h11z" />
    <glyph glyph-name="d" unicode="d" horiz-adv-x="463" 
d="M292 607l5.00293 85.002v11c0 3.33301 17.667 5 53 5s59.666 -1.33301 72.999 -4v-66l7 -532c0 -41.333 -0.333008 -76.333 -1 -105l-78 -2c-22 0 -41 1 -57 3c-0.666992 0.666992 -1 3 -1 7l-1 33c-4 8.66699 -7.33301 10 -10 4
c-14.667 -29.333 -39.334 -44 -74.001 -44c-6 0 -12.333 0.333008 -19 1c-29.333 2 -54.333 9.16699 -75 21.5s-36.834 26.666 -48.501 42.999s-20.834 37.833 -27.501 64.5c-10 40 -15.333 88.333 -16 145c-1.33301 121.333 25.334 191.666 80.001 210.999
c26.667 9.33301 50.667 14 72 14c76 0 116 -9 120 -27l-2 103v29zM142.003 315.002c-4.66699 -12.667 -7 -34.332 -7 -64.999s8.33301 -59 25 -85s39.5 -39 68.5 -39s47.833 11.5 56.5 34.5s13 60.167 13 111.5s-3.16699 83.166 -9.5 95.499s-23.5 18.5 -51.5 18.5
c-56 0 -87.667 -23.667 -95 -71z" />
    <glyph glyph-name="e" unicode="e" horiz-adv-x="444" 
d="M255 -13l-90.999 3.00195c-18.667 2.66699 -36 8.66699 -52 18c-33.333 23.333 -57 58.5 -71 105.5s-21 95.167 -21 144.5c0 8.66699 0.333008 17.334 1 26.001c5.33301 67.333 12.666 113.666 21.999 138.999c16.667 38 49.667 64.667 99 80
c26.667 8.66699 52.334 13 77.001 13s48.334 -3 71.001 -9c90.667 -15.333 136 -84.333 136 -207c0 -13.333 -0.666992 -27 -2 -41c-14.667 -4 -46.834 -7 -96.501 -9s-87.334 -3 -113.001 -3s-45.167 1.33301 -58.5 4v-31l1 -22c0 -4.66699 0.166992 -7.83398 0.5 -9.50098
s0.833008 -4.5 1.5 -8.5s1.33398 -7 2.00098 -9c11.333 -34.667 30.333 -56.334 57 -65.001c6 -1.33301 13.833 -2 23.5 -2s21.167 6 34.5 18s20 33 20 63v7h11l78 2c19.333 0 31.666 -1.33301 36.999 -4c-6.66699 -94 -16 -146 -28 -156c-18 -24.667 -44.667 -39 -80 -43
c-22 -2.66699 -41.667 -4 -59 -4zM253.001 329.002l54.002 -2c3.33301 0 5.66602 0.333008 6.99902 1s2 2.66699 2 6v7c0 30 -13 51.667 -39 65c-10.667 6.66699 -26.334 10 -47.001 10c-42 0 -65.667 -21.667 -71 -65c-0.666992 -4 -1 -8.16699 -1 -12.5s1.5 -7 4.5 -8
s18.333 -1.5 46 -1.5h44.5z" />
    <glyph glyph-name="f" unicode="f" horiz-adv-x="379" 
d="M373 473c-0.666992 -1.33301 -1.00098 -13.8311 -1.00098 -37.498s-1.66699 -52.834 -5 -87.501c-83.333 4.66699 -133.666 7.33398 -150.999 8.00098v-352c-6 0.666992 -13.667 1 -23 1l-92 -5c-5.33301 0 -10 0.333008 -14 1c-3.33301 16.667 -5 60 -5 130l3 224
c-29.333 0 -53 -0.333008 -71 -1l-3 122c34 0 58 -0.333008 72 -1c-0.666992 7.33301 -1 14.666 -1 21.999c0 33.333 6.66699 65.333 20 96c15.333 37.333 42.833 62.666 82.5 75.999s88.5 20 146.5 20c14 0 28.333 -0.333008 43 -1c4 -12.667 6 -30.167 6 -52.5
s-2 -49.833 -6 -82.5h-17c-10 0 -46 -4 -108 -12c-21.333 -3.33301 -32 -17.333 -32 -42c0 -8 1 -16.667 3 -26h153z" />
    <glyph glyph-name="g" unicode="g" horiz-adv-x="467" 
d="M135 237v-9c0 -34 10 -63 30 -87c15.333 -19.333 39 -29 71 -29c26 0 42.667 7.33301 50 22c5.33301 8.66699 9.33301 23.667 12 45c0 73.333 -4.33301 127 -13 161c-9.33301 23.333 -29.333 35 -60 35c-19.333 0 -35.333 -6 -48 -18
c-22 -25.333 -35.333 -52.333 -40 -81c-1.33301 -6 -2 -19 -2 -39zM351 501l77.998 -1.99902c2.66699 -95.333 4 -188.333 4 -279s-0.833008 -158.5 -2.5 -203.5s-2.5 -72.5 -2.5 -82.5v-25c0 -17.333 -3 -30.333 -9 -39c-30 -47.333 -73 -71 -129 -71l-85 1
c-62 0 -110 24.667 -144 74c-11.333 20.667 -17 45.334 -17 74.001c0 3.33301 0.333008 6.66602 1 9.99902c16.667 4.66699 36.667 7 60 7s46 -2 68 -6c0 -22 9 -38.667 27 -50c10 -6.66699 19.667 -10 29 -10c34 0 55 17 63 51c1.33301 16.667 2 28 2 34l-1 22
c0 6 0.333008 12 1 18c-12 -13.333 -29.333 -21 -52 -23c-7.33301 -0.666992 -18.333 -1.16699 -33 -1.5s-24.334 -0.833008 -29.001 -1.5c-66.667 0 -110 21 -130 63c-15.333 28.667 -24.666 67.667 -27.999 117v44c0 40.667 1.33301 68.667 4 84
s5.83398 32.666 9.50098 51.999s8.16699 33.833 13.5 43.5s12.333 21.334 21 35.001s18.334 24.167 29.001 31.5c30.667 19.333 66.334 29 107.001 29s68 -15.667 82 -47c2.66699 -1.33301 4.16699 -0.333008 4.5 3s0.166016 10.666 -0.500977 21.999s0 19 2 23
c18 2 37 3 57 3z" />
    <glyph glyph-name="h" unicode="h" horiz-adv-x="448" 
d="M106 723l47.002 5.00391c6 0 10.333 -1.33301 13 -4c0.666992 -3.33301 1 -96 1 -278c13.333 7.33301 21.666 12.333 24.999 15c31.333 23.333 66 35 104 35s70.333 -10.667 97 -32c12.667 -11.333 20 -44 22 -98c0.666992 -24.667 1 -52.334 1 -83.001l-3 -222
c0 -24.667 0.333008 -44.334 1 -59.001c-18 -2.66699 -59.667 -4 -125 -4c-1.33301 20 -2 57.167 -2 111.5s-0.333008 88.666 -1 102.999s-1.33398 25 -2.00098 32s-1.16699 12.5 -1.5 16.5s-1 9.33301 -2 16s-2 12 -3 16s-2.16699 8.33301 -3.5 13
c-7.33301 20.667 -25 31 -53 31c-12.667 0 -25.5 -4.83301 -38.5 -14.5s-20.167 -25.5 -21.5 -47.5c-0.666992 -8.66699 -1 -19.334 -1 -32.001l4 -166c0 -32 -1.33301 -55.333 -4 -70v-4c-6 -4 -19 -6 -39 -6l-55 1c-12 0 -22 -0.333008 -30 -1l-2 509
c0 92.667 0.666992 165 2 217c12 -0.666992 23.667 -1 35 -1z" />
    <glyph glyph-name="i" unicode="i" horiz-adv-x="207" 
d="M39 506l27.999 -1.00098c24.667 -1.33301 44.334 -2 59.001 -2h32h17v-3l-5 -330c0 -34 1.33301 -88.667 4 -164c-0.666992 -4.66699 -16 -7 -46 -7l-85 1h-10c2.66699 32.667 4 76.334 4 131.001l-3 232c0 62.667 1.66699 110 5 142v1zM173.999 589.999
c-4 -6 -18 -9 -42 -9l-79 2h-14l-4 118v20l136 -3z" />
    <glyph glyph-name="j" unicode="j" horiz-adv-x="204" 
d="M169 263l1.00098 -149.001c0 -76 -5.33301 -147 -16 -213c-25.333 -59.333 -102 -89 -230 -89c-14 0 -28.667 0.333008 -44 1c-4 12.667 -6 30.334 -6 53.001s2 50 6 82c7.33301 -0.666992 18.333 -1 33 -1s35.667 2.66699 63 8s46.666 16.333 57.999 33
c0.666992 31.333 1 92 1 182s1 154.333 3 193v134c6 -0.666992 13.667 -1 23 -1l92 5c5.33301 0 10 -0.333008 14 -1c2 -14.667 3 -38 3 -70l-2 -128c0 -18.667 0.333008 -31.667 1 -39zM168.001 589.999c-4 -6 -17.333 -9 -40 -9l-78 2h-14l-4 118v20l133 -3z" />
    <glyph glyph-name="k" unicode="k" horiz-adv-x="435" 
d="M38 726l96.999 2.00098c16 0 29 -0.666992 39 -2v-219l-2 -95c0 -14 0.666992 -25.667 2 -35c16.667 14.667 35.167 39 55.5 73s35.833 57.333 46.5 70c2.66699 -4 17 -6 43 -6l107 3h8c-21.333 -32.667 -76.333 -107.334 -165 -224.001l44 -70l47 -76
c30 -48 57.667 -97 83 -147l-113 -4c-20 0 -36 1.33301 -48 4c-10 16 -26.167 46.667 -48.5 92s-42.166 79 -59.499 101l2 -103c0 -38 -2 -68 -6 -90h-13l-84 -2c-15.333 0 -27 0.666992 -35 2c-2.66699 24.667 -4 87 -4 187z" />
    <glyph glyph-name="l" unicode="l" horiz-adv-x="206" 
d="M175 724l-5 -519c0 -60.667 1.33301 -127 4 -199c-0.666992 -4.66699 -16 -7 -46 -7l-85 1h-10c3.33301 40.667 5 93.667 5 159l-7 374c0 81.333 2.66699 146 8 194z" />
    <glyph glyph-name="m" unicode="m" horiz-adv-x="684" 
d="M106 498l47.0029 5.00391c6 0 10.333 -1.33301 13 -4c1.33301 -8.66699 2 -19 2 -31v-22c13.333 7.33301 21.666 12.333 24.999 15c31.333 23.333 66 35 104 35s70.333 -10.667 97 -32c4 -4 7.33301 -9.66699 10 -17c14.667 8.66699 22.667 13.334 24 14.001
c31.333 23.333 66 35 104 35s70.333 -10.667 97 -32c12.667 -11.333 20 -44 22 -98c0.666992 -24.667 1 -52.334 1 -83.001l-3 -222c0 -24.667 0.333008 -44.334 1 -59.001c-18 -2.66699 -59.667 -4 -125 -4c-1.33301 20 -2 57.167 -2 111.5s-0.333008 88.666 -1 102.999
s-1.33398 25 -2.00098 32s-1.16699 12.5 -1.5 16.5s-1 9.33301 -2 16s-2 12 -3 16s-2.16699 8.33301 -3.5 13c-7.33301 20.667 -24.333 31 -51 31c-14.667 0 -28.667 -5 -42 -15v-29l-3 -231c0 -26 0.333008 -46 1 -60c-18 -2.66699 -59.667 -4 -125 -4
c-1.33301 20 -2 57.167 -2 111.5s-0.333008 88.666 -1 102.999s-1.33398 25 -2.00098 32s-1.16699 12.5 -1.5 16.5s-1 9.33301 -2 16s-2 12 -3 16s-2.5 8.33301 -4.5 13c-6.66699 20.667 -24 31 -52 31c-12.667 0 -25.5 -4.83301 -38.5 -14.5s-20.167 -25.5 -21.5 -47.5
c-0.666992 -8.66699 -1 -19.334 -1 -32.001l4 -166c0 -32 -1.33301 -55.333 -4 -70v-4c-6 -4 -19 -6 -39 -6l-55 1c-11.333 0 -21.333 -0.333008 -30 -1l-3 390c0 62 0.666992 99 2 111c12 -1.33301 23.667 -2 35 -2z" />
    <glyph glyph-name="n" unicode="n" horiz-adv-x="450" 
d="M107 498l47.002 5.00391c6 0 10.333 -1.33301 13 -4c1.33301 -8.66699 2 -19 2 -31v-22c13.333 7.33301 21.666 12.333 24.999 15c31.333 23.333 66 35 104 35s70.333 -10.667 97 -32c12.667 -11.333 20 -44 22 -98c0.666992 -24.667 1 -52.334 1 -83.001l-3 -222
c0 -24.667 0.333008 -44.334 1 -59.001c-18 -2.66699 -59.667 -4 -125 -4c-1.33301 20 -2 57.167 -2 111.5s-0.333008 88.666 -1 102.999s-1.33398 25 -2.00098 32s-1.16699 12.5 -1.5 16.5s-1 9.33301 -2 16s-2 12 -3 16s-2.16699 8.33301 -3.5 13
c-7.33301 20.667 -25 31 -53 31c-12.667 0 -25.5 -4.83301 -38.5 -14.5s-20.167 -25.5 -21.5 -47.5c-0.666992 -8.66699 -1 -19.334 -1 -32.001l4 -166c0 -32 -1.33301 -55.333 -4 -70v-4c-6 -4 -19 -6 -39 -6l-55 1c-12 0 -22 -0.333008 -30 -1l-3 390
c0 62 0.666992 99 2 111c11.333 -1.33301 23 -2 35 -2z" />
    <glyph glyph-name="o" unicode="o" horiz-adv-x="448" 
d="M267 -10l-105.999 3.00098c-34 6 -62.667 20.667 -86 44c-16.667 14.667 -29 34.5 -37 59.5s-12.167 50.167 -12.5 75.5s-0.5 52 -0.5 80s-0.166992 54 -0.5 78s0.333984 42.333 2.00098 55s3.5 22.667 5.5 30s4.5 15.166 7.5 23.499s4.83301 14.166 5.5 17.499
c8.66699 19.333 27.167 33.833 55.5 43.5s52.666 14.334 72.999 14.001s35.166 -0.5 44.499 -0.5l31 1c60 0 105 -14.667 135 -44c23.333 -15.333 36.666 -75.333 39.999 -180c0.666992 -8 1 -14 1 -18c-4.66699 -118.667 -12 -191.334 -22 -218.001
c-3.33301 -8 -6.66602 -13.667 -9.99902 -17c-10.667 -15.333 -26.5 -26.666 -47.5 -33.999s-36.833 -11.333 -47.5 -12s-21 -1 -31 -1zM221.001 132.001c40.667 0 64.667 14.668 72 44.001c4 35.333 6 62.666 6 81.999s-1 34 -3 44c-3.33301 24 -13 41.333 -29 52
c-10 6 -20.667 9 -32 9s-22.833 -1.5 -34.5 -4.5s-21.834 -9.83301 -30.501 -20.5c-4 -3.33301 -7 -11.5 -9 -24.5s-3.33301 -34.167 -4 -63.5l-2 -64c0 -18 6.83301 -31.5 20.5 -40.5s28.834 -13.5 45.501 -13.5z" />
    <glyph glyph-name="p" unicode="p" horiz-adv-x="464" 
d="M172 -107l-5.00293 -85.002v-11c0 -3.33301 -17.667 -5 -53 -5s-59.666 1.33301 -72.999 4v66l-7 532c0 41.333 0.333008 76.333 1 105l78 2c22 0 41 -1 57 -3c0.666992 -0.666992 1 -3 1 -7l1 -33c4 -8.66699 7.33301 -10 10 -4c14.667 29.333 39.334 44 74.001 44
c6 0 16 -0.5 30 -1.5s29.333 -5 46 -12s30.667 -15.167 42 -24.5s21.166 -21.666 29.499 -36.999s14.833 -29.833 19.5 -43.5s8.33398 -31.167 11.001 -52.5c4.66699 -31.333 7.66699 -68.666 9 -111.999c0 -50.667 -6.5 -94.667 -19.5 -132s-33.167 -60.833 -60.5 -70.5
s-51.666 -14.5 -72.999 -14.5c-76 0 -116 9 -120 27l2 -103v-29zM321.997 184.998c4.66699 12.667 7 34.332 7 64.999s-8.33301 59 -25 85s-39.5 39 -68.5 39s-47.833 -11.5 -56.5 -34.5s-13 -60.167 -13 -111.5s3.16699 -83.166 9.5 -95.499s23.5 -18.5 51.5 -18.5
c56 0 87.667 23.667 95 71z" />
    <glyph glyph-name="q" unicode="q" horiz-adv-x="463" 
d="M423 -204c-13.333 -2.66699 -37.6709 -3.99805 -73.0039 -3.99805s-53 1.66699 -53 5v11l-5 85c0 7.33301 0.333008 19.666 1 36.999l1 95c-2.66699 -12.667 -26.334 -21 -71.001 -25c-11.333 -1.33301 -27.666 -2 -48.999 -2s-45.666 4.83301 -72.999 14.5
s-47.5 33.167 -60.5 70.5s-19.333 76.666 -19 117.999s1.5 72.833 3.5 94.5s6.33301 45.834 13 72.501s15.834 48.167 27.501 64.5s27.834 30.666 48.501 42.999s45.667 19.5 75 21.5c6.66699 0.666992 13 1 19 1c34.667 0 59.334 -14.667 74.001 -44
c2.66699 -6 6 -4.66699 10 4l1 33c0 4 0.333008 6.33301 1 7c16 2 35 3 57 3l78 -2c0.666992 -28.667 1 -63.667 1 -105l-7 -532v-66zM236.995 114.002c28 0 45.167 6.16797 51.5 18.501s9.5 37.833 9.5 76.5s-0.666992 65.167 -2 79.5s-4 28.833 -8 43.5
c-8.66699 28 -28 42 -58 42s-53.333 -13 -70 -39s-25 -54.333 -25 -85s2.33301 -52.334 7 -65.001c7.33301 -47.333 39 -71 95 -71z" />
    <glyph glyph-name="r" unicode="r" horiz-adv-x="368" 
d="M107 498l54 4c5.33301 0 9 -1 11 -3c0 -7.33301 0.166992 -13.333 0.5 -18s0.5 -10 0.5 -16c4.66699 2.66699 20.334 9 47.001 19c32 10 61.667 15 89 15s43.666 -0.666992 48.999 -2v-176c-34 11.333 -56.667 17 -68 17c-14.667 2 -30.5 3 -47.5 3s-32.167 -3 -45.5 -9
c-19.333 -7.33301 -29 -26.333 -29 -57c0 -2 0.666992 -24 2 -66s2 -109.333 2 -202v-4c-6 -4 -20 -6 -42 -6l-62 1c-12 0 -22 -0.333008 -30 -1l-3 390c0 62 0.666992 99 2 111c11.333 -1.33301 23 -2 35 -2z" />
    <glyph glyph-name="s" unicode="s" horiz-adv-x="450" 
d="M75 160l84.001 -2.00098c0.666992 -19.333 11.667 -34.666 33 -45.999c13.333 -6.66699 25 -10 35 -10c38.667 0 57.667 16.667 57 50c0.666992 2.66699 1 7.5 1 14.5s-4.5 14.667 -13.5 23s-20.167 13.833 -33.5 16.5c-54.667 10.667 -91.667 20.334 -111 29.001
c-36 12 -62.667 31.333 -80 58s-26 53.334 -26 80.001c0 30 9.5 58.167 28.5 84.5s42.333 43.333 70 51s62.5 11.5 104.5 11.5c47.333 0 89 -4.33301 125 -13c58 -24.667 87 -78.334 87 -161.001c-26.667 -4 -51.834 -6 -75.501 -6s-46.167 2 -67.5 6
c0.666992 3.33301 1 6.66602 1 9.99902c0 12.667 -6.83301 24.5 -20.5 35.5s-28.5 16.5 -44.5 16.5h-5c-19.333 -3.33301 -32.666 -12 -39.999 -26c-4 -6.66699 -6 -13.667 -6 -21s2 -15 6 -23c7.33301 -14.667 21 -25.667 41 -33c95.333 -14 154.333 -35.667 177 -65
c17.333 -28.667 26 -57.167 26 -85.5s-4.33301 -55.166 -13 -80.499c-28.667 -60 -86.334 -90 -173.001 -90h-8.5h-13.5c-60 0 -109.833 14.667 -149.5 44s-59.5 70.666 -59.5 123.999v5c18 2 39.333 3 64 3z" />
    <glyph glyph-name="t" unicode="t" horiz-adv-x="387" 
d="M100 688l92.001 -5.00098c9.33301 0 17 0.333008 23 1v-134l1 -56c17.333 0.666992 67.666 3.33398 150.999 8.00098c6 -6.66699 9 -20 9 -40l-4 -70c0 -6 0.333008 -11 1 -15h-155c0 -94.667 0.333008 -162 1 -202c11.333 -16.667 30.666 -27.667 57.999 -33
s48.333 -8 63 -8s25.667 0.333008 33 1c4.66699 -32.667 7 -60.167 7 -82.5s-2.33301 -39.833 -7 -52.5c-15.333 -0.666992 -30.333 -1 -45 -1c-127.333 0 -203.666 29.667 -228.999 89c-10.667 64.667 -16 148.667 -16 252v35c-14 -0.666992 -38 -1 -72 -1l3 122
c18 -0.666992 41.667 -1 71 -1l-2 114c0 32.667 1 58.667 3 78c4 0.666992 8.66699 1 14 1z" />
    <glyph glyph-name="u" unicode="u" horiz-adv-x="450" 
d="M343 2l-47.002 -5.00195c-6 0 -10.333 1.33301 -13 4c-1.33301 8.66699 -2 19 -2 31v22c-13.333 -7.33301 -21.666 -12.333 -24.999 -15c-31.333 -23.333 -66 -35 -104 -35s-70.333 10.667 -97 32c-12.667 11.333 -20 44 -22 98c-0.666992 24.667 -1 52.334 -1 83.001
l3 222c0 24.667 -0.333008 44.334 -1 59.001c18 2.66699 59.667 4 125 4c1.33301 -20 2 -57.167 2 -111.5s0.333008 -88.666 1 -102.999s1.33398 -25 2.00098 -32s1.16699 -12.5 1.5 -16.5s1 -9.33301 2 -16s2 -12 3 -16s2.16699 -8.33301 3.5 -13
c7.33301 -20.667 25 -31 53 -31c12.667 0 25.5 4.83301 38.5 14.5s20.167 25.5 21.5 47.5c0.666992 7.33301 1 16.666 1 27.999l-5 171c0 32 1.66699 55 5 69v4c6 4 19 6 39 6l55 -1c12 0 22 0.333008 30 1l3 -390c0 -62 -0.666992 -99 -2 -111c-11.333 1.33301 -23 2 -35 2
z" />
    <glyph glyph-name="v" unicode="v" horiz-adv-x="429" 
d="M294 496l103.002 3.99805c11.333 0 21.666 -0.333008 30.999 -1c-21.333 -58.667 -45.5 -149 -72.5 -271s-44.5 -198.333 -52.5 -229c-18 -3.33301 -42.667 -5 -74 -5l-114 3c-32.667 200.667 -67.334 368.334 -104.001 503.001c10.667 -1.33301 24.667 -2 42 -2l58 1
c17.333 0 30.333 -0.666992 39 -2c4 -21.333 10 -57 18 -107c19.333 -123.333 35.333 -201.666 48 -234.999c9.33301 25.333 21.833 81.5 37.5 168.5s29.167 144.5 40.5 172.5z" />
    <glyph glyph-name="w" unicode="w" horiz-adv-x="683" 
d="M54 498l58 0.999023c17.333 0 30.333 -0.666992 39 -2c4 -21.333 9.66699 -57 17 -107c18.667 -120.667 34.667 -199 48 -235c14.667 43.333 24.334 76.333 29.001 99l37 176l13 70c6.66699 -0.666992 13.667 -1 21 -1l62 3c12 0 21.333 -1 28 -3
c1.33301 -7.33301 9.5 -58.5 24.5 -153.5s28.167 -158.5 39.5 -190.5c11.333 28 26 87.167 44 177.5s30.667 144.833 38 163.5l100 4c10.667 0 20.667 -0.333008 30 -1c-21.333 -58.667 -45.5 -149 -72.5 -271s-44.5 -198.333 -52.5 -229c-18 -3.33301 -41 -5 -69 -5l-107 3
c-24.667 148 -37.667 225.333 -39 232c-4.66699 -21.333 -10.667 -58.5 -18 -111.5s-14.333 -92.5 -21 -118.5c-18 -3.33301 -42.667 -5 -74 -5l-114 3c-32.667 200.667 -67.334 368.334 -104.001 503.001c10.667 -1.33301 25 -2 43 -2z" />
    <glyph glyph-name="x" unicode="x" horiz-adv-x="413" 
d="M154 -1l-73.0039 -0.999023c-38 0 -62 2 -72 6c5.33301 20 17.833 58.5 37.5 115.5s32.834 99.5 39.501 127.5c-8 39.333 -16.667 71.666 -26 96.999l-19 52c-3.33301 9.33301 -10.333 27.5 -21 54.5s-16.667 42.5 -18 46.5c30 2 63 3 99 3s55 -1 57 -3
c30.667 -111.333 46.334 -168 47.001 -170c6 14 14.833 43.833 26.5 89.5s18.834 72.834 21.501 81.501c16 2 69 3 159 3h1c0 -1.33301 -8.33301 -23.333 -25 -66c-30.667 -82.667 -50 -145.667 -58 -189c5.33301 -30 17.333 -73.5 36 -130.5s30.334 -95.5 35.001 -115.5
c-4.66699 0.666992 -10.667 1 -18 1l-49 -1c-46 0 -72 1 -78 3h-1c-7.33301 15.333 -15.333 41.666 -24 78.999s-16.667 63.666 -24 78.999c-8 -17.333 -16.833 -44.666 -26.5 -81.999s-18.5 -64 -26.5 -80z" />
    <glyph glyph-name="y" unicode="y" horiz-adv-x="449" 
d="M295 499l101.998 2.00195c19.333 0 34 -0.666992 44 -2c-24 -90 -43.5 -170 -58.5 -240l-30 -138c-5 -22 -12.5 -47.833 -22.5 -77.5s-20.333 -54.5 -31 -74.5s-25.5 -40.5 -44.5 -61.5s-39.833 -37.5 -62.5 -49.5c-46.667 -24 -101.667 -36 -165 -36
c-10.667 0 -21.667 0.333008 -33 1c-8 24 -12 47.167 -12 69.5s2 43.5 6 63.5l66 -2c25.333 0 41.333 3.33301 48 10c12 11.333 18 26 18 44c0 28 -18.333 114.667 -55 260l-38 143.5c-14.667 53.667 -22.667 83.167 -24 88.5c10.667 -1.33301 25.334 -2 44.001 -2l63 1
c18.667 0 32.334 -0.666992 41.001 -2l15.5 -83.5l19.5 -105.5c16 -79.333 30.333 -136.333 43 -171c9.33301 25.333 19.833 85.166 31.5 179.499s23.167 155.166 34.5 182.499z" />
    <glyph glyph-name="z" unicode="z" horiz-adv-x="456" 
d="M434 497l-2 -93.001c0 -14 0.666992 -27.667 2 -41c-20.667 -22 -56.834 -57.833 -108.501 -107.5s-89.5 -88.167 -113.5 -115.5c11.333 0.666992 30.666 1 57.999 1h71c42 0 71.333 1.66699 88 5l2 -139c-164 -4 -299.667 -6 -407 -6c0.666992 12.667 1 24.667 1 36
l-3 80v12c22.667 29.333 61.334 69.5 116.001 120.5s92.334 88.833 113.001 113.5c-103.333 -4.66699 -177.666 -10 -222.999 -16c-1.33301 14.667 -2 30.334 -2 47.001l2 84v19l278 1c4 -1.33301 12.667 -2 26 -2l83 3c11.333 0 17.666 -0.666992 18.999 -2z" />
    <glyph glyph-name="braceleft" unicode="{" horiz-adv-x="318" 
d="M236 228l-1.00098 -34.9971c0 -56.667 19.333 -86.667 58 -90c0 -61.333 -0.333008 -95.333 -1 -102c-11.333 -1.33301 -22 -2 -32 -2c-37.333 0 -69.833 10 -97.5 30s-40.834 46.333 -39.501 79c2.66699 13.333 4 25.166 4 35.499s-0.333008 22.833 -1 37.5
c-4 45.333 -18.667 77.666 -44 96.999c-14.667 10.667 -32.667 16 -54 16h-8.5c-3.66699 0 -5.83398 0.333008 -6.50098 1c-2.66699 10.667 -4 24 -4 40s2 35.333 6 58c5.33301 -0.666992 13.833 -1 25.5 -1s24.834 4.33301 39.501 13c25.333 13.333 41 45 47 95
c1.33301 9.33301 2 18.333 2 27l-5 59c0 18 4 34.667 12 50c12.667 22.667 31.334 36 56.001 40c22.667 2.66699 41.834 4 57.501 4s28.834 -0.666992 39.501 -2c2 -14.667 3 -29.834 3 -45.501s-0.666992 -31.5 -2 -47.5c-32 -10.667 -49.333 -24 -52 -40
c-1.33301 -18.667 -2 -38.667 -2 -60l1 -62c0 -17.333 -4.33301 -33.5 -13 -48.5s-22.334 -25.833 -41.001 -32.5c35.333 -19.333 53 -57.333 53 -114z" />
    <glyph glyph-name="bar" unicode="|" horiz-adv-x="201" 
d="M155 728l2 -756h-9l-103 3v751l63 -2c12 0 27.667 1.66699 47 5v-1z" />
    <glyph glyph-name="braceright" unicode="}" horiz-adv-x="318" 
d="M194 586l-5 -59.001c0 -64 17 -105.333 51 -124c13.333 -7.33301 25.833 -11 37.5 -11s20.167 0.333008 25.5 1c4 -22.667 6 -42 6 -58s-1.33301 -29.333 -4 -40c-0.666992 -0.666992 -2.83398 -1 -6.50098 -1h-8.5c-21.333 0 -39.833 -5.83301 -55.5 -17.5
s-26.5 -27.167 -32.5 -46.5c-7.33301 -26 -11 -49.5 -11 -70.5s1.33301 -38.167 4 -51.5c1.33301 -32.667 -11.834 -59 -39.501 -79s-60.167 -30 -97.5 -30c-10 0 -20.667 0.666992 -32 2c-0.666992 6.66699 -1 40.667 -1 102c38.667 3.33301 58 33.333 58 90l-1 35
c0 56.667 17.667 94.667 53 114c-18.667 6.66699 -32.334 17.5 -41.001 32.5s-13 31.167 -13 48.5l1 62c0 21.333 -0.666992 41.333 -2 60c-1.33301 8 -5.33301 15 -12 21c-8 6.66699 -21.333 13 -40 19c-1.33301 16 -2 31.833 -2 47.5s1 30.834 3 45.501
c10.667 1.33301 23.834 2 39.501 2s34.834 -1.33301 57.501 -4c24.667 -4 43.334 -17.333 56.001 -40c8 -15.333 12 -32 12 -50z" />
    <glyph glyph-name="asciitilde" unicode="~" horiz-adv-x="570" 
d="M541 340c4 -4 6.00195 -14.665 6.00195 -31.998c0 -42 -17 -87.333 -51 -136c-14.667 -18 -30.834 -30.333 -48.501 -37s-34.167 -10 -49.5 -10s-30.333 2.66699 -45 8c-31.333 10.667 -53.666 30.667 -66.999 60c-13.333 19.333 -29.666 29 -48.999 29h-12
c-7.33301 0 -19 -4 -35 -12c-10.667 -6.66699 -17.5 -14 -20.5 -22s-4.5 -16.333 -4.5 -25s1.33301 -18.334 4 -29.001v-1c-10.667 2.66699 -34.834 4 -72.501 4s-64.167 -0.333008 -79.5 -1c6 24.667 16.667 54.834 32 90.501s30.666 62.167 45.999 79.5
c30 30 65.667 45 107 45c24.667 0 48 -6.66699 70 -20c9.33301 -6.66699 20.166 -17.834 32.499 -33.501s21.833 -25.834 28.5 -30.501c10.667 -9.33301 21.167 -14 31.5 -14s22.833 7.83301 37.5 23.5s25 35.5 31 59.5c11.333 0.666992 47.333 2 108 4z" />
    <glyph glyph-name="nbspace" unicode="&#xa0;" horiz-adv-x="200" 
 />
    <glyph glyph-name="exclamdown" unicode="&#xa1;" horiz-adv-x="216" 
d="M51 631l38.001 -1h2l75 1c3.33301 -6.66699 3.66602 -25.667 0.999023 -57s-4 -51.333 -4 -60v-1c-10 -4.66699 -24 -7 -42 -7l-80 5c2 74 3 114 3 120h7zM166.001 -70c-31.333 -4.66699 -57.167 -7 -77.5 -7s-35.5 1.66699 -45.5 5c2 113.333 3 215.5 3 306.5
s-1.33301 165.167 -4 222.5c12.667 1.33301 55.667 3 129 5h1v-70l1 -281c0 -88.667 -1.33301 -149 -4 -181h-3z" />
    <glyph glyph-name="cent" unicode="&#xa2;" horiz-adv-x="350" 
d="M133 415l-2.99805 -78.9971c0 -24.667 1 -48.334 3 -71.001c1.33301 -30 10.666 -49.667 27.999 -59c0.666992 47.333 1 94.666 1 141.999s-0.666992 88.666 -2 123.999c-12.667 0 -20.334 -6.33301 -23.001 -19c-2.66699 -12 -4 -24.667 -4 -38zM196.002 410.003
l0.999023 -204.003h1c15.333 6.66699 24 19 26 37c0.666992 6.66699 1.33398 15.5 2.00098 26.5s1.33398 18.833 2.00098 23.5c2.66699 -0.666992 7.66699 -1 15 -1l42 1c18 0 29.333 -1.33301 34 -4v-1l5 -68c0 -34.667 -13.167 -63.334 -39.5 -86.001
s-54.833 -36 -85.5 -40h-2v-1c-0.666992 -3.33301 -1 -7.66602 -1 -12.999s0.333008 -13.666 1 -24.999s0.333984 -19.666 -0.999023 -24.999c-8 -4 -14.833 -6 -20.5 -6s-9.83398 2 -12.501 6c-1.33301 14.667 -1.83301 26.5 -1.5 35.5s0.166016 18.167 -0.500977 27.5
c-5.33301 -0.666992 -11 -1 -17 -1c-21.333 0 -43.833 6.83301 -67.5 20.5s-37.167 34.834 -40.5 63.501c-4.66699 36.667 -7 76 -7 118l2 148c-0.666992 6.66699 -1 13 -1 19c0 34 9.83301 64 29.5 90s43.834 39 72.501 39c8.66699 0 18 -1.33301 28 -4
c1.33301 0.666992 2 10 2 28v32c2.66699 5.33301 8 8 16 8s14.333 -1.33301 19 -4v-66h1c45.333 -1.33301 80.666 -24 105.999 -68c16 -28 24 -53 24 -75s-2.66699 -40.667 -8 -56v-1c-14 -2 -27.667 -3 -41 -3l-59 6c-1.33301 5.33301 -2 15 -2 29c0 30 -7 49.333 -21 58
c-0.666992 -6.66699 -1 -28 -1 -64z" />
    <glyph glyph-name="sterling" unicode="&#xa3;" horiz-adv-x="486" 
d="M143 370l9 -0.00195312c-1.33301 39.333 -2 96 -2 170s2 117 6 129c60.667 0 99.667 2 117 6v-1c1.33301 -52 2 -103.667 2 -155s-0.666992 -102.333 -2 -153c42.667 -2 74.167 -3 94.5 -3s32.5 0.666992 36.5 2h1c1.33301 -11.333 2 -22.333 2 -33
s-0.333008 -23.5 -1 -38.5s-1.83398 -27.333 -3.50098 -37s-1.16699 -17.834 1.5 -24.501c-34.667 0.666992 -58.667 1 -72 1l-60 -2c-0.666992 -1.33301 -1 -4.16602 -1 -8.49902s1.5 -14 4.5 -29s5.5 -23.5 7.5 -25.5l185 -11c-5.33301 -85.333 -8 -137 -8 -155h-120
c-118.667 0 -182 3 -190 9c1.33301 18.667 2 45.334 2 80.001s-1.33301 82.667 -4 144c-50 1.33301 -83.333 2 -100 2h-27c0 26.667 -0.333008 51 -1 73l-2 39c0 2.66699 0.333008 6.33398 1 11.001c0 7.33301 14.667 11 44 11l60 -2c8.66699 0 15.334 0.333008 20.001 1z
" />
    <glyph glyph-name="currency" unicode="&#xa4;" horiz-adv-x="607" 
d="M217 558l51.999 8.00098c10 0.666992 25 1 45 1s45.667 -2.66699 77 -8l95 107l103 -88l-83 -94c9.33301 -18 15.5 -34.833 18.5 -50.5s4.5 -49.5 4.5 -101.5s-9.66699 -96 -29 -132c41.333 -50.667 71 -80.334 89 -89.001l-19 -16
c-4.66699 -2 -19.334 -14.167 -44.001 -36.5s-41 -33.5 -49 -33.5h-1c-15.333 17.333 -30.666 33 -45.999 47s-30.333 29.667 -45 47c-34 -6.66699 -66.5 -10 -97.5 -10s-60.167 3 -87.5 9l-69 -93h-1c-7.33301 0 -26.666 13.833 -57.999 41.5s-49.333 42.5 -54 44.5l74 89
v1c-10 30 -15 76.167 -15 138.5s5 112.833 15 151.5c-16.667 22.667 -30.5 39 -41.5 49s-21.833 22.667 -32.5 38l103 88zM339.999 221.001l15.001 2.00098h2c32.667 4 52 26.667 58 68c1.33301 7.33301 2.83301 17.666 4.5 30.999s3 23 4 29s1.5 12.667 1.5 20
c0 22.667 -5 40.5 -15 53.5s-23.333 22 -40 27s-37.167 7.5 -61.5 7.5s-48.5 -2.33301 -72.5 -7c-27.333 -9.33301 -43.333 -27.666 -48 -54.999c-2.66699 -14 -4 -30 -4 -48l2 -64c0 -16.667 4.83301 -31.334 14.5 -44.001s23.167 -20.667 40.5 -24
c13.333 -1.33301 28.666 -2 45.999 -2s35 2 53 6z" />
    <glyph glyph-name="yen" unicode="&#xa5;" horiz-adv-x="530" 
d="M401 342l29.0039 1.00391c16.667 0 27.667 -1.33301 33 -4h1v-47c0 -26.667 0.666992 -40.667 2 -42v-1c-4.66699 1.33301 -14.667 2 -30 2l-109 -3c-6 -2.66699 -11 -10 -15 -22c-5.33301 -13.333 -9.33301 -21.333 -12 -24h164c0 -54.667 0.666992 -85 2 -91h-46
c-24.667 0 -77 -1.66699 -157 -5c-6.66699 -12 -14.834 -31 -24.501 -57s-15.834 -42 -18.501 -48v-1h-1c-5.33301 2 -16 3 -32 3l-87 -3c-8.66699 0 -15.667 0.333008 -21 1h-3c1.33301 12.667 6.83301 30.667 16.5 54s15.834 38.666 18.501 45.999
c-5.33301 2 -16.333 3 -33 3l-13 -1c-19.333 0 -32 2.33301 -38 7v1c0.666992 7.33301 1 14.333 1 21l-1 21c0 21.333 1.66699 36.666 5 45.999c8 -0.666992 17 -1 27 -1l89 3v1l6 12c2 4 4 8.66699 6 14c3.33301 9.33301 5.66602 14.666 6.99902 15.999v1h-1h-14l-73 -1
c-30.667 0 -47.667 2.33301 -51 7c-1.33301 0.666992 -2 7 -2 19l2 66h2c22 2.66699 53.5 4 94.5 4s68.167 0.333008 81.5 1c0 0.666992 -0.166992 1 -0.5 1s-2.83301 8.16699 -7.5 24.5s-22.834 64.166 -54.501 143.499s-51.5 140 -59.5 182c7.33301 -0.666992 16 -1 26 -1
l84 3c13.333 0 24.666 -0.666992 33.999 -2l17 -56c16 -52 31 -93.333 45 -124c21.333 38.667 47.666 95.667 78.999 171l4 2c36.667 5.33301 66 8 88 8s39.333 -1.33301 52 -4c-41.333 -122 -90.333 -235.667 -147 -341c4.66699 -4 16.334 -6 35.001 -6z" />
    <glyph glyph-name="brokenbar" unicode="&#xa6;" horiz-adv-x="147" 
 />
    <glyph glyph-name="section" unicode="&#xa7;" horiz-adv-x="867" 
 />
    <glyph glyph-name="dieresis" unicode="&#xa8;" horiz-adv-x="349" 
d="M36 522c-2 10.667 -3 26 -3 46l2 55c14 4.66699 33.5 7 58.5 7s41.833 -2 50.5 -6l-2 -22c-2.66699 -44 -4 -70.333 -4 -79v-2h-2l-97 1h-3zM210 522c-2 10.667 -3 26 -3 46l2 55c14 4.66699 33.5 7 58.5 7s41.833 -2 50.5 -6l-2 -22c-2.66699 -44 -4 -70.333 -4 -79v-2
h-2l-97 1h-3z" />
    <glyph glyph-name="copyright" unicode="&#xa9;" horiz-adv-x="553" 
d="M147 127c-61.333 28 -95.332 68.002 -101.999 120.002c-6 32.667 -9 66.334 -9 101.001s1.5 67.667 4.5 99s15.167 59.666 36.5 84.999c27.333 34.667 67.666 56 120.999 64c31.333 1.33301 61.833 2 91.5 2s56.5 -2.16699 80.5 -6.5s48.667 -14.5 74 -30.5l12 -8
c25.333 -17.333 44 -44.333 56 -81c4.66699 -12.667 7 -31.167 7 -55.5s-0.333008 -41.833 -1 -52.5s-2.66699 -30.834 -6 -60.501s-5.33301 -47.834 -6 -54.501c-8 -31.333 -24 -58.333 -48 -81c-28 -28 -71.333 -44.667 -130 -50c-36.667 -3.33301 -68.5 -5 -95.5 -5
s-55.5 4.66699 -85.5 14zM198.001 523.002c-26 -5.33301 -45.999 -15.335 -59.999 -30.002s-22.167 -30.834 -24.5 -48.501s-3.5 -40.5 -3.5 -68.5s1.66699 -65.667 5 -113c0 -21.333 10 -39.5 30 -54.5s43.333 -23.167 70 -24.5c6 0.666992 27.167 1.83398 63.5 3.50098
s65.166 4.33398 86.499 8.00098s38.833 15.334 52.5 35.001s21.834 44.5 24.501 74.5s4 53 4 69v32l-1 27c0 46.667 -33 76.667 -99 90c-24.667 3.33301 -49.334 5 -74.001 5zM244.002 311c1.33301 -20 8.33203 -32 20.999 -36h5c11.333 0 19.666 4.33301 24.999 13l3 38
c1.33301 0 10 0.166992 26 0.5s25 -0.5 27 -2.5c2.66699 -9.33301 4 -20.5 4 -33.5s-5 -27.167 -15 -42.5c-15.333 -24 -37 -36 -65 -36c-5.33301 -0.666992 -13 -1 -23 -1s-22.833 3.5 -38.5 10.5s-24.167 20.833 -25.5 41.5s-2 47.667 -2 81s-0.166992 56.833 -0.5 70.5
s1.66699 26.5 6 38.5s9.5 20.5 15.5 25.5s14.333 9.83301 25 14.5c10.667 3.33301 20.667 5 30 5c23.333 0 45 -9.16699 65 -27.5s30 -38.833 30 -61.5c0 -10 -1.66699 -20.333 -5 -31c-6 -0.666992 -13.333 -1 -22 -1s-20 1 -34 3c0 28 -5.33301 44.667 -16 50
c-3.33301 2 -6.66602 2.66699 -9.99902 2c-11.333 -0.666992 -18.666 -2.66699 -21.999 -6l-3 -6l-1 -14c-0.666992 -26.667 -1 -47.167 -1 -61.5s0.333008 -25.5 1 -33.5z" />
    <glyph glyph-name="ordfeminine" unicode="&#xaa;" horiz-adv-x="276" 
d="M239 723l2 -12.002v-4c-0.666992 -11.333 -1 -26 -1 -44l1 -101c0 -32.667 -0.666992 -56.667 -2 -72c0 -13.333 -2.33301 -20.333 -7 -21h-6l-33 1l-23 -1c-4 0.666992 -6 3.33398 -6 8.00098s0.5 8.83398 1.5 12.501s1.5 6.5 1.5 8.5c-18.667 -20 -40.667 -30 -66 -30
s-44.333 14.5 -57 43.5s-19 60.333 -19 94s8.16699 61.667 24.5 84s36.5 33.5 60.5 33.5c22.667 0 36.5 -2.5 41.5 -7.5s8.5 -10.5 10.5 -16.5l2 26c0 0.666992 4 1 12 1h13zM91 620.998c-2.66699 -5.33301 -4 -15 -4 -29s4.33301 -26.333 13 -37s19 -16 31 -16
s20.333 3.16699 25 9.5s7.16699 12.333 7.5 18s0.5 13.667 0.5 24v33.5c0 12 -1.16699 20 -3.5 24s-9.83301 6 -22.5 6c-28 0 -43.667 -11 -47 -33z" />
    <glyph glyph-name="guillemotleft" unicode="&#xab;" horiz-adv-x="583" 
d="M343 85l-27 -25.999c-18 -18 -35 -34 -51 -48c-9.33301 9.33301 -46.333 43.5 -111 102.5s-111.667 108.5 -141 148.5c26.667 34 89.334 100.333 188.001 199l57 59c8 -4.66699 20.833 -16 38.5 -34s30.167 -29.667 37.5 -35c-12.667 -16 -40.834 -46.5 -84.501 -91.5
s-74.167 -78.5 -91.5 -100.5c18 -16 47.5 -44.333 88.5 -85s73.167 -70.334 96.5 -89.001zM564 85.001l-27 -25.999c-18 -18 -35 -34 -51 -48c-9.33301 9.33301 -46.333 43.5 -111 102.5s-111.667 108.5 -141 148.5c26.667 34 89.334 100.333 188.001 199l57 59
c8 -4.66699 20.833 -16 38.5 -34s30.167 -29.667 37.5 -35c-12.667 -16 -40.834 -46.5 -84.501 -91.5s-74.167 -78.5 -91.5 -100.5c18 -16 47.5 -44.333 88.5 -85s73.167 -70.334 96.5 -89.001z" />
    <glyph glyph-name="logicalnot" unicode="&#xac;" horiz-adv-x="471" 
d="M21 417l-1 34.998v20c4 0 73 -0.333008 207 -1s203 -1 207 -1c-0.666992 -1.33301 -1 -2.33301 -1 -3h1c0 -7.33301 -0.333008 -28.666 -1 -63.999s-1 -69.666 -1 -102.999l-1 -49h-55v29l-1 132c-234.667 2 -352.667 3.66699 -354 5z" />
    <glyph glyph-name="uni00AD" unicode="&#xad;" horiz-adv-x="369" 
d="M37 249l-0.999023 34.999v20c3.33301 0 52.666 0.333008 147.999 1s145 1 149 1c-1.33301 -7.33301 -2 -26.666 -2 -57.999h-179l-80 1h-35z" />
    <glyph glyph-name="registered" unicode="&#xae;" horiz-adv-x="553" 
d="M147 127c-61.333 28 -95.333 67.999 -102 119.999c-6 32.667 -9 66.334 -9 101.001s1.5 67.667 4.5 99s15.167 59.666 36.5 84.999c27.333 34.667 67.666 56 120.999 64c31.333 1.33301 61.833 2 91.5 2s56.5 -2.16699 80.5 -6.5s48.667 -14.5 74 -30.5l12 -8
c38.667 -29.333 59.334 -71.333 62.001 -126c0.666992 -14.667 1 -28 1 -40c0 -22 -1.83301 -47.167 -5.5 -75.5s-6.16699 -46.833 -7.5 -55.5c-3.33301 -31.333 -19.333 -60.666 -48 -87.999c-28 -28 -71.333 -44.667 -130 -50c-36.667 -3.33301 -68.5 -5 -95.5 -5
s-55.5 4.66699 -85.5 14zM198 522.999c-26 -5.33301 -46 -15.333 -60 -30s-22.333 -32 -25 -52l-3 -33v-20.5c0 -11.667 0.666992 -43.167 2 -94.5s18.333 -83.333 51 -96c8 -4 16.5 -6.83301 25.5 -8.5s24.5 -2.5 46.5 -2.5s59 2 111 6l15 3c24 4 42.833 15.833 56.5 35.5
s21.834 44.5 24.501 74.5s4 53 4 69v32l-1 27c0 46.667 -33 76.667 -99 90c-24.667 3.33301 -49.334 5 -74.001 5zM377 215.999l-53.001 -2h-12h-1c-9.33301 22.667 -19.666 44 -30.999 64l-27 40c-2 -10 -3 -19.333 -3 -28l5 -71c-12.667 -3.33301 -36.334 -5 -71.001 -5
c1.33301 0 2 43.333 2 130s-1.33301 138 -4 154c33.333 4.66699 57.833 7 73.5 7s26.834 -0.333008 33.501 -1c32 -2.66699 55.667 -18 71 -46c8 -13.333 12 -27.166 12 -41.499s-4 -28.833 -12 -43.5c-12.667 -22.667 -30 -34.334 -52 -35.001h-3v-1l24 -36
c25.333 -36.667 41.333 -65 48 -85zM268.999 389.999c22 0 33 10.332 33 30.999c0 8.66699 -3.16699 15.334 -9.5 20.001s-13.833 7 -22.5 7s-18.334 -2 -29.001 -6c0.666992 -5.33301 1 -14 1 -26v-25h1c10.667 -0.666992 19.334 -1 26.001 -1z" />
    <glyph glyph-name="degree" unicode="&#xb0;" horiz-adv-x="298" 
d="M108 648l13.001 1.00195c10 0.666992 23.167 1 39.5 1s29.833 -1.66699 40.5 -5l18 -7c10 -3.33301 19.333 -9 28 -17c12.667 -10 20.667 -25.667 24 -47c1.33301 -6.66699 2 -21.334 2 -44.001c0 -73.333 -27 -114.666 -81 -123.999c-18 -3.33301 -36.5 -5 -55.5 -5
s-38.167 3 -57.5 9c-22.667 11.333 -37.334 25 -44.001 41c-5.33301 15.333 -8 38.666 -8 69.999s1.66699 53.666 5 66.999c10.667 32 36 52 76 60zM116.001 460.002c6.66699 -0.666992 13.834 -1.00098 21.501 -1.00098s21.167 1.33301 40.5 4h1c18 2 28.667 14.333 32 37
c1.33301 4 2.5 11.333 3.5 22s1.5 20 1.5 28s-2.66699 15.667 -8 23c-10.667 12.667 -29.667 19 -57 19c-12 0 -24.667 -1.33301 -38 -4c-14.667 -5.33301 -23.334 -15.333 -26.001 -30c-0.666992 -4.66699 -1 -25 -1 -61c0 -21.333 10 -33.666 30 -36.999z" />
    <glyph glyph-name="plusminus" unicode="&#xb1;" horiz-adv-x="501" 
d="M288 254l-109.003 1.99707h-11c-2 2 -3 15 -3 39l1 40c0 28.667 -1 44 -3 46h-2c-12 0 -32.333 1 -61 3c-34 2.66699 -51 5.66699 -51 9c0.666992 6.66699 1 13.834 1 21.501s-0.333008 17.834 -1 30.501l-2.5 49.5c-1 20.333 -1.5 30.833 -1.5 31.5h8.5
c5 0 25 1.33301 60 4s54.5 4.66699 58.5 6c0 25.333 1 50 3 74s3 36.667 3 38l3 18c0 -3.33301 14 -5 42 -5l92 1h11c0 -78.667 0.666992 -120 2 -124c8.66699 -0.666992 28.334 -1 59.001 -1s51.334 -1 62.001 -3c-0.666992 -15.333 -1 -38.833 -1 -70.5s-1 -56.5 -3 -74.5
c-2 -1.33301 -21.167 -2.16602 -57.5 -2.49902s-56.833 -1.83301 -61.5 -4.5c0.666992 -2.66699 1 -6.66699 1 -12l-8 -110v-2c-3.33301 -2.66699 -13.666 -4 -30.999 -4zM475.997 3.99707l-448 7.00098l3 160h443l-2 -96c0 -28.667 1.66699 -52.334 5 -71.001h-1z" />
    <glyph glyph-name="twosuperior" unicode="&#xb2;" horiz-adv-x="264" 
d="M112 397l111.999 1.00195c2.66699 -6 4 -13.167 4 -21.5s-0.166992 -16.833 -0.5 -25.5s-0.166016 -13.667 0.500977 -15h-2l-173 -3h-21v2c0.666992 8 1 20.333 1 37c0 33.333 5 58.333 15 75c12 12.667 29.333 26 52 40s38.5 24.167 47.5 30.5s13.5 18.166 13.5 35.499
s-7.66699 26.666 -23 27.999c-23.333 0 -35 -18.333 -35 -55v-1c-14.667 -2 -27.667 -3 -39 -3s-20.666 0.333008 -27.999 1v1c-2 12 -3 23 -3 33c0 28.667 8.66699 52.667 26 72c14.667 18 43 27 85 27c54.667 0 84.334 -28 89.001 -84
c1.33301 -17.333 1.66602 -33.333 0.999023 -48s-8.33398 -27.834 -23.001 -39.501s-32 -22.167 -52 -31.5s-34 -18.666 -42 -27.999c-7.33301 -16.667 -9 -26 -5 -28z" />
    <glyph glyph-name="threesuperior" unicode="&#xb3;" horiz-adv-x="254" 
d="M154 556c0 16.667 -8.33301 24.998 -25 24.998c-6.66699 0 -14.5 -2.5 -23.5 -7.5s-14.833 -11.833 -17.5 -20.5c-4 0 -15 -0.333008 -33 -1h-27v1c0 25.333 0.666992 39.666 2 42.999c6.66699 22.667 23.334 38.667 50.001 48c16 6 30.667 9 44 9
c46 0 76.667 -13 92 -39c4 -5.33301 6 -11.333 6 -18s0.166992 -17.5 0.5 -32.5s0.5 -35.833 0.5 -62.5s-0.333008 -45.334 -1 -56.001c-2 -37.333 -5 -59.666 -9 -66.999c-12.667 -31.333 -42.334 -47 -89.001 -47c-23.333 0 -41.666 3 -54.999 9
c-6.66699 1.33301 -11.834 3.5 -15.501 6.5l-10 8c-3 2.33301 -6 8.83301 -9 19.5s-4.66699 21.334 -5 32.001s-0.833008 19 -1.5 25h1l59 3h1c4.66699 -12 13.667 -20.667 27 -26c4 -2 9 -3 15 -3s12.333 4 19 12c4 6 5.33301 13 4 21s-5 14 -11 18
c-7.33301 6 -15.5 9 -24.5 9s-17.5 -1 -25.5 -3c-2.66699 2.66699 -4 9.33398 -4 20.001l1 36v8c4.66699 2 13.167 2.83301 25.5 2.5s21.833 1.33398 28.5 5.00098s10 11.167 10 22.5z" />
    <glyph glyph-name="acute" unicode="&#xb4;" horiz-adv-x="255" 
d="M140 525c-14.667 -1.33301 -28.666 -2 -41.999 -2c-46 0 -76.667 2 -92 6c8.66699 8 34.167 33.667 76.5 77s72.5 72 90.5 86l69 -70c-4.66699 -4.66699 -15.334 -14 -32.001 -28c-42.667 -36.667 -66 -59.667 -70 -69z" />
    <glyph glyph-name="mu" unicode="&#xb5;" horiz-adv-x="458" 
d="M423 2l-103.002 -6.00195c-12 0 -21 1.66699 -27 5c-1.33301 8.66699 -2 19 -2 31v22c-7.33301 -12.667 -18.166 -22.667 -32.499 -30s-26.5 -12 -36.5 -14s-25 -4 -45 -6c0 -64 0.666992 -105.5 2 -124.5s2 -31.5 2 -37.5c-0.666992 -4.66699 -16 -7 -46 -7l-85 1h-10
c0 238 0.333008 361.667 1 371l4 241c0 20.667 -0.333008 37.334 -1 50.001c18 2.66699 59.667 4 125 4c1.33301 -20 2 -57.167 2 -111.5s0.333008 -88.666 1 -102.999s1.33398 -25 2.00098 -32s1.16699 -12.5 1.5 -16.5s1 -9.33301 2 -16s2 -12 3 -16
s2.16699 -8.33301 3.5 -13c7.33301 -20.667 25 -31 53 -31c12.667 0 25.5 4.83301 38.5 14.5s20.167 25.5 21.5 47.5c0.666992 6.66699 1 14.667 1 24l-7 185c0 28.667 1.66699 49.667 5 63c17.333 2 34.333 3 51 3h25c16 0 32.667 1 50 3l3 -390
c0 -62 -0.666992 -99 -2 -111z" />
    <glyph glyph-name="paragraph" unicode="&#xb6;" horiz-adv-x="672" 
d="M652 728l2.99902 -136.997c-3.33301 -6 -16 -9 -38 -9s-42.667 0.666992 -62 2c-4.66699 -293.333 -7 -491 -7 -593s0.666992 -165 2 -189c-0.666992 -4.66699 -16 -7 -46 -7l-85 1h-10c6 77.333 9.16699 212.833 9.5 406.5s1.5 321.167 3.5 382.5l-77 1
c-4 -252.667 -6 -437.334 -6 -554.001s1 -193.334 3 -230.001c-0.666992 -4.66699 -16 -7 -46 -7l-85 1h-10c6 68.667 9 153.5 9 254.5s-0.666992 190.833 -2 269.5c-18 -2.66699 -37 -4 -57 -4s-37.333 4 -52 12c-22.667 13.333 -45.334 41.333 -68.001 84
c-7.33301 34.667 -11 71.667 -11 111s2.66699 80 8 122c10.667 43.333 37.334 68.333 80.001 75c18.667 3.33301 39.834 5.16602 63.501 5.49902s39.5 0.833008 47.5 1.5l176 1l162 2z" />
    <glyph glyph-name="periodcentered" unicode="&#xb7;" horiz-adv-x="164" 
d="M129 264c-4 -6.66699 -13 -10 -27 -10l-47 1h-15l-4 118v20l90 -1z" />
    <glyph glyph-name="cedilla" unicode="&#xb8;" horiz-adv-x="190" 
d="M17 -147l51 147l9 -2l10 -2l86 -2l-47 -141v-1c-72.667 0 -109 0.333008 -109 1z" />
    <glyph glyph-name="onesuperior" unicode="&#xb9;" horiz-adv-x="187" 
d="M150 567l-5 -195v-30c0 -4.66699 -5.33301 -7 -16 -7s-28 1 -52 3v42l6 165v8c-1.33301 0 -4 -4 -8 -12s-7.66699 -12 -11 -12s-12.833 2.16699 -28.5 6.5s-23.5 7.5 -23.5 9.5c0 10 14 37.667 42 83l9 13l40 1c10 0 25 -0.666992 45 -2c1.33301 -10.667 2 -35 2 -73z
" />
    <glyph glyph-name="ordmasculine" unicode="&#xba;" horiz-adv-x="254" 
d="M192 619.5c17.333 -18.333 27.668 -38.001 31.001 -59.001s5 -35.833 5 -44.5s0.166992 -15.167 0.5 -19.5s0.5 -9.16602 0.5 -14.499c0 -34.667 -8.33301 -67.834 -25 -99.501s-42.334 -47.5 -77.001 -47.5c-12 0 -24.333 1.66699 -37 5
c-26.667 10.667 -43.667 26.834 -51 48.501s-11 49.5 -11 83.5c-0.666992 10.667 -1 21 -1 31c0 45.333 7.66699 79.666 23 102.999c0 0.666992 1.33301 2.33398 4 5.00098c21.333 24 45.333 36 72 36s48.667 -9.16699 66 -27.5zM125.002 405.999
c12 2 19.6689 8.00098 23.002 18.001s5.66602 23.5 6.99902 40.5s2 35.333 2 55s-3.5 34.167 -10.5 43.5s-13 14 -18 14s-9.83301 -0.666992 -14.5 -2c-10.667 -2 -16.834 -13.833 -18.501 -35.5s-2.5 -40.834 -2.5 -57.501s1 -29 3 -37s3.66699 -14 5 -18l3 -9
c3.33301 -8 10.333 -12 21 -12z" />
    <glyph glyph-name="guillemotright" unicode="&#xbb;" horiz-adv-x="583" 
d="M251 75l-11.001 9.99707c23.333 18.667 55.5 48.334 96.5 89.001s70.5 69 88.5 85c-18 21.333 -48.5 54.5 -91.5 99.5s-71.167 75.833 -84.5 92.5c7.33301 4.66699 19.666 16.167 36.999 34.5s30.333 29.833 39 34.5l57 -59c98.667 -98.667 161.334 -165 188.001 -199
c-30 -39.333 -76.167 -87.666 -138.5 -144.999s-100.166 -92.666 -113.499 -105.999c-16 14 -33 30 -51 48zM29.999 74.9971l-11.001 9.99707c23.333 18.667 55.5 48.334 96.5 89.001s70.5 69 88.5 85c-18 21.333 -48.5 54.5 -91.5 99.5s-71.167 75.833 -84.5 92.5
c7.33301 4.66699 19.666 16.167 36.999 34.5s30.333 29.833 39 34.5l57 -59c98.667 -98.667 161.334 -165 188.001 -199c-30 -39.333 -76.167 -87.666 -138.5 -144.999s-100.166 -92.666 -113.499 -105.999c-16 14 -33 30 -51 48z" />
    <glyph glyph-name="onequarter" unicode="&#xbc;" horiz-adv-x="595" 
d="M380 708l49.998 2c15.333 0 24.333 -1.66699 27 -5v-1c-119.333 -357.333 -199.666 -589.333 -240.999 -696l-2 -3l-2 -4h-9l-61 1c-9.33301 0 -15 -0.333008 -17 -1c14 42 51.333 147.5 112 316.5s103.334 299.5 128.001 391.5c2 -0.666992 7 -1 15 -1zM570.998 104
l-26 -2.00098h-1c0.666992 0.666992 -0.333008 -13.833 -3 -43.5s-4.33398 -47.167 -5.00098 -52.5c-2 -2 -27 -3 -75 -3l1 107c-3.33301 1.33301 -21.166 2 -53.499 2h-49.5v1c-3.33301 14 -5 28.333 -5 43v29v1l110 169l80 1h1c0.666992 -3.33301 1 -10.666 1 -21.999
l-1 -101c0 -30 0.666992 -47 2 -51c2 1.33301 6.83301 1.33301 14.5 0s12.167 -2 13.5 -2l-3 -76h-1zM449.998 179.999l29 1h1v1l2 70c0 6 -8.66699 -4.16699 -26 -30.5s-26.333 -39.833 -27 -40.5l11 -1h10zM173.998 571.999l-5 -224.999c0 -15.333 0.333008 -27 1 -35
c0 -6 -10.333 -9 -31 -9l-48 3v49l6 190c0 4.66699 -0.333008 8 -1 10c-1.33301 0 -4.16602 -4.66699 -8.49902 -14s-8.5 -14 -12.5 -14s-15 2.5 -33 7.5s-27 8.5 -27 10.5c1.33301 10 10.666 30 27.999 60s28 47 32 51l45 1c12 0 29.333 -0.666992 52 -2
c1.33301 -12.667 2 -40.334 2 -83.001z" />
    <glyph glyph-name="onehalf" unicode="&#xbd;" horiz-adv-x="602" 
d="M380 708l49.998 2c15.333 0 24.333 -1.66699 27 -5v-1c-119.333 -357.333 -199.666 -589.333 -240.999 -696l-2 -3l-2 -4h-9l-61 1c-9.33301 0 -15 -0.333008 -17 -1c14 42 51.333 147.5 112 316.5s103.334 299.5 128.001 391.5c2 -0.666992 7 -1 15 -1zM473.998 74
l93.002 1c2.66699 -6 4 -18.833 4 -38.5s0.166992 -30 0.5 -31s-0.166992 -1.5 -1.5 -1.5l-190 -2h-23v1c0.666992 8 1 18.833 1 32.5v33.5c1.33301 22.667 6.66602 42 15.999 58c12 14 31 28.833 57 44.5s42.667 26.5 50 32.5c12 6.66699 18 18 18 34
c0 23.333 -9 35.666 -27 36.999c-24.667 0 -37 -20 -37 -60v-1c-26.667 -2.66699 -44.834 -4 -54.501 -4s-16.167 0.333008 -19.5 1h-1v1c-2 12.667 -3 24.667 -3 36c0 32.667 9.33301 59.334 28 80.001c15.333 20 46.333 30 93 30c20.667 0 37.334 -3 50.001 -9
c29.333 -15.333 45.666 -43.333 48.999 -84c0.666992 -13.333 1 -23.333 1 -30c0 -30 -8.33301 -51.667 -25 -65s-36 -25.166 -58 -35.499s-37.333 -20.833 -46 -31.5c-7.33301 -16.667 -9 -26.334 -5 -29.001h30zM174 572l-5 -224.999c0 -15.333 0.333008 -27 1 -35
c0 -6 -10.333 -9 -31 -9l-48 3v49l6 190c0 4.66699 -0.333008 8 -1 10c-1.33301 0 -4.16602 -4.66699 -8.49902 -14s-8.5 -14 -12.5 -14s-15 2.5 -33 7.5s-27 8.5 -27 10.5c1.33301 10 10.666 30 27.999 60s28 47 32 51l45 1c12 0 29.333 -0.666992 52 -2
c1.33301 -12.667 2 -40.334 2 -83.001z" />
    <glyph glyph-name="threequarters" unicode="&#xbe;" horiz-adv-x="626" 
d="M413 708l49.998 2c15.333 0 24.333 -1.66699 27 -5v-1c-119.333 -357.333 -199.666 -589.333 -240.999 -696l-2 -3l-2 -4h-9l-61 1c-9.33301 0 -15 -0.333008 -17 -1c14 42 51.333 147.5 112 316.5s103.334 299.5 128.001 391.5c2 -0.666992 7 -1 15 -1zM603.998 104
l-26 -2.00098h-1c0.666992 0.666992 -0.333008 -13.833 -3 -43.5s-4.33398 -47.167 -5.00098 -52.5c-2 -2 -27 -3 -75 -3l1 107c-3.33301 1.33301 -21.166 2 -53.499 2h-49.5v1c-3.33301 14 -5 28.333 -5 43v29v1l110 169l80 1h1c0.666992 -3.33301 1 -10.666 1 -21.999
l-1 -101c0 -30 0.666992 -47 2 -51c2 1.33301 6.83301 1.33301 14.5 0s12.167 -2 13.5 -2l-3 -76h-1zM483.498 179.999c14.333 0 23.832 0.333008 28.499 1h1v1l2 70c0 6 -8.66699 -4.16699 -26 -30.5s-26.166 -39.833 -26.499 -40.5s6.66699 -1 21 -1zM88.9971 546.999
l-66.001 -1.00098v1c0 26.667 0.666992 42 2 46c7.33301 25.333 25.666 43.333 54.999 54c17.333 6.66699 33.333 10 48 10c50.667 0 84.334 -14.333 101.001 -43c4.66699 -7.33301 7 -14.5 7 -21.5s0.166992 -18.5 0.5 -34.5s0.5 -39 0.5 -69c0 -76 -3.33301 -121 -10 -135
c-8.66699 -22.667 -25.334 -38 -50.001 -46c-14.667 -4 -29 -6 -43 -6c-42 0 -70.667 6.66699 -86 20c-2 1.33301 -3.33301 2 -4 2c-10 12 -15.333 24 -16 36c-1.33301 5.33301 -2.33301 13.5 -3 24.5s-1.16699 18.333 -1.5 22s-0.166016 5.5 0.500977 5.5l57 4h8h1
c4.66699 -14 14.334 -24 29.001 -30c4.66699 -1.33301 10.334 -2 17.001 -2s13.667 4.33301 21 13c4 6 5.5 13.333 4.5 22s-5.33301 15.834 -13 21.501s-16.667 8.5 -27 8.5s-19.5 -0.666992 -27.5 -2c-2.66699 5.33301 -4 12.333 -4 21l2 48
c4 1.33301 13 2.16602 27 2.49902s24.667 2.5 32 6.5s10.666 12.333 9.99902 25c0 18 -8.66699 27 -26 27c-7.33301 0 -15.833 -2.66699 -25.5 -8s-16.5 -12.666 -20.5 -21.999z" />
    <glyph glyph-name="questiondown" unicode="&#xbf;" horiz-adv-x="450" 
d="M223 439l54.001 -0.999023c10 0 18.667 0.333008 26 1h1c2.66699 -2.66699 4 -10 4 -22l-2 -38c-8.66699 -54 -21.667 -93.667 -39 -119c-4.66699 -8.66699 -13 -21.334 -25 -38.001c-42.667 -56.667 -64 -94.667 -64 -114c0 -20.667 13 -35 39 -43
c8.66699 -4.66699 15.667 -7 21 -7s11.5 1.5 18.5 4.5s12.833 8 17.5 15l17 24.5c6.66699 9.33301 13.667 15.333 21 18c15.333 1.33301 27.333 2 36 2l86 -4v-1c-2.66699 -52.667 -22.5 -99.834 -59.5 -141.501s-82.833 -63.834 -137.5 -66.501
c-8.66699 -0.666992 -17.334 -1 -26.001 -1c-51.333 0 -96.166 17 -134.499 51s-57.5 75.333 -57.5 124c0 45.333 16 88 48 128c7.33301 10 17.5 21.833 30.5 35.5s22.833 24.834 29.5 33.501c23.333 32.667 39.666 73.334 48.999 122.001c3.33301 11.333 5 19.333 5 24
s-0.333008 8 -1 10v1c10.667 1.33301 25 2 43 2zM307.001 615.001c2 -11.333 3.00098 -29 3.00098 -53l-2 -63c-15.333 -5.33301 -37.833 -8 -67.5 -8s-48.834 2 -57.501 6l6 117v2h2l113 -1h3z" />
    <glyph glyph-name="Agrave" unicode="&#xc0;" horiz-adv-x="434" 
d="M290 754c-16 -4 -38.667 -6 -68 -6s-51.333 0.666992 -66 2c-5.33301 8 -22.5 25 -51.5 51s-45.833 41.333 -50.5 46l69 70c18 -14 48.167 -42.667 90.5 -86s67.833 -69 76.5 -77zM157 700c9.33301 1.33301 15.668 1.66602 19.001 0.999023s12 -1 26 -1s40 1.66699 78 5
c10.667 -33.333 38 -151.333 82 -354l75 -350v-1c-16.667 -3.33301 -36 -5 -58 -5s-47.333 3 -76 9h-1c-4.66699 12.667 -12 39.5 -22 80.5s-18.333 68.5 -25 82.5c-2.66699 2 -9 3 -19 3l-43 -2c-5.33301 -12.667 -12 -39.667 -20 -81s-16 -70 -24 -86
c-6 -1.33301 -12 -2 -18 -2l-125 2c-0.666992 0 -1.33398 0.333008 -2.00098 1c36.667 248.667 87.667 481.334 153 698.001zM186.002 286h74.001c-16 139.333 -28.667 209 -38 209c-2.66699 0 -5.33398 -5 -8.00098 -15s-12 -74.667 -28 -194z" />
    <glyph glyph-name="Aacute" unicode="&#xc1;" horiz-adv-x="434" 
d="M266 750c-14.667 -1.33301 -28.666 -2 -41.999 -2c-46 0 -76.667 2 -92 6c8.66699 8 34.167 33.667 76.5 77s72.5 72 90.5 86l69 -70c-4.66699 -4.66699 -15.334 -14 -32.001 -28c-42.667 -36.667 -66 -59.667 -70 -69zM157.001 700
c9.33301 1.33301 15.668 1.66602 19.001 0.999023s12 -1 26 -1s40 1.66699 78 5c10.667 -33.333 38 -151.333 82 -354l75 -350v-1c-16.667 -3.33301 -36 -5 -58 -5s-47.333 3 -76 9h-1c-4.66699 12.667 -12 39.5 -22 80.5s-18.333 68.5 -25 82.5c-2.66699 2 -9 3 -19 3
l-43 -2c-5.33301 -12.667 -12 -39.667 -20 -81s-16 -70 -24 -86c-6 -1.33301 -12 -2 -18 -2l-125 2c-0.666992 0 -1.33398 0.333008 -2.00098 1c36.667 248.667 87.667 481.334 153 698.001zM186.003 286h74.001c-16 139.333 -28.667 209 -38 209
c-2.66699 0 -5.33398 -5 -8.00098 -15s-12 -74.667 -28 -194z" />
    <glyph glyph-name="Acircumflex" unicode="&#xc2;" horiz-adv-x="434" 
d="M384 756l-78.0039 -7c-11.333 0 -23.666 0.666992 -36.999 2c-4 0 -12.667 7.66699 -26 23s-21.666 24 -24.999 26c-3.33301 -1.33301 -12 -9.5 -26 -24.5s-22.167 -22.833 -24.5 -23.5s-7.66602 -1 -15.999 -1s-39.166 1.33301 -92.499 4
c21.333 28 41.5 51.167 60.5 69.5l59 55l42.5 38.5zM156.996 700c9.33301 1.33301 15.667 1.66699 19 1s12 -1 26 -1s40 1.66699 78 5l82 -354l75 -350v-1c-16.667 -3.33301 -36 -5 -58 -5s-47.333 3 -76 9h-1c-4.66699 12.667 -12 39.5 -22 80.5s-18.333 68.5 -25 82.5
c-2.66699 2 -9 3 -19 3l-43 -2c-5.33301 -12.667 -12 -39.667 -20 -81s-16 -70 -24 -86c-6 -1.33301 -12 -2 -18 -2l-125 2c-0.666992 0 -1.33398 0.333008 -2.00098 1c0.666992 2 7.33398 39.667 20.001 113s31 165.5 55 276.5s50 213.833 78 308.5zM185.997 286.001
h74.001c-16 139.333 -28.667 209 -38 209c-2.66699 0 -5.33398 -5 -8.00098 -15s-12 -74.667 -28 -194z" />
    <glyph glyph-name="Atilde" unicode="&#xc3;" horiz-adv-x="434" 
d="M188 823c-38 0 -56.9971 -15.666 -56.9971 -46.999c0 -6.66699 1 -13.667 3 -21v-1c-11.333 2.66699 -30.833 4 -58.5 4s-47.167 -0.333008 -58.5 -1c16.667 59.333 36.667 102.333 60 129c23.333 23.333 50.333 35 81 35c31.333 0 57.666 -13.667 78.999 -41
c9.33301 -12 16.666 -19.667 21.999 -23c8.66699 -7.33301 16.834 -11 24.501 -11s16.667 5.66699 27 17s18.833 27 25.5 47c0.666992 0 28 1 82 3l1 -1c0 -0.666992 0.333008 -1 1 -1v-1c0.666992 -7.33301 1 -14.333 1 -21c0 -26.667 -7 -53.334 -21 -80.001
c-20.667 -40 -52.334 -60 -95.001 -60c-14.667 0 -30 3.66699 -46 11s-28 20.666 -36 39.999c-8.66699 14.667 -20.334 22.334 -35.001 23.001zM157.003 700.001c9.33301 1.33301 15.667 1.66699 19 1s12 -1 26 -1s40 1.66699 78 5c10.667 -33.333 38 -151.333 82 -354
l75 -350v-1c-16.667 -3.33301 -36 -5 -58 -5s-47.333 3 -76 9h-1c-4.66699 12.667 -12 39.5 -22 80.5s-18.333 68.5 -25 82.5c-2.66699 2 -9 3 -19 3l-43 -2c-5.33301 -12.667 -12 -39.667 -20 -81s-16 -70 -24 -86c-6 -1.33301 -12 -2 -18 -2l-125 2
c-0.666992 0 -1.33398 0.333008 -2.00098 1c0.666992 2 7.33398 39.667 20.001 113s31 165.5 55 276.5s50 213.833 78 308.5zM186.004 286.002h74.001c-16 139.333 -28.667 209 -38 209c-2.66699 0 -5.33398 -5 -8.00098 -15s-12 -74.667 -28 -194z" />
    <glyph glyph-name="Adieresis" unicode="&#xc4;" horiz-adv-x="434" 
d="M69 759c-2 10.667 -3 26 -3 46l2 55c14 4.66699 33.5 7 58.5 7s41.833 -2 50.5 -6l-1 -22c-3.33301 -44 -5 -70.333 -5 -79v-2h-2l-97 1h-3zM243 759c-2 10.667 -3 26 -3 46l2 55c14 4.66699 33.5 7 58.5 7s41.833 -2 50.5 -6l-1 -22c-3.33301 -44 -5 -70.333 -5 -79v-2
h-2l-97 1h-3zM157 700c9.33301 1.33301 15.667 1.66699 19 1s12 -1 26 -1s40 1.66699 78 5l82 -354l75 -350v-1c-16.667 -3.33301 -36 -5 -58 -5s-47.333 3 -76 9h-1c-4.66699 12.667 -12 39.5 -22 80.5s-18.333 68.5 -25 82.5c-2.66699 2 -9 3 -19 3l-43 -2
c-5.33301 -12.667 -12 -39.667 -20 -81s-16 -70 -24 -86c-6 -1.33301 -12 -2 -18 -2l-125 2c-0.666992 0 -1.33398 0.333008 -2.00098 1c0.666992 2 7.33398 39.667 20.001 113s31 165.5 55 276.5s50 213.833 78 308.5zM186.001 286.001h74.001
c-16 139.333 -28.667 209 -38 209c-2.66699 0 -5.33398 -5 -8.00098 -15s-12 -74.667 -28 -194z" />
    <glyph glyph-name="Aring" unicode="&#xc5;" horiz-adv-x="434" 
d="M232 753c-7.33301 -1.33301 -15.999 -2 -25.999 -2s-20 0.333008 -30 1c-22.667 1.33301 -37.667 11 -45 29c-4.66699 23.333 -7 44.333 -7 63c0 32.667 5.66699 56.334 17 71.001c15.333 14 36 21 62 21c5.33301 0 10.666 -0.333008 15.999 -1
c40 -1.33301 66.333 -11 79 -29c5.33301 -18.667 8 -38.834 8 -60.501s-4.66699 -44.5 -14 -68.5c-9.33301 -14.667 -29.333 -22.667 -60 -24zM169.001 848c0 -22.667 3.33398 -37.332 10.001 -43.999c7.33301 -6 15.666 -9 24.999 -9h10c24.667 1.33301 39 6.33301 43 15
c3.33301 15.333 5 26.333 5 33c0 15.333 -2.33301 26.666 -7 33.999c-9.33301 9.33301 -20.833 14 -34.5 14s-25.167 -2 -34.5 -6c-8 -5.33301 -12.833 -12.333 -14.5 -21s-2.5 -14 -2.5 -16zM157.002 700.002c9.33301 1.33301 15.667 1.66699 19 1s12 -1 26 -1
s40 1.66699 78 5l82 -354l75 -350v-1c-16.667 -3.33301 -36 -5 -58 -5s-47.333 3 -76 9h-1c-4.66699 12.667 -12 39.5 -22 80.5s-18.333 68.5 -25 82.5c-2.66699 2 -9 3 -19 3l-43 -2c-5.33301 -12.667 -12 -39.667 -20 -81s-16 -70 -24 -86c-6 -1.33301 -12 -2 -18 -2
l-125 2c-0.666992 0 -1.33398 0.333008 -2.00098 1c0.666992 2 7.33398 39.667 20.001 113s31 165.5 55 276.5s50 213.833 78 308.5zM186.003 286.003h74.001c-16 139.333 -28.667 209 -38 209c-2.66699 0 -5.33398 -5 -8.00098 -15s-12 -74.667 -28 -194z" />
    <glyph glyph-name="AE" unicode="&#xc6;" horiz-adv-x="716" 
d="M557 366l-2.99805 -85.998c-10.667 -2 -25.667 -3.16699 -45 -3.5s-36 -0.666016 -50 -0.999023s-22.667 -2.16602 -26 -5.49902c-1.33301 -23.333 -2 -47.333 -2 -72s2.66699 -43 8 -55h1c23.333 -1.33301 64.833 -2 124.5 -2s104.167 -1.33301 133.5 -4v-3
c0.666992 -12.667 1 -29.834 1 -51.501s-2.33301 -47.167 -7 -76.5l-2 -2l-284 -3c-45.333 0 -87.333 1.33301 -126 4c-2.66699 10.667 -7.33398 28.167 -14.001 52.5s-11.334 43.5 -14.001 57.5v1l-69 2h-2c0 -0.666992 -4.66699 -16.5 -14 -47.5
s-15.666 -53.5 -18.999 -67.5l-3 -2l-77 2c-38 0 -58.333 -0.666992 -61 -2s-4.33398 -2 -5.00098 -2c14.667 77.333 22.5 122 23.5 134s3.16699 26.667 6.5 44s5.66602 28.666 6.99902 33.999s5.5 23.166 12.5 53.499l20 84.5l33 139l48.5 205
c120.667 5.33301 301.334 8 542.001 8v-2c1.33301 -14 2 -29 2 -45l-2 -97v-2c-26.667 -6 -63.667 -9 -111 -9l-55 1c-42 0 -75.667 -1.66699 -101 -5v-7l-3 -76c0 -18.667 2 -30 6 -34c12 -2 31.833 -3 59.5 -3s48.167 -1 61.5 -3c3.33301 -14.667 5 -32.334 5 -53.001z
M186.002 284.002l2 -0.00195312c2.66699 1.33301 7 2 13 2l37 -3c8.66699 0 14 1.33301 16 4c-2.66699 16.667 -8.66699 41 -18 73l-18 61c-12 -33.333 -19.667 -57.166 -23 -71.499s-6.33301 -36.166 -9 -65.499z" />
    <glyph glyph-name="Ccedilla" unicode="&#xc7;" 
d="M151 -125l25.9941 114.998v3c-6.66699 -0.666992 -16 -1 -28 -1s-26.167 4.33301 -42.5 13s-29.833 23 -40.5 43c-19.333 37.333 -29.666 82.666 -30.999 135.999v10c-1.33301 52 -2 106.5 -2 163.5s0.833008 100.333 2.5 130s2.83398 45.5 3.50098 47.5
c6 62.667 27.333 109.667 64 141c18 11.333 45.333 17 82 17h14h17c50.667 0 89 -4.66699 115 -14c48 -20 83.333 -57.333 106 -112c13.333 -32 20 -61.167 20 -87.5s-3.33301 -50.166 -10 -71.499h-1c-11.333 -4 -28.666 -6 -51.999 -6s-50.666 2.33301 -81.999 7h-2
c-3.33301 8.66699 -5.66602 24.167 -6.99902 46.5s-5 40.833 -11 55.5c-8.66699 19.333 -25.667 29 -51 29c-16 0 -29.833 -5.5 -41.5 -16.5s-18.167 -25.5 -19.5 -43.5c-2 -46.667 -3 -92.5 -3 -137.5s1.66699 -86.5 5 -124.5c8.66699 -40.667 26.334 -64.667 53.001 -72
c4 -0.666992 7.66699 -1 11 -1c27.333 0 46.666 11.667 57.999 35c6 12.667 9.33301 29.834 10 51.501s1.33398 35.834 2.00098 42.501l70 2c25.333 0 45.333 -2 60 -6c8 -24.667 12 -48.667 12 -72c0 -38.667 -10.667 -76.667 -32 -114c-34 -58.667 -84.667 -90 -152 -94
h-2l-1 1c-14 -59.333 -24 -98 -30 -116v-2h-12l-60 -2c-12 0 -18 1.33301 -18 4z" />
    <glyph glyph-name="Egrave" unicode="&#xc8;" horiz-adv-x="481" 
d="M347 754c-16 -4 -38.667 -6 -68 -6s-51.333 0.666992 -66 2c-5.33301 8 -22.5 25 -51.5 51s-45.833 41.333 -50.5 46l69 70c18 -14 48.167 -42.667 90.5 -86s67.833 -69 76.5 -77zM201 141l219.999 -6.00098c15.333 0 29.333 0.333008 42 1v-2c1.33301 -16 2 -36 2 -60
s-3.33301 -47.667 -10 -71l-284 -3c-46 0 -88 1.66699 -126 5l-5 469c0 75.333 2 147 6 215c112.667 6 209.667 9 291 9s122.333 -1 123 -3c2 -14 3 -29 3 -45l-3 -97v-1c-29.333 -6.66699 -68 -10 -116 -10h-52c-37.333 0 -68.666 -0.666992 -93.999 -2h-3l-1 -1l-3 -87
c0 -17.333 1.66699 -27.666 5 -30.999c36 -2 77 -3 123 -3v-1c2.66699 -2 4 -16 4 -42l-2 -97c-14 -4 -36.5 -6 -67.5 -6s-48.833 -1.66699 -53.5 -5c-2.66699 -14 -4 -31.5 -4 -52.5s1.33301 -45.167 4 -72.5z" />
    <glyph glyph-name="Eacute" unicode="&#xc9;" horiz-adv-x="481" 
d="M201 141l219.999 -6.00098c15.333 0 29.333 0.333008 42 1v-2c1.33301 -16 2 -36 2 -60s-3.33301 -47.667 -10 -71l-284 -3c-46 0 -88 1.66699 -126 5l-5 469c0 75.333 2 147 6 215c112.667 6 209.667 9 291 9s122.333 -1 123 -3c2 -14 3 -29 3 -45l-3 -97v-1
c-29.333 -6.66699 -68 -10 -116 -10h-52c-37.333 0 -68.666 -0.666992 -93.999 -2h-3l-1 -1l-3 -87c0 -17.333 1.66699 -27.666 5 -30.999c36 -2 77 -3 123 -3v-1c2.66699 -2 4 -16 4 -42l-2 -97c-14 -4 -36.5 -6 -67.5 -6s-48.833 -1.66699 -53.5 -5
c-2.66699 -14 -4 -31.5 -4 -52.5s1.33301 -45.167 4 -72.5zM293.999 749.999c-14.667 -1.33301 -28.665 -2 -41.998 -2c-46.667 0 -77.334 2 -92.001 6c8.66699 8 34.167 33.667 76.5 77s72.5 72 90.5 86l69 -70c-4.66699 -4.66699 -15.334 -14 -32.001 -28
c-42.667 -36.667 -66 -59.667 -70 -69z" />
    <glyph glyph-name="Ecircumflex" unicode="&#xca;" horiz-adv-x="481" 
d="M415 756l-78.0039 -7c-11.333 0 -23.666 0.666992 -36.999 2c-4 0 -12.667 7.66699 -26 23s-21.666 24 -24.999 26c-3.33301 -1.33301 -12 -9.5 -26 -24.5s-22.167 -22.833 -24.5 -23.5s-7.66602 -1 -15.999 -1s-39.166 1.33301 -92.499 4
c21.333 28 41.5 51.167 60.5 69.5l59 55l42.5 38.5zM200.996 141l219.999 -6.00098c15.333 0 29.333 0.333008 42 1v-2c1.33301 -16 2 -36 2 -60s-3.33301 -47.667 -10 -71l-284 -3c-46 0 -88 1.66699 -126 5l-5 469c0 75.333 2 147 6 215c112.667 6 209.667 9 291 9
s122.333 -1 123 -3c2 -14 3 -29 3 -45l-3 -97v-1c-29.333 -6.66699 -68 -10 -116 -10h-52c-37.333 0 -68.666 -0.666992 -93.999 -2h-3l-1 -1l-3 -87c0 -17.333 1.66699 -27.666 5 -30.999c36 -2 77 -3 123 -3v-1c2.66699 -2 4 -16 4 -42l-2 -97c-14 -4 -36.5 -6 -67.5 -6
s-48.833 -1.66699 -53.5 -5c-2.66699 -14 -4 -31.5 -4 -52.5s1.33301 -45.167 4 -72.5z" />
    <glyph glyph-name="Edieresis" unicode="&#xcb;" horiz-adv-x="481" 
d="M201 141l219.999 -6.00098c15.333 0 29.333 0.333008 42 1v-2c1.33301 -16 2 -36 2 -60s-3.33301 -47.667 -10 -71l-284 -3c-46 0 -88 1.66699 -126 5l-5 469c0 75.333 2 147 6 215c112.667 6 209.667 9 291 9s122.333 -1 123 -3c2 -14 3 -29 3 -45l-3 -97v-1
c-29.333 -6.66699 -68 -10 -116 -10h-52c-37.333 0 -68.666 -0.666992 -93.999 -2h-3l-1 -1l-3 -87c0 -17.333 1.66699 -27.666 5 -30.999c36 -2 77 -3 123 -3v-1c2.66699 -2 4 -16 4 -42l-2 -97c-14 -4 -36.5 -6 -67.5 -6s-48.833 -1.66699 -53.5 -5
c-2.66699 -14 -4 -31.5 -4 -52.5s1.33301 -45.167 4 -72.5zM107.999 758.999c-2 10.667 -3 26 -3 46l2 55c14 4.66699 33.5 7 58.5 7s41.833 -2 50.5 -6l-2 -22c-2.66699 -44 -4 -70.333 -4 -79v-2h-2l-97 1h-3zM281.999 758.999c-2 10.667 -3 26 -3 46l2 55
c14 4.66699 33.5 7 58.5 7s41.833 -2 50.5 -6l-2 -22c-2.66699 -44 -4 -70.333 -4 -79v-2h-2l-97 1h-3z" />
    <glyph glyph-name="Igrave" unicode="&#xcc;" horiz-adv-x="260" 
d="M220 754c-16 -4 -38.667 -6 -68 -6s-51.333 0.666992 -66 2c-5.33301 8 -22.5 25 -51.5 51s-45.833 41.333 -50.5 46l69 70c18 -14 48.167 -42.667 90.5 -86s67.833 -69 76.5 -77zM52 708l36 -2c55.333 -2 92 -3 110 -3h24v-4l-7 -477c0 -52.667 2 -125 6 -217
c-2 -7.33301 -22 -11 -60 -11l-103 3c-10 0 -16.333 -0.333008 -19 -1c3.33301 43.333 5 100.333 5 171l-5 345c0 85.333 2.66699 150 8 194v2h5z" />
    <glyph glyph-name="Iacute" unicode="&#xcd;" horiz-adv-x="259" 
d="M47 708l41 -2c55.333 -2 92 -3 110 -3h24v-4l-7 -477c0 -52.667 2 -125 6 -217c-2 -7.33301 -22 -11 -60 -11l-103 3c-10 0 -16.333 -0.333008 -19 -1c3.33301 43.333 5 100.333 5 171l-5 345c0 85.333 2.66699 150 8 194v2zM193 750c-14.667 -1.33301 -28.667 -2 -42 -2
c-46 0 -76.667 2 -92 6c8.66699 8 34.167 33.667 76.5 77s72.5 72 90.5 86l69 -70c-4.66699 -4.66699 -15 -14 -31 -28c-43.333 -36.667 -67 -59.667 -71 -69z" />
    <glyph glyph-name="Icircumflex" unicode="&#xce;" horiz-adv-x="260" 
d="M307 756l-78.0039 -7c-11.333 0 -23.666 0.666992 -36.999 2c-4 0 -12.667 7.66699 -26 23s-21.666 24 -24.999 26c-3.33301 -1.33301 -12 -9.5 -26 -24.5s-22.167 -22.833 -24.5 -23.5s-7.66602 -1 -15.999 -1s-39.166 1.33301 -92.499 4
c21.333 28 41.5 51.167 60.5 69.5l59 55l42.5 38.5zM51.9961 708l36 -2c55.333 -2 92 -3 110 -3h24v-4l-7 -477c0 -52.667 2 -125 6 -217c-2 -7.33301 -22 -11 -60 -11l-103 3c-10 0 -16.333 -0.333008 -19 -1c3.33301 43.333 5 100.333 5 171l-5 345
c0 85.333 2.66699 150 8 194v2h5z" />
    <glyph glyph-name="Idieresis" unicode="&#xcf;" horiz-adv-x="260" 
d="M47 708l41 -2c55.333 -2 92 -3 110 -3h24v-4l-7 -477c0 -52.667 2 -125 6 -217c-2 -7.33301 -22 -11 -60 -11l-103 3c-10 0 -16.333 -0.333008 -19 -1c3.33301 43.333 5 100.333 5 171l-5 345c0 85.333 2.66699 150 8 194v2zM2 759c-2 10.667 -3 26 -3 46l2 55
c14 4.66699 33.5 7 58.5 7s41.833 -2 50.5 -6l-2 -22c-2.66699 -44 -4 -70.333 -4 -79v-2h-2l-97 1h-3zM176 759c-2 10.667 -3 26 -3 46l2 55c14 4.66699 33.5 7 58.5 7s41.833 -2 50.5 -6l-2 -22c-2.66699 -44 -4 -70.333 -4 -79v-2h-2l-97 1h-3z" />
    <glyph glyph-name="Eth" unicode="&#xd0;" horiz-adv-x="482" 
d="M-1 272l-3.99902 117.999v20l57 -1c0.666992 48.667 1 97.5 1 146.5s-0.666992 92.833 -2 131.5c4.66699 0.666992 19 3 43 7c54 8 90.333 12 109 12s31.834 -0.5 39.501 -1.5s20.667 -3.16699 39 -6.5s33.166 -8.33301 44.499 -15c28.667 -18 52 -41.667 70 -71
s30.667 -58.666 38 -87.999c13.333 -44 21.333 -79.5 24 -106.5s4 -56.5 4 -88.5s-5.33301 -68.667 -16 -110c-28.667 -128.667 -71 -199 -127 -211c-27.333 -5.33301 -60.333 -8 -99 -8l-146 4h-18c-2.66699 85.333 -4 174.333 -4 267
c-12.667 0.666992 -30.334 1 -53.001 1zM201.001 163.999l37.001 1.99805c29.333 2.66699 52 15.667 68 39c17.333 26.667 26 70.334 26 131.001c0 32 -1.66699 54.667 -5 68s-6 25 -8 35s-3.83301 17 -5.5 21s-4 10 -7 18s-6.16699 14 -9.5 18
c-9.33301 12.667 -19 22.334 -29 29.001c-14.667 6 -26.334 9 -35.001 9c-27.333 0 -49.333 -3.33301 -66 -10c1.33301 -10.667 2 -27 2 -49s-0.333008 -45 -1 -69l59 -1l3 -128l-63 1c0 -58 0.666992 -93 2 -105c0 -6 10.667 -9 32 -9z" />
    <glyph glyph-name="Ntilde" unicode="&#xd1;" horiz-adv-x="516" 
d="M318 699c26.667 4.66699 55.834 7 87.501 7s54.5 -1.33301 68.5 -4l-1 -320c0.666992 -37.333 1 -98.333 1 -183s0.666992 -145.334 2 -182.001l-1 -14c-2.66699 -7.33301 -16.334 -11 -41.001 -11l-79 5c-10 0 -19 -0.666992 -27 -2h-1
c-26 56.667 -66 156.334 -120 299.001c-4.66699 -64.667 -7 -121.334 -7 -170.001s0.333008 -81.667 1 -99v-26c-6 -2.66699 -16.667 -4 -32 -4l-104 7c-9.33301 0 -15.5 -0.333008 -18.5 -1s-4.5 -0.666992 -4.5 0v50l-3 357c0 114.667 3 210.334 9 287.001
c14.667 4 35 6 61 6s54.333 -4.33301 85 -13v-1c2 -12.667 21.333 -48.834 58 -108.501l64 -104.5c2 8.66699 3 22.334 3 41.001l-4 123c0 22.667 1 42 3 58v3zM176 752c-11.333 2.66699 -30.8301 4.00195 -58.4971 4.00195s-47.167 -0.333008 -58.5 -1
c16.667 59.333 36.667 102.333 60 129c23.333 23.333 50.333 35 81 35c31.333 0 57.666 -13.667 78.999 -41c9.33301 -12 16.666 -19.667 21.999 -23c8.66699 -7.33301 16.834 -11 24.501 -11s16.667 5.66699 27 17s18.833 27 25.5 47c0.666992 0 28 1 82 3l1 -1
c0 -0.666992 0.5 -2.83398 1.5 -6.50098s1.5 -9.5 1.5 -17.5c0 -32 -12.667 -66.667 -38 -104c-12 -14 -24.333 -23.333 -37 -28s-24.834 -7 -36.501 -7s-23.834 1.66699 -36.501 5c-25.333 8 -42.333 23.333 -51 46c-9.33301 15.333 -22.333 23 -39 23
c-8 0 -19.667 -3 -35 -9c-12 -8.66699 -18 -21.334 -18 -38.001c0 -6.66699 1 -13.667 3 -21v-1z" />
    <glyph glyph-name="Ograve" unicode="&#xd2;" horiz-adv-x="485" 
d="M302 754c-16 -4 -38.667 -6 -68 -6s-51.333 0.666992 -66 2c-5.33301 8 -22.5 25 -51.5 51s-45.833 41.333 -50.5 46l69 70c18 -14 48.167 -42.667 90.5 -86s67.833 -69 76.5 -77zM457 473l-3.00098 -138.002c0 -45.333 -1 -80 -3 -104l-3 -33
c-3.33301 -54.667 -16 -99.667 -38 -135c-20 -27.333 -54.333 -47.666 -103 -60.999c-24.667 -7.33301 -47.167 -11 -67.5 -11s-41.333 0.833008 -63 2.5s-43.667 7.5 -66 17.5s-38.833 27 -49.5 51c-14.667 25.333 -22.667 62.333 -24 111c-5.33301 102 -8 163.667 -8 185
c0 53.333 1 96.333 3 129c1.33301 74.667 19 131.667 53 171c8 8 15.667 14 23 18c38.667 19.333 82.334 29 131.001 29c64 0 116.667 -15.667 158 -47c19.333 -17.333 33 -37.666 41 -60.999c6.66699 -15.333 11.5 -34 14.5 -56s4.5 -44.667 4.5 -68zM328.999 252.998
l1.99707 52.0029v48l-2 68c-2.66699 25.333 -4 44.333 -4 57c-3.33301 41.333 -20.666 69.666 -51.999 84.999c-9.33301 4 -18.333 6 -27 6l-51 -20c-23.333 -18.667 -39 -41.667 -47 -69c-6.66699 -32.667 -10 -63.834 -10 -93.501s0.333008 -50.5 1 -62.5
c4.66699 -74 11 -123.667 19 -149c14 -29.333 40.667 -44 80 -44c28.667 0 52.334 10.333 71.001 31c10.667 14.667 16.334 25.167 17.001 31.5s1.16699 15.166 1.5 26.499s0.833008 22.333 1.5 33z" />
    <glyph glyph-name="Oacute" unicode="&#xd3;" horiz-adv-x="485" 
d="M457 473l-3.00098 -138.002c0 -45.333 -1 -80 -3 -104l-3 -33c-3.33301 -54.667 -16 -99.667 -38 -135c-20 -27.333 -54.333 -47.666 -103 -60.999c-24.667 -7.33301 -47.167 -11 -67.5 -11s-41.333 0.833008 -63 2.5s-43.667 7.5 -66 17.5s-38.833 27 -49.5 51
c-14.667 25.333 -22.667 62.333 -24 111c-5.33301 102 -8 163.667 -8 185c0 53.333 1 96.333 3 129c1.33301 74.667 19 131.667 53 171c8 8 15.667 14 23 18c38.667 19.333 82.334 29 131.001 29c64 0 116.667 -15.667 158 -47c19.333 -17.333 33 -37.666 41 -60.999
c6.66699 -15.333 11.5 -34 14.5 -56s4.5 -44.667 4.5 -68zM328.999 252.998l1.99707 52.0029v48l-2 68c-2.66699 25.333 -4 44.333 -4 57c-3.33301 41.333 -20.666 69.666 -51.999 84.999c-9.33301 4 -18.333 6 -27 6l-51 -20c-23.333 -18.667 -39 -41.667 -47 -69
c-6.66699 -32.667 -10 -63.834 -10 -93.501s0.333008 -50.5 1 -62.5c4.66699 -74 11 -123.667 19 -149c14 -29.333 40.667 -44 80 -44c28.667 0 52.334 10.333 71.001 31c10.667 14.667 16.334 25.167 17.001 31.5s1.16699 15.166 1.5 26.499s0.833008 22.333 1.5 33z
M299.996 750.001c-14.667 -1.33301 -28.665 -2 -41.998 -2c-46.667 0 -77.334 2 -92.001 6c8.66699 8 34.167 33.667 76.5 77s72.5 72 90.5 86l69 -70c-4.66699 -4.66699 -15.334 -14 -32.001 -28c-42.667 -36.667 -66 -59.667 -70 -69z" />
    <glyph glyph-name="Ocircumflex" unicode="&#xd4;" horiz-adv-x="484" 
d="M410 756l-78.0039 -7c-11.333 0 -23.666 0.666992 -36.999 2c-4 0 -12.667 7.66699 -26 23s-21.666 24 -24.999 26c-3.33301 -1.33301 -12 -9.5 -26 -24.5s-22.167 -22.833 -24.5 -23.5s-7.66602 -1 -15.999 -1s-39.166 1.33301 -92.499 4
c21.333 28 41.5 51.167 60.5 69.5l59 55l42.5 38.5zM455.996 473l-3.00098 -138.002c0 -45.333 -1 -80 -3 -104l-3 -33c-3.33301 -54.667 -16 -99.667 -38 -135c-20 -27.333 -54.333 -47.666 -103 -60.999c-25.333 -7.33301 -48 -11 -68 -11s-40.833 0.833008 -62.5 2.5
s-43.667 7.5 -66 17.5s-38.833 27 -49.5 51c-14.667 25.333 -22.667 62.333 -24 111c-5.33301 102 -8 163.667 -8 185c0 53.333 1 96.333 3 129c1.33301 74.667 19 131.667 53 171c8 8 15.667 14 23 18c38.667 19.333 82.334 29 131.001 29c64 0 116.667 -15.667 158 -47
c19.333 -17.333 33 -37.666 41 -60.999c6.66699 -15.333 11.5 -34 14.5 -56s4.5 -44.667 4.5 -68zM327.995 252.998l1.99707 52.0029v48l-2 68c-2.66699 25.333 -4 44.333 -4 57c-3.33301 41.333 -20.666 69.666 -51.999 84.999c-9.33301 4 -18.333 6 -27 6l-51 -20
c-23.333 -18.667 -39 -41.667 -47 -69c-6.66699 -32.667 -10 -63.834 -10 -93.501s0.333008 -50.5 1 -62.5c4.66699 -74 11 -123.667 19 -149c14 -29.333 40.667 -44 80 -44c28.667 0 52.334 10.333 71.001 31c10.667 14.667 16.334 25.167 17.001 31.5
s1.16699 15.166 1.5 26.499s0.833008 22.333 1.5 33z" />
    <glyph glyph-name="Otilde" unicode="&#xd5;" horiz-adv-x="484" 
d="M456 473l-3.00098 -138.002c0 -45.333 -1 -80 -3 -104l-3 -33c-3.33301 -54.667 -16 -99.667 -38 -135c-20 -27.333 -54.333 -47.666 -103 -60.999c-25.333 -7.33301 -48 -11 -68 -11s-40.833 0.833008 -62.5 2.5s-43.667 7.5 -66 17.5s-38.833 27 -49.5 51
c-14.667 25.333 -22.667 62.333 -24 111c-5.33301 102 -8 163.667 -8 185c0 53.333 1 96.333 3 129c1.33301 74.667 19 131.667 53 171c8 8 15.667 14 23 18c38.667 19.333 82.334 29 131.001 29c64 0 116.667 -15.667 158 -47c19.333 -17.333 33 -37.666 41 -60.999
c6.66699 -15.333 11.5 -34 14.5 -56s4.5 -44.667 4.5 -68zM327.999 252.998l1.99707 52.0029v48l-2 68c-2.66699 25.333 -4 44.333 -4 57c-3.33301 41.333 -20.666 69.666 -51.999 84.999c-9.33301 4 -18.333 6 -27 6l-51 -20c-23.333 -18.667 -39 -41.667 -47 -69
c-6.66699 -32.667 -10 -63.834 -10 -93.501s0.333008 -50.5 1 -62.5c4.66699 -74 11 -123.667 19 -149c14 -29.333 40.667 -44 80 -44c28.667 0 52.334 10.333 71.001 31c10.667 14.667 16.334 25.167 17.001 31.5s1.16699 15.166 1.5 26.499s0.833008 22.333 1.5 33z
M155.996 743.001c-11.333 2.66699 -30.8301 4.00195 -58.4971 4.00195s-47.167 -0.333008 -58.5 -1c16.667 59.333 36.667 102.333 60 129c23.333 23.333 50.333 35 81 35c31.333 0 57.666 -13.667 78.999 -41c9.33301 -12 16.666 -19.667 21.999 -23
c8.66699 -7.33301 16.834 -11 24.501 -11s16.667 5.66699 27 17s18.833 27 25.5 47c0.666992 0 28 1 82 3l1 -1c0 -0.666992 0.5 -2.83398 1.5 -6.50098s1.5 -9.5 1.5 -17.5c0 -32 -12.667 -66.667 -38 -104c-12 -14 -24.333 -23.333 -37 -28s-24.834 -7 -36.501 -7
s-23.834 2 -36.501 6c-25.333 7.33301 -42.333 22.333 -51 45c-9.33301 15.333 -22.333 23 -39 23c-8 0 -19.667 -3 -35 -9c-12 -8.66699 -18 -21.667 -18 -39c0 -6.66699 1 -13.334 3 -20.001v-1z" />
    <glyph glyph-name="Odieresis" unicode="&#xd6;" horiz-adv-x="484" 
d="M456 473l-3.00098 -138.002c0 -45.333 -1 -80 -3 -104l-3 -33c-3.33301 -54.667 -16 -99.667 -38 -135c-20 -27.333 -54.333 -47.666 -103 -60.999c-25.333 -7.33301 -48 -11 -68 -11s-40.833 0.833008 -62.5 2.5s-43.667 7.5 -66 17.5s-38.833 27 -49.5 51
c-14.667 25.333 -22.667 62.333 -24 111c-5.33301 102 -8 163.667 -8 185c0 53.333 1 96.333 3 129c1.33301 74.667 19 131.667 53 171c8 8 15.667 14 23 18c38.667 19.333 82.334 29 131.001 29c64 0 116.667 -15.667 158 -47c19.333 -17.333 33 -37.666 41 -60.999
c6.66699 -15.333 11.5 -34 14.5 -56s4.5 -44.667 4.5 -68zM327.999 252.998l1.99707 52.0029v48l-2 68c-2.66699 25.333 -4 44.333 -4 57c-3.33301 41.333 -20.666 69.666 -51.999 84.999c-9.33301 4 -18.333 6 -27 6l-51 -20c-23.333 -18.667 -39 -41.667 -47 -69
c-6.66699 -32.667 -10 -63.834 -10 -93.501s0.333008 -50.5 1 -62.5c4.66699 -74 11 -123.667 19 -149c14 -29.333 40.667 -44 80 -44c28.667 0 52.334 10.333 71.001 31c10.667 14.667 16.334 25.167 17.001 31.5s1.16699 15.166 1.5 26.499s0.833008 22.333 1.5 33z
M105.996 759.001c-2 10.667 -3 26 -3 46l2 55c14 4.66699 33.5 7 58.5 7s41.833 -2 50.5 -6l-2 -22c-2.66699 -44 -4 -70.333 -4 -79v-2h-2l-97 1h-3zM279.996 759.001c-2 10.667 -3 26 -3 46l2 55c14 4.66699 33.5 7 58.5 7s41.833 -2 50.5 -6l-2 -22
c-2.66699 -44 -4 -70.333 -4 -79v-2h-2l-97 1h-3z" />
    <glyph glyph-name="multiply" unicode="&#xd7;" horiz-adv-x="735" 
d="M692 9c0 -6 -6.83203 -10.167 -20.499 -12.5s-67.5 -3.5 -161.5 -3.5s-248.667 3 -464 9c3.33301 86 5 145.5 5 178.5s-0.333008 66.333 -1 100s-2.33398 100.667 -5.00098 201s-4 181.833 -4 244.5l647 -2c0 -400 1.66699 -637 5 -711c-0.666992 -0.666992 -1 -2 -1 -4z
M255.001 372c-3.33301 10 -8.5 27.168 -15.5 51.501s-12.833 43.833 -17.5 58.5c-13.333 40 -38 93.667 -74 161c-2 -103.333 -3 -284 -3 -542c34 70.667 59.833 131.167 77.5 181.5s28.5 80.166 32.5 89.499zM587.001 272.001c0 63.333 -0.333984 132.5 -1.00098 207.5
s-1 127.833 -1 158.5c-3.33301 -8.66699 -23.166 -48.5 -59.499 -119.5s-56.5 -120.5 -60.5 -148.5c4 -28.667 23.5 -76 58.5 -142s55.5 -106.333 61.5 -121c1.33301 46.667 2 101.667 2 165zM357 410.001c2 6 16.668 37.3301 44.001 93.9971s46.666 102.334 57.999 137.001
c-15.333 0 -47.333 -0.166992 -96 -0.5s-80.667 -0.5 -96 -0.5c9.33301 -33.333 26.5 -79.666 51.5 -138.999s37.833 -89.666 38.5 -90.999zM259.001 96.998c18 -1.33301 36.667 -2 56 -2c74.667 0 124 2.66699 148 8l-107 225c-3.33301 -8 -18.5 -42.5 -45.5 -103.5
s-44.167 -103.5 -51.5 -127.5z" />
    <glyph glyph-name="Oslash" unicode="&#xd8;" horiz-adv-x="479" 
d="M378 724c23.333 0 38.6709 -2.66699 46.0039 -8c0 -8.66699 -3.33301 -20.667 -10 -36s-9.33398 -27 -8.00098 -35c22.667 -26 36.167 -52.833 40.5 -80.5s6.5 -51.834 6.5 -72.501s-0.333008 -37.5 -1 -50.5s-1 -35.167 -1 -66.5s-0.333008 -53.333 -1 -66
s-1.33398 -31 -2.00098 -55c-2 -39.333 -6.66699 -80.333 -14 -123c-8 -36 -24.833 -65.5 -50.5 -88.5s-56.834 -36.167 -93.501 -39.5c-12 -1.33301 -30.667 -2.16602 -56 -2.49902s-43.333 -1.16602 -54 -2.49902h-2c0 -4 -4.33301 -9 -13 -15l-1 -1
c-8 -1.33301 -23.667 -2.33301 -47 -3l-41 1c-17.333 0 -31.666 -0.333008 -42.999 -1c-2.66699 4 6 33.333 26 88c0 0.666992 0.166992 1 0.5 1s0.5 0.333008 0.5 1s-0.166992 1 -0.5 1s-0.5 0.333008 -0.5 1c-20 78.667 -30 171 -30 277
c0 37.333 0.833008 68.166 2.5 92.499s3.16699 47.5 4.5 69.5c1.33301 44 7.66602 77.5 18.999 100.5s25.666 43.167 42.999 60.5c28 21.333 71.333 32 130 32c15.333 0 32 -0.666992 50 -2c1.33301 0.666992 2.33301 4.5 3 11.5s3 10.5 7 10.5h1
c9.33301 -1.33301 19 -2 29 -2zM141.005 279l92.999 282.998v1h-8c-13.333 -1.33301 -26.666 -7.16602 -39.999 -17.499s-22.666 -22.166 -27.999 -35.499c-2.66699 -14 -4.83398 -35 -6.50098 -63s-3.5 -49.333 -5.5 -64l-3 -23c-3.33301 -23.333 -5 -41.333 -5 -54
s1 -21.667 3 -27zM322.004 390.998l-0.000976562 3.99805l-93 -264c0.666992 0 1 -0.166992 1 -0.5s4.66699 0.333984 14 2.00098s22.833 7.33398 40.5 17.001s28.834 22.167 33.501 37.5c6.66699 29.333 10 57.666 10 84.999s-1 52.333 -3 75s-3 37.334 -3 44.001z" />
    <glyph glyph-name="Ugrave" unicode="&#xd9;" horiz-adv-x="505" 
d="M331 754c-16 -4 -38.667 -6 -68 -6s-51.333 0.666992 -66 2c-5.33301 8 -22.5 25 -51.5 51s-45.833 41.333 -50.5 46l69 70c18 -14 48.167 -42.667 90.5 -86s67.833 -69 76.5 -77zM381 678c9.33301 0.666992 17.667 1.16504 25 1.49805s16.833 0.5 28.5 0.5
s23.167 -3.33301 34.5 -10v-1c2.66699 -66 4 -143.667 4 -233s-5.33301 -184.333 -16 -285c-6 -45.333 -23 -83 -51 -113c-34 -36 -83 -54 -147 -54c-75.333 0 -135 21.667 -179 65c-27.333 26.667 -41.666 59.334 -42.999 98.001l5 439
c0 61.333 -0.666992 92.666 -2 93.999h1l74 2c29.333 0 51.666 -2.33301 66.999 -7v-1c-2.66699 -57.333 -4 -126.666 -4 -207.999s4.33301 -175.666 13 -282.999c8.66699 -30 28.667 -45 60 -45c10 0 20.333 2.66699 31 8c17.333 8.66699 28 22.667 32 42
c2.66699 60.667 4.66699 147.667 6 261s2.33301 187.666 3 222.999c3.33301 0 11.5 0.833008 24.5 2.5s24.167 2.83398 33.5 3.50098z" />
    <glyph glyph-name="Uacute" unicode="&#xda;" horiz-adv-x="505" 
d="M381 678c9.33301 0.666992 17.667 1.16504 25 1.49805s16.833 0.5 28.5 0.5s23.167 -3.33301 34.5 -10v-1c2.66699 -66 4 -143.667 4 -233s-5.33301 -184.333 -16 -285c-6 -45.333 -23 -83 -51 -113c-34 -36 -83 -54 -147 -54c-75.333 0 -135 21.667 -179 65
c-27.333 26.667 -41.666 59.334 -42.999 98.001l5 439c0 61.333 -0.666992 92.666 -2 93.999h1l74 2c29.333 0 51.666 -2.33301 66.999 -7v-1c-2.66699 -57.333 -4 -126.666 -4 -207.999s4.33301 -175.666 13 -282.999c8.66699 -30 28.667 -45 60 -45
c10 0 20.333 2.66699 31 8c17.333 8.66699 28 22.667 32 42c2.66699 60.667 4.66699 147.667 6 261s2.33301 187.666 3 222.999c3.33301 0 11.5 0.833008 24.5 2.5s24.167 2.83398 33.5 3.50098zM317.001 749.998c-14.667 -1.33301 -28.666 -2 -41.999 -2
c-46.667 0 -77.334 2 -92.001 6c8.66699 8 34.167 33.667 76.5 77s72.5 72 90.5 86l69 -70c-4.66699 -4.66699 -15 -14 -31 -28c-43.333 -36.667 -67 -59.667 -71 -69z" />
    <glyph glyph-name="Ucircumflex" unicode="&#xdb;" horiz-adv-x="505" 
d="M411 756l-78.0039 -7c-11.333 0 -23.666 0.666992 -36.999 2c-4 0 -12.667 7.66699 -26 23s-21.666 24 -24.999 26c-3.33301 -1.33301 -12 -9.5 -26 -24.5s-22.167 -22.833 -24.5 -23.5s-7.66602 -1 -15.999 -1s-39.166 1.33301 -92.499 4
c21.333 28 41.5 51.167 60.5 69.5l59 55l42.5 38.5zM380.996 678c9.33301 0.666992 17.667 1.16504 25 1.49805s16.833 0.5 28.5 0.5s23.167 -3.33301 34.5 -10v-1c2.66699 -66 4 -143.667 4 -233s-5.33301 -184.333 -16 -285c-6 -45.333 -23 -83 -51 -113
c-34 -36 -83 -54 -147 -54c-75.333 0 -135 21.667 -179 65c-27.333 26.667 -41.666 59.334 -42.999 98.001l5 439c0 61.333 -0.666992 92.666 -2 93.999h1l74 2c29.333 0 51.666 -2.33301 66.999 -7v-1c-2.66699 -57.333 -4 -126.666 -4 -207.999
s4.33301 -175.666 13 -282.999c8.66699 -30 28.667 -45 60 -45c10 0 20.333 2.66699 31 8c17.333 8.66699 28 22.667 32 42c2.66699 60.667 4.66699 147.667 6 261s2.33301 187.666 3 222.999c3.33301 0 11.5 0.833008 24.5 2.5s24.167 2.83398 33.5 3.50098z" />
    <glyph glyph-name="Udieresis" unicode="&#xdc;" horiz-adv-x="505" 
d="M112 759c-2 10.667 -3 26 -3 46l2 55c14 4.66699 33.5 7 58.5 7s41.833 -2 50.5 -6l-2 -22c-2.66699 -44 -4 -70.333 -4 -79v-2h-2l-97 1h-3zM286 759c-2 10.667 -3 26 -3 46l2 55c14 4.66699 33.5 7 58.5 7s41.833 -2 50.5 -6l-2 -22c-2.66699 -44 -4 -70.333 -4 -79v-2
h-2l-97 1h-3zM381 678c9.33301 0.666992 17.667 1.16504 25 1.49805s16.833 0.5 28.5 0.5s23.167 -3.33301 34.5 -10v-1c2.66699 -66 4 -143.667 4 -233s-5.33301 -184.333 -16 -285c-6 -45.333 -23 -83 -51 -113c-34 -36 -83 -54 -147 -54c-75.333 0 -135 21.667 -179 65
c-27.333 26.667 -41.666 59.334 -42.999 98.001l5 439c0 61.333 -0.666992 92.666 -2 93.999h1l74 2c29.333 0 51.666 -2.33301 66.999 -7v-1c-2.66699 -57.333 -4 -126.666 -4 -207.999s4.33301 -175.666 13 -282.999c8.66699 -30 28.667 -45 60 -45
c10 0 20.333 2.66699 31 8c17.333 8.66699 28 22.667 32 42c2.66699 60.667 4.66699 147.667 6 261s2.33301 187.666 3 222.999c3.33301 0 11.5 0.833008 24.5 2.5s24.167 2.83398 33.5 3.50098z" />
    <glyph glyph-name="Yacute" unicode="&#xdd;" horiz-adv-x="434" 
d="M16 688l98.999 6c22.667 0 40.334 -2.66699 53.001 -8c18 -71.333 37.667 -129 59 -173c19.333 34.667 45.666 91.667 78.999 171c0.666992 0 10.667 1.5 30 4.5s39.833 4.5 61.5 4.5s38.5 -1.33301 50.5 -4v-1c-26 -82.667 -75 -199.667 -147 -351
s-120.667 -264 -146 -338c-6 0.666992 -14.667 1 -26 1l-98 -2h-18h-2c11.333 36 54.666 150.667 129.999 344v2c-9.33301 38.667 -30.166 96.167 -62.499 172.5s-53.166 133.5 -62.499 171.5zM282.999 750c-14.667 -1.33301 -28.667 -2 -42 -2c-46 0 -76.667 2 -92 6
c8.66699 8 34.167 33.667 76.5 77s72.5 72 90.5 86l69 -70c-4.66699 -4.66699 -15 -14 -31 -28c-43.333 -36.667 -67 -59.667 -71 -69z" />
    <glyph glyph-name="Thorn" unicode="&#xde;" horiz-adv-x="478" 
d="M44 242l-2.99609 308.998c0 70 1 129.667 3 179l136 -3c0 -13.333 0.333008 -29.166 1 -47.499s1 -49.5 1 -93.5c6 14.667 15.167 25.5 27.5 32.5s23.666 11 33.999 12s25.833 1.5 46.5 1.5c47.333 -1.33301 87.166 -23.666 119.499 -66.999s48.5 -98 48.5 -164
c0 -92 -21.333 -166 -64 -222c-23.333 -30.667 -51 -46 -83 -46c-22 0 -44.833 5 -68.5 15s-43.5 23 -59.5 39c0 -63.333 -0.5 -103.333 -1.5 -120s-1.5 -29 -1.5 -37c-0.666992 -10 -0.333984 -18.667 0.999023 -26c-4.66699 -5.33301 -24.334 -8 -59.001 -8h-61h-24
c4.66699 70.667 7 152.667 7 246zM236.004 497.998c-26 0 -41.167 -5 -45.5 -15s-6.5 -28 -6.5 -54v-56c0 -11.333 0.166992 -21 0.5 -29s1.5 -17.667 3.5 -29s5.33301 -19.333 10 -24c10.667 -12 28.167 -18 52.5 -18s44.5 10.333 60.5 31s24 44.167 24 70.5
s-2 47.333 -6 63s-14 29.667 -30 42s-37 18.5 -63 18.5z" />
    <glyph glyph-name="germandbls" unicode="&#xdf;" horiz-adv-x="470" 
d="M34 218l2 340c0 57.333 -0.333008 102 -1 134l1 1c53.333 14.667 96.5 22 129.5 22s63.333 -1.83301 91 -5.5s55.334 -12.5 83.001 -26.5s50.167 -36 67.5 -66s26 -68 26 -114s-16.333 -96.333 -49 -151c-3.33301 -6 -0.833008 -14 7.5 -24s13.666 -16.5 15.999 -19.5
l16 -21.5c8.33301 -11.333 13.5 -19.5 15.5 -24.5s5.5 -13 10.5 -24s8 -20.667 9 -29s1.5 -18.166 1.5 -29.499s-1 -23 -3 -35c-10 -58.667 -38.333 -99.334 -85 -122.001c-22.667 -11.333 -41.5 -18.333 -56.5 -21s-29.333 -4 -43 -4s-28.167 0.666992 -43.5 2
c-4.66699 16.667 -7 35.5 -7 56.5s1.33301 42.833 4 65.5c3.33301 12 14 18.667 32 20c28.667 4.66699 43 24.334 43 59.001c0 9.33301 -2.33301 21.5 -7 36.5s-12.667 27.833 -24 38.5c-21.333 22 -32 46 -32 72v7c4.66699 30 17.5 55 38.5 75s31.5 39.667 31.5 59
c0 7.33301 -1.66699 14.333 -5 21c-10 19.333 -25.5 31.166 -46.5 35.499s-39.5 6.5 -55.5 6.5s-29 -2.66699 -39 -8l-4 -60v-16l4 -137l3 -117l2 -143c0 -48 -3 -71.667 -9 -71c-75.333 0 -115.333 1 -120 3c-2.66699 45.333 -4 117 -4 215z" />
    <glyph glyph-name="agrave" unicode="&#xe0;" 
d="M349 2l-43.001 -3c-8 2.66699 -12 8.33398 -12 17.001s0.666992 16.5 2 23.5s2 12.5 2 16.5c-16.667 -16.667 -37.167 -30.5 -61.5 -41.5s-47.833 -16.5 -70.5 -16.5c-32 0 -59.667 15.333 -83 46c-42.667 56 -64 130 -64 222c0 66 16.167 120.667 48.5 164
s72.166 65.666 119.499 66.999c20.667 0 35.834 -0.5 45.501 -1.5s20 -5 31 -12s19.5 -17.833 25.5 -32.5c-0.666992 8 -0.166992 17.5 1.5 28.5s2.5 18.5 2.5 22.5c0 0.666992 16 1 48 1c46.667 -2 79.334 -3.66699 98.001 -5c1.33301 -10.667 2 -18.667 2 -24v-10
c-0.666992 -17.333 -1 -41 -1 -71l2 -234c0 -54 -0.5 -88.833 -1.5 -104.5s-1.5 -28.167 -1.5 -37.5s-4.33301 -15.333 -13 -18h-12zM177.999 344.5c-16 -12.333 -25.999 -26.333 -29.999 -42s-6 -36.667 -6 -63s8 -49.833 24 -70.5s37.667 -31 65 -31
c21.333 0 37.666 6 48.999 18c7.33301 8 11.333 20.667 12 38s1 32 1 44v21c0 50.667 -2.5 80.667 -7.5 90s-20.167 14 -45.5 14s-46 -6.16699 -62 -18.5zM350 591c-16 -4 -38.667 -6 -68 -6s-51.333 0.666992 -66 2c-5.33301 8 -22.5 25 -51.5 51s-45.833 41.333 -50.5 46
l69 70c18 -14 48.167 -42.667 90.5 -86s67.833 -69 76.5 -77z" />
    <glyph glyph-name="aacute" unicode="&#xe1;" 
d="M349 2l-43.001 -3c-8 2.66699 -12 8.33398 -12 17.001s0.666992 16.5 2 23.5s2 12.5 2 16.5c-16.667 -16.667 -37.167 -30.5 -61.5 -41.5s-47.833 -16.5 -70.5 -16.5c-32 0 -59.667 15.333 -83 46c-42.667 56 -64 130 -64 222c0 66 16.167 120.667 48.5 164
s72.166 65.666 119.499 66.999c20.667 0 35.834 -0.5 45.501 -1.5s20 -5 31 -12s19.5 -17.833 25.5 -32.5c-0.666992 8 -0.166992 17.5 1.5 28.5s2.5 18.5 2.5 22.5c0 0.666992 16 1 48 1c46.667 -2 79.334 -3.66699 98.001 -5c1.33301 -10.667 2 -18.667 2 -24v-10
c-0.666992 -17.333 -1 -41 -1 -71l2 -234c0 -54 -0.5 -88.833 -1.5 -104.5s-1.5 -28.167 -1.5 -37.5s-4.33301 -15.333 -13 -18h-12zM177.999 344.5c-16 -12.333 -25.999 -26.333 -29.999 -42s-6 -36.667 -6 -63s8 -49.833 24 -70.5s37.667 -31 65 -31
c21.333 0 37.666 6 48.999 18c7.33301 8 11.333 20.667 12 38s1 32 1 44v21c0 50.667 -2.5 80.667 -7.5 90s-20.167 14 -45.5 14s-46 -6.16699 -62 -18.5zM293 587c-14.667 -1.33301 -28.666 -2 -41.999 -2c-46.667 0 -77.334 2 -92.001 6c8.66699 8 34.167 33.667 76.5 77
s72.5 72 90.5 86l69 -70c-4.66699 -4.66699 -15 -14 -31 -28c-43.333 -36.667 -67 -59.667 -71 -69z" />
    <glyph glyph-name="acircumflex" unicode="&#xe2;" 
d="M415 595l-78.0039 -7c-11.333 0 -23.666 0.666992 -36.999 2c-4 0 -12.667 7.66699 -26 23s-21.666 24 -24.999 26c-3.33301 -1.33301 -12 -9.5 -26 -24.5s-22.167 -22.833 -24.5 -23.5s-7.66602 -1 -15.999 -1s-39.166 1.33301 -92.499 4
c21.333 28 41.5 51.167 60.5 69.5l59 55l42.5 38.5zM348.996 2l-43.001 -3c-8 2.66699 -12 8.33398 -12 17.001s0.666992 16.5 2 23.5s2 12.5 2 16.5c-16.667 -16.667 -37.167 -30.5 -61.5 -41.5s-47.833 -16.5 -70.5 -16.5c-32 0 -59.667 15.333 -83 46
c-42.667 56 -64 130 -64 222c0 66 16.167 120.667 48.5 164s72.166 65.666 119.499 66.999c20.667 0 35.834 -0.5 45.501 -1.5s20 -5 31 -12s19.5 -17.833 25.5 -32.5c-0.666992 8 -0.166992 17.5 1.5 28.5s2.5 18.5 2.5 22.5c0 0.666992 16 1 48 1
c46.667 -2 79.334 -3.66699 98.001 -5c1.33301 -10.667 2 -18.667 2 -24v-10c-0.666992 -17.333 -1 -41 -1 -71l2 -234c0 -54 -0.5 -88.833 -1.5 -104.5s-1.5 -28.167 -1.5 -37.5s-4.33301 -15.333 -13 -18h-12zM177.995 344.5c-16 -12.333 -25.999 -26.333 -29.999 -42
s-6 -36.667 -6 -63s8 -49.833 24 -70.5s37.667 -31 65 -31c21.333 0 37.666 6 48.999 18c7.33301 8 11.333 20.667 12 38s1 32 1 44v21c0 50.667 -2.5 80.667 -7.5 90s-20.167 14 -45.5 14s-46 -6.16699 -62 -18.5z" />
    <glyph glyph-name="atilde" unicode="&#xe3;" 
d="M349 2l-43.001 -3c-8 2.66699 -12 8.33398 -12 17.001s0.666992 16.5 2 23.5s2 12.5 2 16.5c-16.667 -16.667 -37.167 -30.5 -61.5 -41.5s-47.833 -16.5 -70.5 -16.5c-32 0 -59.667 15.333 -83 46c-42.667 56 -64 130 -64 222c0 66 16.167 120.667 48.5 164
s72.166 65.666 119.499 66.999c20.667 0 35.834 -0.5 45.501 -1.5s20 -5 31 -12s19.5 -17.833 25.5 -32.5c-0.666992 8 -0.166992 17.5 1.5 28.5s2.5 18.5 2.5 22.5c0 0.666992 16 1 48 1c46.667 -2 79.334 -3.66699 98.001 -5c1.33301 -10.667 2 -18.667 2 -24v-10
c-0.666992 -17.333 -1 -41 -1 -71l2 -234c0 -54 -0.5 -88.833 -1.5 -104.5s-1.5 -28.167 -1.5 -37.5s-4.33301 -15.333 -13 -18h-12zM177.999 344.5c-16 -12.333 -25.999 -26.333 -29.999 -42s-6 -36.667 -6 -63s8 -49.833 24 -70.5s37.667 -31 65 -31
c21.333 0 37.666 6 48.999 18c7.33301 8 11.333 20.667 12 38s1 32 1 44v21c0 50.667 -2.5 80.667 -7.5 90s-20.167 14 -45.5 14s-46 -6.16699 -62 -18.5zM218 658c-38 0 -56.9971 -15.998 -56.9971 -47.998c0 -6.66699 1 -13.334 3 -20.001v-1
c-11.333 2.66699 -30.833 4 -58.5 4s-47.167 -0.333008 -58.5 -1c16.667 59.333 36.667 102.333 60 129c23.333 23.333 50.333 35 81 35c31.333 0 57.666 -13.667 78.999 -41c9.33301 -12 16.666 -19.667 21.999 -23c8.66699 -7.33301 16.834 -11 24.501 -11
s16.667 5.66699 27 17s18.833 27 25.5 47c0.666992 0 28 1 82 3l1 -1c0 -0.666992 0.333008 -1 1 -1v-1c0.666992 -7.33301 1 -14.333 1 -21c0 -26.667 -7 -53.334 -21 -80.001c-20.667 -40 -52.334 -60 -95.001 -60c-14.667 0 -30 3.66699 -46 11s-28 20.666 -36 39.999
c-8.66699 14.667 -20.334 22.334 -35.001 23.001z" />
    <glyph glyph-name="adieresis" unicode="&#xe4;" 
d="M349 2l-43.001 -3c-8 2.66699 -12 8.33398 -12 17.001s0.666992 16.5 2 23.5s2 12.5 2 16.5c-16.667 -16.667 -37.167 -30.5 -61.5 -41.5s-47.833 -16.5 -70.5 -16.5c-32 0 -59.667 15.333 -83 46c-42.667 56 -64 130 -64 222c0 66 16.167 120.667 48.5 164
s72.166 65.666 119.499 66.999c20.667 0 35.834 -0.5 45.501 -1.5s20 -5 31 -12s19.5 -17.833 25.5 -32.5c-0.666992 8 -0.166992 17.5 1.5 28.5s2.5 18.5 2.5 22.5c0 0.666992 16 1 48 1c46.667 -2 79.334 -3.66699 98.001 -5c1.33301 -10.667 2 -18.667 2 -24v-10
c-0.666992 -17.333 -1 -41 -1 -71l2 -234c0 -54 -0.5 -88.833 -1.5 -104.5s-1.5 -28.167 -1.5 -37.5s-4.33301 -15.333 -13 -18h-12zM177.999 344.5c-16 -12.333 -25.999 -26.333 -29.999 -42s-6 -36.667 -6 -63s8 -49.833 24 -70.5s37.667 -31 65 -31
c21.333 0 37.666 6 48.999 18c7.33301 8 11.333 20.667 12 38s1 32 1 44v21c0 50.667 -2.5 80.667 -7.5 90s-20.167 14 -45.5 14s-46 -6.16699 -62 -18.5zM254 629c-4 -6 -18 -9 -42 -9l-79 2h-14l-4 118v20l136 -3zM438 629c-4 -6 -18 -9 -42 -9l-79 2h-14l-4 118v20
l136 -3z" />
    <glyph glyph-name="aring" unicode="&#xe5;" 
d="M267 570c-7.33301 -1.33301 -15.999 -2.00195 -25.999 -2.00195s-20 0.333008 -30 1c-22.667 1.33301 -37.667 11 -45 29c-4.66699 23.333 -7 44.333 -7 63c0 32.667 5.66699 56.334 17 71.001c15.333 14 36 21 62 21c5.33301 0 10.666 -0.333008 15.999 -1
c40 -1.33301 66.333 -11 79 -29c5.33301 -19.333 8 -39.666 8 -60.999s-4.66699 -44 -14 -68c-9.33301 -14.667 -29.333 -22.667 -60 -24zM204.001 664.998c0 -22.667 3.33398 -37.332 10.001 -43.999c7.33301 -6 15.666 -9 24.999 -9h10c24.667 1.33301 39 6.33301 43 15
c3.33301 15.333 5 26.333 5 33c0 15.333 -2.33301 26.666 -7 33.999c-9.33301 9.33301 -21 14 -35 14s-25.333 -2 -34 -6c-8 -5.33301 -12.833 -12.333 -14.5 -21s-2.5 -14 -2.5 -16zM349.002 2l-43.001 -3c-8 2.66699 -12 8.33398 -12 17.001s0.666992 16.5 2 23.5
s2 12.5 2 16.5c-16.667 -16.667 -37.167 -30.5 -61.5 -41.5s-47.833 -16.5 -70.5 -16.5c-32 0 -59.667 15.333 -83 46c-42.667 56 -64 130 -64 222c0 66 16.167 120.667 48.5 164s72.166 65.666 119.499 66.999c20.667 0 35.834 -0.5 45.501 -1.5s20 -5 31 -12
s19.5 -17.833 25.5 -32.5c-0.666992 8 -0.166992 17.5 1.5 28.5s2.5 18.5 2.5 22.5c0 0.666992 16 1 48 1c46.667 -2 79.334 -3.66699 98.001 -5c1.33301 -10.667 2 -18.667 2 -24v-10c-0.666992 -17.333 -1 -41 -1 -71l2 -234c0 -54 -0.5 -88.833 -1.5 -104.5
s-1.5 -28.167 -1.5 -37.5s-4.33301 -15.333 -13 -18h-12zM178.001 344.5c-16 -12.333 -25.999 -26.333 -29.999 -42s-6 -36.667 -6 -63s8 -49.833 24 -70.5s37.667 -31 65 -31c21.333 0 37.666 6 48.999 18c7.33301 8 11.333 20.667 12 38s1 32 1 44v21
c0 50.667 -2.5 80.667 -7.5 90s-20.167 14 -45.5 14s-46 -6.16699 -62 -18.5z" />
    <glyph glyph-name="ae" unicode="&#xe6;" horiz-adv-x="703" 
d="M354 451c36 31.333 82.666 46.998 139.999 46.998c21.333 0 42.333 -2.66699 63 -8c85.333 -14.667 128 -79 128 -193c0 -12.667 -0.666992 -26 -2 -40c-14 -4 -44.5 -7 -91.5 -9s-82.5 -3 -106.5 -3s-42.333 1.33301 -55 4v-29l1 -21
c0 -4.66699 0.166992 -7.83398 0.5 -9.50098s0.833008 -4.5 1.5 -8.5s1.33398 -6.83301 2.00098 -8.5s1.5 -4 2.5 -7s2.16699 -5.66699 3.5 -8s2.66602 -4.83301 3.99902 -7.5c10.667 -18.667 25.667 -31 45 -37c6 -2 13.5 -3 22.5 -3s19.667 5.5 32 16.5
s18.5 30.5 18.5 58.5v8h11l73 2c18.667 0 30 -1.33301 34 -4c-0.666992 -4.66699 -1.33398 -11.834 -2.00098 -21.501l-1.5 -21.5l-1.5 -20c-0.666992 -8.66699 -1.33398 -15.5 -2.00098 -20.5s-1.5 -10.833 -2.5 -17.5s-2 -12 -3 -16s-2.16699 -8.33301 -3.5 -13
c-2 -7.33301 -5.33301 -13.333 -10 -18c-10 -14 -25 -24.333 -45 -31c-23.333 -8 -47.666 -12 -72.999 -12l-99 3c-37.333 6.66699 -67 25.334 -89 56.001c-21.333 -17.333 -38.666 -30 -51.999 -38c-34 -19.333 -68 -29 -102 -29c-64.667 0 -116.667 22 -156 66
c-20 22 -30 48.167 -30 78.5s9.33301 62.5 28 96.5c25.333 38.667 74.666 58 147.999 58c38.667 0 70.334 -7.66699 95.001 -23c-0.666992 12.667 -1 22.334 -1 29.001v20c1.33301 14.667 0.666016 26 -2.00098 34c-5.33301 22.667 -17.666 37.334 -36.999 44.001
c-7.33301 2.66699 -15.833 4 -25.5 4s-20.167 -3.66699 -31.5 -11c-18 -11.333 -27 -27.666 -27 -48.999c-30 -4.66699 -55.5 -7 -76.5 -7s-36.833 2.66699 -47.5 8c-0.666992 6 -1 11.667 -1 17c0 30 11.667 56.333 35 79c36 34.667 86.333 52 151 52
s110.334 -12.333 137.001 -37zM135.999 192.998c-14 -14 -21.001 -30.999 -21.001 -50.999c0 -10.667 6 -21.334 18 -32.001s38 -16 78 -16c16 0 30.5 5.83301 43.5 17.5s19.5 25.167 19.5 40.5c0 22.667 -7.66699 38.667 -23 48c-21.333 10 -41.666 15 -60.999 15
s-37.333 -7.33301 -54 -22zM521.998 321.999l52.999 -1.99902c2.66699 0 4.33398 0.166992 5.00098 0.5s1 2.16602 1 5.49902v7c0 30 -12 50.667 -36 62c-13.333 6 -24.333 9 -33 9c-27.333 0 -46.5 -5.33301 -57.5 -16s-18.167 -25.667 -21.5 -45
c-0.666992 -4 -1 -8 -1 -12s1.33301 -6.5 4 -7.5s17 -1.5 43 -1.5h43z" />
    <glyph glyph-name="ccedilla" unicode="&#xe7;" horiz-adv-x="443" 
d="M305 194l78.998 1.99902c20 0 32.333 -1.33301 37 -4c-6.66699 -92.667 -16 -145 -28 -157c-19.333 -28 -56.666 -43.667 -111.999 -47c-2.66699 -8.66699 -10.5 -31.167 -23.5 -67.5s-20.5 -58.833 -22.5 -67.5v-1c-72.667 0 -109 0.333008 -109 1
c16 42.667 32 88.334 48 137.001l-13 1c-34 6 -62.667 20.667 -86 44c-16.667 14.667 -29 34.5 -37 59.5s-12 50.167 -12 75.5c0 70.667 -1 121.667 -3 153c0 24 1.16699 43.5 3.5 58.5s8.5 39.167 18.5 72.5c8.66699 19.333 27.167 33.833 55.5 43.5
s52.666 14.334 72.999 14.001s35.166 -0.5 44.499 -0.5l31 1c60.667 0 105.667 -14.333 135 -43c16 -10.667 26.333 -29.667 31 -57c2.66699 -16.667 4.33398 -30.834 5.00098 -42.501s1.33398 -20.167 2.00098 -25.5c0.666992 -14.667 1 -33 1 -55
c-9.33301 -2 -23.5 -3 -42.5 -3s-47.167 2.66699 -84.5 8c-3.33301 24.667 -11.833 42 -25.5 52s-26.167 15 -37.5 15c-28.667 0 -49.667 -8.33301 -63 -25c-4 -3.33301 -7 -11.333 -9 -24s-3.33301 -34 -4 -64l-2 -67c0 -16.667 7 -29.5 21 -38.5s29.333 -13.5 46 -13.5
c20 0 35.333 3.66699 46 11s19.334 25.333 26.001 54h11zM423.998 -89.001l1 -1c-0.666992 0 -1 0.333008 -1 1z" />
    <glyph glyph-name="egrave" unicode="&#xe8;" horiz-adv-x="444" 
d="M328 591c-16 -4 -38.667 -6 -68 -6s-51.333 0.666992 -66 2c-5.33301 8 -22.5 25 -51.5 51s-45.833 41.333 -50.5 46l69 70c18 -14 48.167 -42.667 90.5 -86s67.833 -69 76.5 -77zM255 -13l-90.999 3.00195c-18.667 2.66699 -36 8.66699 -52 18
c-33.333 23.333 -57 58.5 -71 105.5s-21 95.167 -21 144.5c0 8.66699 0.333008 17.334 1 26.001c5.33301 67.333 12.666 113.666 21.999 138.999c16.667 38 49.667 64.667 99 80c26.667 8.66699 52.334 13 77.001 13s48.334 -3 71.001 -9
c90.667 -15.333 136 -84.333 136 -207c0 -13.333 -0.666992 -27 -2 -41c-14.667 -4 -46.834 -7 -96.501 -9s-87.334 -3 -113.001 -3s-45.167 1.33301 -58.5 4v-31l1 -22c0 -4.66699 0.166992 -7.83398 0.5 -9.50098s0.833008 -4.5 1.5 -8.5s1.33398 -7 2.00098 -9
c11.333 -34.667 30.333 -56.334 57 -65.001c6 -1.33301 13.833 -2 23.5 -2s21.167 6 34.5 18s20 33 20 63v7h11l78 2c19.333 0 31.666 -1.33301 36.999 -4c-6.66699 -94 -16 -146 -28 -156c-18 -24.667 -44.667 -39 -80 -43c-22 -2.66699 -41.667 -4 -59 -4z
M253.001 329.002l54.002 -2c3.33301 0 5.66602 0.333008 6.99902 1s2 2.66699 2 6v7c0 30 -13 51.667 -39 65c-10.667 6.66699 -26.334 10 -47.001 10c-42 0 -65.667 -21.667 -71 -65c-0.666992 -4 -1 -8.16699 -1 -12.5s1.5 -7 4.5 -8s18.333 -1.5 46 -1.5h44.5z" />
    <glyph glyph-name="eacute" unicode="&#xe9;" horiz-adv-x="444" 
d="M278 587c-14.667 -1.33301 -28.665 -2 -41.998 -2c-46.667 0 -77.334 2 -92.001 6c8.66699 8 34.167 33.667 76.5 77s72.5 72 90.5 86l69 -70c-4.66699 -4.66699 -15.334 -14 -32.001 -28c-42.667 -36.667 -66 -59.667 -70 -69zM255.002 -13l-91.002 3.00195
c-18.667 2.66699 -36 8.66699 -52 18c-33.333 23.333 -57 58.5 -71 105.5s-21 95.167 -21 144.5c0 8.66699 0.333008 17.334 1 26.001c5.33301 67.333 12.666 113.666 21.999 138.999c16.667 38 49.667 64.667 99 80c26.667 8.66699 52.334 13 77.001 13
s48.334 -3 71.001 -9c90.667 -15.333 136 -84.333 136 -207c0 -13.333 -0.666992 -27 -2 -41c-15.333 -4 -47.666 -7 -96.999 -9s-86.833 -3 -112.5 -3s-45.167 1.33301 -58.5 4v-31l1 -22c0 -4.66699 0.166992 -7.83398 0.5 -9.50098s0.833008 -4.5 1.5 -8.5
s1.33398 -7 2.00098 -9c11.333 -34.667 30.333 -56.334 57 -65.001c6 -1.33301 13.833 -2 23.5 -2s21.167 6 34.5 18s20 33 20 63v7h11l78 2c19.333 0 31.666 -1.33301 36.999 -4c-6.66699 -94 -16 -146 -28 -156c-18 -24.667 -44.667 -39 -80 -43
c-22 -2.66699 -41.667 -4 -59 -4zM253 329.002l54.002 -2c3.33301 0 5.66602 0.333008 6.99902 1s2 2.66699 2 6v7c0 30 -13 51.667 -39 65c-10.667 6.66699 -26.334 10 -47.001 10c-42 0 -65.667 -21.667 -71 -65c-0.666992 -4 -1 -8.16699 -1 -12.5s1.5 -7 4.5 -8
s18.333 -1.5 46 -1.5h44.5z" />
    <glyph glyph-name="ecircumflex" unicode="&#xea;" horiz-adv-x="444" 
d="M397 595l-78.0039 -7c-11.333 0 -23.666 0.666992 -36.999 2c-4 0 -12.667 7.66699 -26 23s-21.666 24 -24.999 26c-3.33301 -1.33301 -12 -9.5 -26 -24.5s-22.167 -22.833 -24.5 -23.5s-7.66602 -1 -15.999 -1s-39.166 1.33301 -92.499 4
c21.333 28 41.5 51.167 60.5 69.5l59 55l42.5 38.5zM254.996 -13l-91.002 3.00195c-18.667 2.66699 -36 8.66699 -52 18c-33.333 23.333 -57 58.5 -71 105.5s-21 95.167 -21 144.5c0 8.66699 0.333008 17.334 1 26.001c5.33301 67.333 12.666 113.666 21.999 138.999
c16.667 38 49.667 64.667 99 80c26.667 8.66699 52.334 13 77.001 13s48.334 -3 71.001 -9c90.667 -15.333 136 -84.333 136 -207c0 -13.333 -0.666992 -27 -2 -41c-15.333 -4 -47.666 -7 -96.999 -9s-86.833 -3 -112.5 -3s-45.167 1.33301 -58.5 4v-31l1 -22
c0 -4.66699 0.166992 -7.83398 0.5 -9.50098s0.833008 -4.5 1.5 -8.5s1.33398 -7 2.00098 -9c11.333 -34.667 30.333 -56.334 57 -65.001c6 -1.33301 13.833 -2 23.5 -2s21.167 6 34.5 18s20 33 20 63v7h11l78 2c19.333 0 31.666 -1.33301 36.999 -4
c-6.66699 -94 -16 -146 -28 -156c-18 -24.667 -44.667 -39 -80 -43c-22 -2.66699 -41.667 -4 -59 -4zM252.994 329.002l54.002 -2c3.33301 0 5.66602 0.333008 6.99902 1s2 2.66699 2 6v7c0 30 -13 51.667 -39 65c-10.667 6.66699 -26.334 10 -47.001 10
c-42 0 -65.667 -21.667 -71 -65c-0.666992 -4 -1 -8.16699 -1 -12.5s1.5 -7 4.5 -8s18.333 -1.5 46 -1.5h44.5z" />
    <glyph glyph-name="edieresis" unicode="&#xeb;" horiz-adv-x="444" 
d="M201 629c-4 -6 -18 -9 -42 -9l-79 2h-14l-4 118v20l136 -3zM385 629c-4 -6 -18 -9 -42 -9l-79 2h-14l-4 118v20l136 -3zM255 -13l-90.999 3.00195c-18.667 2.66699 -36 8.66699 -52 18c-33.333 23.333 -57 58.5 -71 105.5s-21 95.167 -21 144.5
c0 8.66699 0.333008 17.334 1 26.001c5.33301 67.333 12.666 113.666 21.999 138.999c16.667 38 49.667 64.667 99 80c26.667 8.66699 52.334 13 77.001 13s48.334 -3 71.001 -9c90.667 -15.333 136 -84.333 136 -207c0 -13.333 -0.666992 -27 -2 -41
c-14.667 -4 -46.834 -7 -96.501 -9s-87.334 -3 -113.001 -3s-45.167 1.33301 -58.5 4v-31l1 -22c0 -4.66699 0.166992 -7.83398 0.5 -9.50098s0.833008 -4.5 1.5 -8.5s1.33398 -7 2.00098 -9c11.333 -34.667 30.333 -56.334 57 -65.001c6 -1.33301 13.833 -2 23.5 -2
s21.167 6 34.5 18s20 33 20 63v7h11l78 2c19.333 0 31.666 -1.33301 36.999 -4c-6.66699 -94 -16 -146 -28 -156c-18 -24.667 -44.667 -39 -80 -43c-22 -2.66699 -41.667 -4 -59 -4zM253.001 329.002l54.002 -2c3.33301 0 5.66602 0.333008 6.99902 1s2 2.66699 2 6v7
c0 30 -13 51.667 -39 65c-10.667 6.66699 -26.334 10 -47.001 10c-42 0 -65.667 -21.667 -71 -65c-0.666992 -4 -1 -8.16699 -1 -12.5s1.5 -7 4.5 -8s18.333 -1.5 46 -1.5h44.5z" />
    <glyph glyph-name="igrave" unicode="&#xec;" horiz-adv-x="207" 
d="M39 506l27.999 -1.00098c24.667 -1.33301 44.334 -2 59.001 -2h32h17v-3l-5 -330c0 -34 1.33301 -88.667 4 -164c-0.666992 -4.66699 -16 -7 -46 -7l-85 1h-10c2.66699 32.667 4 76.334 4 131.001l-3 232c0 62.667 1.66699 110 5 142v1zM179.999 590.999
c-16 -4 -38.667 -6 -68 -6s-51.333 0.666992 -66 2c-5.33301 8 -22.5 25 -51.5 51s-45.833 41.333 -50.5 46l69 70c18 -14 48.167 -42.667 90.5 -86s67.833 -69 76.5 -77z" />
    <glyph glyph-name="iacute" unicode="&#xed;" horiz-adv-x="207" 
d="M37 170l-4.99902 330v3h17h31.5c14.333 0 34.166 0.666992 59.499 2l28 1v-1c3.33301 -36 5 -84.667 5 -146l-3 -223c0 -54.667 1.33301 -100 4 -136h-10l-85 -1c-30 0 -45.333 2.33301 -46 7c2.66699 75.333 4 130 4 164zM161.001 587
c-14.667 -1.33301 -28.667 -2 -42 -2c-46 0 -76.667 2 -92 6c8.66699 8 34.167 33.667 76.5 77s72.5 72 90.5 86l69 -70c-4.66699 -4.66699 -15 -14 -31 -28c-43.333 -36.667 -67 -59.667 -71 -69z" />
    <glyph glyph-name="icircumflex" unicode="&#xee;" horiz-adv-x="207" 
d="M39 506l27.999 -1.00098c24.667 -1.33301 44.334 -2 59.001 -2h32h17v-3l-5 -330c0 -34 1.33301 -88.667 4 -164c-0.666992 -4.66699 -16 -7 -46 -7l-85 1h-10c2.66699 32.667 4 76.334 4 131.001l-3 232c0 62.667 1.66699 110 5 142v1zM270.999 594.999l-78.0039 -7
c-11.333 0 -23.666 0.666992 -36.999 2c-4 0 -12.667 7.66699 -26 23s-21.666 24 -24.999 26c-3.33301 -1.33301 -12 -9.5 -26 -24.5s-22.167 -22.833 -24.5 -23.5s-7.66602 -1 -15.999 -1s-39.166 1.33301 -92.499 4c21.333 28 41.5 51.167 60.5 69.5l59 55l42.5 38.5z" />
    <glyph glyph-name="idieresis" unicode="&#xef;" horiz-adv-x="207" 
d="M84 629c-4 -6 -18 -9 -42 -9l-79 2h-14l-4 118v20l136 -3zM268 629c-4 -6 -18 -9 -42 -9l-79 2h-14l-4 118v20l136 -3zM44 506l22.999 -1.00098c24.667 -1.33301 44.334 -2 59.001 -2h32h17v-3l-5 -330c0 -34 1.33301 -88.667 4 -164c-0.666992 -4.66699 -16 -7 -46 -7
l-85 1h-10c2.66699 32.667 4 76.334 4 131.001l-3 232c0 62.667 1.66699 110 5 142v1h5z" />
    <glyph glyph-name="eth" unicode="&#xf0;" horiz-adv-x="531" 
d="M227 311c-54.667 0 -82 -26 -82 -78c0 -8 0.666992 -16.333 2 -25l2 -16c7.33301 -24 22.333 -40.833 45 -50.5s41 -14.5 55 -14.5s24 0.333008 30 1c56 6.66699 84 31 84 73c0 30 -10 53.333 -30 70c-30 26.667 -65.333 40 -106 40zM501 388
c6 -37.333 9.00195 -67.999 9.00195 -91.999s-0.833008 -50.5 -2.5 -79.5s-7.83398 -62 -18.501 -99s-31 -67.833 -61 -92.5s-68.333 -40 -115 -46c-17.333 -2 -37.333 -3 -60 -3c-74 0 -133.667 22.667 -179 68c-30 28.667 -47.667 65.667 -53 111
c-1.33301 9.33301 -2 17 -2 23l-1 28v23c0 62 10.333 112 31 150c26 47.333 82 71 168 71c44.667 0 83.667 -8.33301 117 -25c-2 10.667 -3.66699 25.667 -5 45c-5.33301 74.667 -29 129.667 -71 165l-158 -104c-7.33301 10.667 -21.333 24 -42 40
s-31.334 24.667 -32.001 26c0.666992 0 41 29 121 87c-12.667 2.66699 -32 11.334 -58 26.001l-61 32c0 1.33301 9.33301 10.5 28 27.5s38.167 33 58.5 48s32.666 22.5 36.999 22.5s10.166 -1.5 17.499 -4.5s22.833 -11.667 46.5 -26s44.834 -24.5 63.501 -30.5
c68.667 48.667 104.667 74 108 76c11.333 -15.333 26 -28 44 -38s33 -21.333 45 -34l-42 -25.5c-20.667 -12.333 -38 -23.166 -52 -32.499c26.667 -22 46.334 -45.833 59.001 -71.5s23 -54.834 31 -87.501s13.5 -59.834 16.5 -81.501s7.16699 -53.834 12.5 -96.501z" />
    <glyph glyph-name="ntilde" unicode="&#xf1;" horiz-adv-x="450" 
d="M107 498l47.002 5.00391c6 0 10.333 -1.33301 13 -4c1.33301 -8.66699 2 -19 2 -31v-22c13.333 7.33301 21.666 12.333 24.999 15c31.333 23.333 66 35 104 35s70.333 -10.667 97 -32c12.667 -11.333 20 -44 22 -98c0.666992 -24.667 1 -52.334 1 -83.001l-3 -222
c0 -24.667 0.333008 -44.334 1 -59.001c-18 -2.66699 -59.667 -4 -125 -4c-1.33301 20 -2 57.167 -2 111.5s-0.333008 88.666 -1 102.999s-1.33398 25 -2.00098 32s-1.16699 12.5 -1.5 16.5s-1 9.33301 -2 16s-2 12 -3 16s-2.16699 8.33301 -3.5 13
c-7.33301 20.667 -25 31 -53 31c-12.667 0 -25.5 -4.83301 -38.5 -14.5s-20.167 -25.5 -21.5 -47.5c-0.666992 -8.66699 -1 -19.334 -1 -32.001l4 -166c0 -32 -1.33301 -55.333 -4 -70v-4c-6 -4 -19 -6 -39 -6l-55 1c-12 0 -22 -0.333008 -30 -1l-3 390
c0 62 0.666992 99 2 111c11.333 -1.33301 23 -2 35 -2zM196.002 658.004c-38 0 -56.9971 -15.998 -56.9971 -47.998c0 -6.66699 1 -13.334 3 -20.001v-1c-11.333 2.66699 -30.833 4 -58.5 4s-47.167 -0.333008 -58.5 -1c16.667 59.333 36.667 102.333 60 129
c23.333 23.333 50.333 35 81 35c31.333 0 57.666 -13.667 78.999 -41c9.33301 -12 16.666 -19.667 21.999 -23c8.66699 -7.33301 16.834 -11 24.501 -11s16.667 5.66699 27 17s18.833 27 25.5 47c0.666992 0 28 1 82 3l1 -1c0 -0.666992 0.333008 -1 1 -1v-1
c0.666992 -7.33301 1 -14.333 1 -21c0 -26.667 -7 -53.334 -21 -80.001c-20.667 -40 -52.334 -60 -95.001 -60c-14.667 0 -30 3.66699 -46 11s-28 20.666 -36 39.999c-8.66699 14.667 -20.334 22.334 -35.001 23.001z" />
    <glyph glyph-name="ograve" unicode="&#xf2;" horiz-adv-x="448" 
d="M315 591c-16 -4 -38.667 -6 -68 -6s-51.333 0.666992 -66 2c-5.33301 8 -22.5 25 -51.5 51s-45.833 41.333 -50.5 46l69 70c18 -14 48.167 -42.667 90.5 -86s67.833 -69 76.5 -77zM267 -10l-105.999 3.00098c-34 6 -62.667 20.667 -86 44
c-16.667 14.667 -29 34.5 -37 59.5s-12.167 50.167 -12.5 75.5s-0.5 52 -0.5 80s-0.166992 54 -0.5 78s0.333984 42.333 2.00098 55s3.5 22.667 5.5 30s4.5 15.166 7.5 23.499s4.83301 14.166 5.5 17.499c8.66699 19.333 27.167 33.833 55.5 43.5
s52.666 14.334 72.999 14.001s35.166 -0.5 44.499 -0.5l31 1c60 0 105 -14.667 135 -44c23.333 -15.333 36.666 -75.333 39.999 -180c0.666992 -8 1 -14 1 -18c-4.66699 -118.667 -12 -191.334 -22 -218.001c-3.33301 -8 -6.66602 -13.667 -9.99902 -17
c-10.667 -15.333 -26.5 -26.666 -47.5 -33.999s-36.833 -11.333 -47.5 -12s-21 -1 -31 -1zM221.001 132.001c40.667 0 64.667 14.668 72 44.001c4 35.333 6 62.666 6 81.999s-1 34 -3 44c-3.33301 24 -13 41.333 -29 52c-10 6 -20.667 9 -32 9s-22.833 -1.5 -34.5 -4.5
s-21.834 -9.83301 -30.501 -20.5c-4 -3.33301 -7 -11.5 -9 -24.5s-3.33301 -34.167 -4 -63.5l-2 -64c0 -18 6.83301 -31.5 20.5 -40.5s28.834 -13.5 45.501 -13.5z" />
    <glyph glyph-name="oacute" unicode="&#xf3;" horiz-adv-x="448" 
d="M278 587c-14.667 -1.33301 -28.665 -2 -41.998 -2c-46.667 0 -77.334 2 -92.001 6c8.66699 8 34.167 33.667 76.5 77s72.5 72 90.5 86l69 -70c-4.66699 -4.66699 -15.334 -14 -32.001 -28c-42.667 -36.667 -66 -59.667 -70 -69zM267.002 -10l-105.999 3.00098
c-34 6 -62.667 20.667 -86 44c-16.667 14.667 -29 34.5 -37 59.5s-12.167 50.167 -12.5 75.5s-0.5 52 -0.5 80s-0.166992 54 -0.5 78s0.333984 42.333 2.00098 55s3.5 22.667 5.5 30s4.5 15.166 7.5 23.499s4.83301 14.166 5.5 17.499
c8.66699 19.333 27.167 33.833 55.5 43.5s52.666 14.334 72.999 14.001s35.166 -0.5 44.499 -0.5l31 1c60 0 105 -14.667 135 -44c23.333 -15.333 36.666 -75.333 39.999 -180c0.666992 -8 1 -14 1 -18c-4.66699 -118.667 -12 -191.334 -22 -218.001
c-3.33301 -8 -6.66602 -13.667 -9.99902 -17c-10.667 -15.333 -26.5 -26.666 -47.5 -33.999s-36.833 -11.333 -47.5 -12s-21 -1 -31 -1zM221.003 132.001c40.667 0 64.667 14.668 72 44.001c4 35.333 6 62.666 6 81.999s-1 34 -3 44c-3.33301 24 -13 41.333 -29 52
c-10 6 -20.667 9 -32 9s-22.833 -1.5 -34.5 -4.5s-21.834 -9.83301 -30.501 -20.5c-4 -3.33301 -7 -11.5 -9 -24.5s-3.33301 -34.167 -4 -63.5l-2 -64c0 -18 6.83301 -31.5 20.5 -40.5s28.834 -13.5 45.501 -13.5z" />
    <glyph glyph-name="ocircumflex" unicode="&#xf4;" horiz-adv-x="448" 
d="M395 595l-78.0039 -7c-11.333 0 -23.666 0.666992 -36.999 2c-4 0 -12.667 7.66699 -26 23s-21.666 24 -24.999 26c-3.33301 -1.33301 -12 -9.5 -26 -24.5s-22.167 -22.833 -24.5 -23.5s-7.66602 -1 -15.999 -1s-39.166 1.33301 -92.499 4
c21.333 28 41.5 51.167 60.5 69.5l59 55l42.5 38.5zM266.996 -10l-105.999 3.00098c-34 6 -62.667 20.667 -86 44c-16.667 14.667 -29 34.5 -37 59.5s-12.167 50.167 -12.5 75.5s-0.5 52 -0.5 80s-0.166992 54 -0.5 78s0.333984 42.333 2.00098 55s3.5 22.667 5.5 30
s4.5 15.166 7.5 23.499s4.83301 14.166 5.5 17.499c8.66699 19.333 27.167 33.833 55.5 43.5s52.666 14.334 72.999 14.001s35.166 -0.5 44.499 -0.5l31 1c60 0 105 -14.667 135 -44c23.333 -15.333 36.666 -75.333 39.999 -180c0.666992 -8 1 -14 1 -18
c-4.66699 -118.667 -12 -191.334 -22 -218.001c-3.33301 -8 -6.66602 -13.667 -9.99902 -17c-10.667 -15.333 -26.5 -26.666 -47.5 -33.999s-36.833 -11.333 -47.5 -12s-21 -1 -31 -1zM220.997 132.001c40.667 0 64.667 14.668 72 44.001c4 35.333 6 62.666 6 81.999
s-1 34 -3 44c-3.33301 24 -13 41.333 -29 52c-10 6 -20.667 9 -32 9s-22.833 -1.5 -34.5 -4.5s-21.834 -9.83301 -30.501 -20.5c-4 -3.33301 -7 -11.5 -9 -24.5s-3.33301 -34.167 -4 -63.5l-2 -64c0 -18 6.83301 -31.5 20.5 -40.5s28.834 -13.5 45.501 -13.5z" />
    <glyph glyph-name="otilde" unicode="&#xf5;" horiz-adv-x="448" 
d="M194 658c-38 0 -56.9971 -15.998 -56.9971 -47.998c0 -6.66699 1 -13.334 3 -20.001v-1c-11.333 2.66699 -30.833 4 -58.5 4s-47.167 -0.333008 -58.5 -1c16.667 59.333 36.667 102.333 60 129c23.333 23.333 50.333 35 81 35c31.333 0 57.666 -13.667 78.999 -41
c9.33301 -12 16.666 -19.667 21.999 -23c8.66699 -7.33301 16.834 -11 24.501 -11s16.667 5.66699 27 17s18.833 27 25.5 47c0.666992 0 28 1 82 3l1 -1c0 -0.666992 0.333008 -1 1 -1v-1c0.666992 -7.33301 1 -14.333 1 -21c0 -26.667 -7 -53.334 -21 -80.001
c-20.667 -40 -52.334 -60 -95.001 -60c-14.667 0 -30 3.66699 -46 11s-28 20.666 -36 39.999c-8.66699 14.667 -20.334 22.334 -35.001 23.001zM267.003 -9.99805l-105.999 3.00098c-34 6 -62.667 20.667 -86 44c-16.667 14.667 -29 34.5 -37 59.5
s-12.167 50.167 -12.5 75.5s-0.5 52 -0.5 80s-0.166992 54 -0.5 78s0.333984 42.333 2.00098 55s3.5 22.667 5.5 30s4.5 15.166 7.5 23.499s4.83301 14.166 5.5 17.499c8.66699 19.333 27.167 33.833 55.5 43.5s52.666 14.334 72.999 14.001s35.166 -0.5 44.499 -0.5l31 1
c60 0 105 -14.667 135 -44c23.333 -15.333 36.666 -75.333 39.999 -180c0.666992 -8 1 -14 1 -18c-4.66699 -118.667 -12 -191.334 -22 -218.001c-3.33301 -8 -6.66602 -13.667 -9.99902 -17c-10.667 -15.333 -26.5 -26.666 -47.5 -33.999s-36.833 -11.333 -47.5 -12
s-21 -1 -31 -1zM221.004 132.003c40.667 0 64.667 14.668 72 44.001c4 35.333 6 62.666 6 81.999s-1 34 -3 44c-3.33301 24 -13 41.333 -29 52c-10 6 -20.667 9 -32 9s-22.833 -1.5 -34.5 -4.5s-21.834 -9.83301 -30.501 -20.5c-4 -3.33301 -7 -11.5 -9 -24.5
s-3.33301 -34.167 -4 -63.5l-2 -64c0 -18 6.83301 -31.5 20.5 -40.5s28.834 -13.5 45.501 -13.5z" />
    <glyph glyph-name="odieresis" unicode="&#xf6;" horiz-adv-x="448" 
d="M197 629c-4 -6 -18 -9 -42 -9l-79 2h-14l-4 118v20l136 -3zM381 629c-4 -6 -18 -9 -42 -9l-79 2h-14l-4 118v20l136 -3zM267 -10l-105.999 3.00098c-34 6 -62.667 20.667 -86 44c-16.667 14.667 -29 34.5 -37 59.5s-12.167 50.167 -12.5 75.5s-0.5 52 -0.5 80
s-0.166992 54 -0.5 78s0.333984 42.333 2.00098 55s3.5 22.667 5.5 30s4.5 15.166 7.5 23.499s4.83301 14.166 5.5 17.499c8.66699 19.333 27.167 33.833 55.5 43.5s52.666 14.334 72.999 14.001s35.166 -0.5 44.499 -0.5l31 1c60 0 105 -14.667 135 -44
c23.333 -15.333 36.666 -75.333 39.999 -180c0.666992 -8 1 -14 1 -18c-4.66699 -118.667 -12 -191.334 -22 -218.001c-3.33301 -8 -6.66602 -13.667 -9.99902 -17c-10.667 -15.333 -26.5 -26.666 -47.5 -33.999s-36.833 -11.333 -47.5 -12s-21 -1 -31 -1zM221.001 132.001
c40.667 0 64.667 14.668 72 44.001c4 35.333 6 62.666 6 81.999s-1 34 -3 44c-3.33301 24 -13 41.333 -29 52c-10 6 -20.667 9 -32 9s-22.833 -1.5 -34.5 -4.5s-21.834 -9.83301 -30.501 -20.5c-4 -3.33301 -7 -11.5 -9 -24.5s-3.33301 -34.167 -4 -63.5l-2 -64
c0 -18 6.83301 -31.5 20.5 -40.5s28.834 -13.5 45.501 -13.5z" />
    <glyph glyph-name="divide" unicode="&#xf7;" horiz-adv-x="466" 
d="M444 166l-422 5l2 116h419l-2 -84c0 -22.667 1.33301 -35 4 -37h-1zM168 1c-2 11.333 -3 29 -3 53l2 63c12.667 5.33301 34.5 8 65.5 8s50.833 -2 59.5 -6l-2 -25c-2.66699 -51.333 -4 -82 -4 -92v-2h-2l-113 1h-3zM168 337c-2 11.333 -3 29 -3 53l2 63
c12.667 5.33301 34.5 8 65.5 8s50.833 -2 59.5 -6l-2 -25c-2.66699 -51.333 -4 -82 -4 -92v-2h-2l-113 1h-3z" />
    <glyph glyph-name="oslash" unicode="&#xf8;" horiz-adv-x="351" 
d="M239 502l39 0.996094c17.333 0 26.666 -1.66699 27.999 -5c0 -5.33301 -2.33301 -13.5 -7 -24.5s-6.33398 -19.5 -5.00098 -25.5c21.333 -25.333 32 -64 32 -116c0 -10.667 -0.333008 -22 -1 -34c0 -103.333 -3.66699 -175.333 -11 -216
c-6 -25.333 -18.333 -46.166 -37 -62.499s-40.667 -25.833 -66 -28.5c-8.66699 -0.666992 -22 -1.16699 -40 -1.5s-31 -1.16602 -39 -2.49902h-1c0 -0.666992 -3.33301 -4.33398 -10 -11.001c-7.33301 -1.33301 -38.333 -2 -93 -2c-1.33301 2.66699 4.66699 23.667 18 63
l1 1l-1 2c-14 56.667 -21 120.334 -21 191.001c0 28.667 0.666992 52.334 2 71.001s2.33301 35.334 3 50.001c0.666992 48 15.334 86.333 44.001 115c20.667 15.333 50.334 23 89.001 23c12.667 0 26 -0.666992 40 -2c0.666992 0.666992 1.16699 3.5 1.5 8.5
s1.83301 7.5 4.5 7.5h1c6 -1.33301 15.667 -2 29 -2zM105 187.996l66 200.999v1h-5c-10 -1.33301 -19.667 -5.66602 -29 -12.999s-16 -15.666 -20 -24.999c-2 -12 -3.66699 -28.833 -5 -50.5s-2.33301 -34.834 -3 -39.501l-3 -17c-1.33301 -20.667 -2 -35 -2 -43
s0.333008 -12.667 1 -14zM239 190.995l-5 77.001v2c-0.666992 -0.666992 -23 -63.334 -67 -188.001c0.666992 0 1 -0.333008 1 -1c35.333 7.33301 56.333 21 63 41c5.33301 22 8 45 8 69z" />
    <glyph glyph-name="ugrave" unicode="&#xf9;" horiz-adv-x="450" 
d="M314 591c-16 -4 -38.667 -6 -68 -6s-51.333 0.666992 -66 2c-5.33301 8 -22.5 25 -51.5 51s-45.833 41.333 -50.5 46l69 70c18 -14 48.167 -42.667 90.5 -86s67.833 -69 76.5 -77zM343 2l-47.001 -5.00098c-6 0 -10.333 1.33301 -13 4c-1.33301 8.66699 -2 19 -2 31v22
c-13.333 -7.33301 -21.666 -12.333 -24.999 -15c-31.333 -23.333 -66 -35 -104 -35s-70.333 10.667 -97 32c-12.667 10.667 -20.334 43.334 -23.001 98.001c-0.666992 25.333 -1 53.333 -1 84l4 227c0 22 -0.333008 39.667 -1 53c18 2.66699 59.667 4 125 4
c1.33301 -20 2 -57.167 2 -111.5s0.333008 -88.666 1 -102.999s1.33398 -25 2.00098 -32s1.16699 -12.5 1.5 -16.5s1 -9.33301 2 -16s2 -12 3 -16s2.16699 -8.33301 3.5 -13c7.33301 -20.667 25 -31 53 -31c12.667 0 25.5 4.83301 38.5 14.5s20.167 25.5 21.5 47.5
c0.666992 7.33301 1 16.666 1 27.999l-5 171c0 32 1.66699 55 5 69v4c6 4 19 6 39 6l55 -1c12 0 22 0.333008 30 1l3 -390c0 -62 -0.666992 -99 -2 -111c-11.333 1.33301 -23 2 -35 2z" />
    <glyph glyph-name="uacute" unicode="&#xfa;" horiz-adv-x="449" 
d="M277 587c-14.667 -1.33301 -28.666 -2 -41.999 -2c-46.667 0 -77.334 2 -92.001 6c8.66699 8 34.167 33.667 76.5 77s72.5 72 90.5 86l69 -70c-4.66699 -4.66699 -15 -14 -31 -28c-43.333 -36.667 -67 -59.667 -71 -69zM343.001 2l-47.001 -5.00098
c-6 0 -10.333 1.33301 -13 4c-1.33301 8.66699 -2 19 -2 31v22c-13.333 -7.33301 -21.666 -12.333 -24.999 -15c-31.333 -23.333 -66 -35 -104 -35s-70.333 10.667 -97 32c-12.667 10.667 -20.334 43.334 -23.001 98.001c-0.666992 25.333 -1 53.333 -1 84l4 227
c0 22 -0.333008 39.667 -1 53c18 2.66699 59.667 4 125 4c1.33301 -20 2 -57.167 2 -111.5s0.333008 -88.666 1 -102.999s1.33398 -25 2.00098 -32s1.16699 -12.5 1.5 -16.5s1 -9.33301 2 -16s2 -12 3 -16s2.16699 -8.33301 3.5 -13c7.33301 -20.667 25 -31 53 -31
c12.667 0 25.5 4.83301 38.5 14.5s20.167 25.5 21.5 47.5c0.666992 7.33301 1 16.666 1 27.999l-5 171c0 32 1.66699 55 5 69v4c6 4 19 6 39 6l55 -1c12 0 22 0.333008 30 1l3 -390c0 -62 -0.666992 -99 -2 -111c-11.333 1.33301 -23 2 -35 2z" />
    <glyph glyph-name="ucircumflex" unicode="&#xfb;" horiz-adv-x="450" 
d="M394 595l-78.0039 -7c-11.333 0 -23.666 0.666992 -36.999 2c-4 0 -12.667 7.66699 -26 23s-21.666 24 -24.999 26c-3.33301 -1.33301 -12 -9.5 -26 -24.5s-22.167 -22.833 -24.5 -23.5s-7.66602 -1 -15.999 -1s-39.166 1.33301 -92.499 4
c21.333 28 41.5 51.167 60.5 69.5l59 55l42.5 38.5zM342.996 2l-47.001 -5.00098c-6 0 -10.333 1.33301 -13 4c-1.33301 8.66699 -2 19 -2 31v22c-13.333 -7.33301 -21.666 -12.333 -24.999 -15c-31.333 -23.333 -66 -35 -104 -35s-70.333 10.667 -97 32
c-12.667 10.667 -20.334 43.334 -23.001 98.001c-0.666992 25.333 -1 53.333 -1 84l4 227c0 22 -0.333008 39.667 -1 53c18 2.66699 59.667 4 125 4c1.33301 -20 2 -57.167 2 -111.5s0.333008 -88.666 1 -102.999s1.33398 -25 2.00098 -32s1.16699 -12.5 1.5 -16.5
s1 -9.33301 2 -16s2 -12 3 -16s2.16699 -8.33301 3.5 -13c7.33301 -20.667 25 -31 53 -31c12.667 0 25.5 4.83301 38.5 14.5s20.167 25.5 21.5 47.5c0.666992 7.33301 1 16.666 1 27.999l-5 171c0 32 1.66699 55 5 69v4c6 4 19 6 39 6l55 -1c12 0 22 0.333008 30 1l3 -390
c0 -62 -0.666992 -99 -2 -111c-11.333 1.33301 -23 2 -35 2z" />
    <glyph glyph-name="udieresis" unicode="&#xfc;" horiz-adv-x="449" 
d="M196 629c-4 -6 -18 -9 -42 -9l-79 2h-14l-4 118v20l136 -3zM380 629c-4 -6 -18 -9 -42 -9l-79 2h-14l-4 118v20l136 -3zM343 2l-47.001 -5.00098c-6 0 -10.333 1.33301 -13 4c-1.33301 8.66699 -2 19 -2 31v22c-13.333 -7.33301 -21.666 -12.333 -24.999 -15
c-31.333 -23.333 -66 -35 -104 -35s-70.333 10.667 -97 32c-12.667 10.667 -20.334 43.334 -23.001 98.001c-0.666992 25.333 -1 53.333 -1 84l4 227c0 22 -0.333008 39.667 -1 53c18 2.66699 59.667 4 125 4c1.33301 -20 2 -57.167 2 -111.5s0.333008 -88.666 1 -102.999
s1.33398 -25 2.00098 -32s1.16699 -12.5 1.5 -16.5s1 -9.33301 2 -16s2 -12 3 -16s2.16699 -8.33301 3.5 -13c7.33301 -20.667 25 -31 53 -31c12.667 0 25.5 4.83301 38.5 14.5s20.167 25.5 21.5 47.5c0.666992 7.33301 1 16.666 1 27.999l-5 171c0 32 1.66699 55 5 69v4
c6 4 19 6 39 6l55 -1c12 0 22 0.333008 30 1l3 -390c0 -62 -0.666992 -99 -2 -111c-11.333 1.33301 -23 2 -35 2z" />
    <glyph glyph-name="yacute" unicode="&#xfd;" horiz-adv-x="449" 
d="M260 587c-14.667 -1.33301 -28.666 -2 -41.999 -2c-46 0 -76.667 2 -92 6c8.66699 8 34.167 33.667 76.5 77s72.5 72 90.5 86l69 -70c-4.66699 -4.66699 -15.334 -14 -32.001 -28c-42.667 -36.667 -66 -59.667 -70 -69zM295.001 499l101.998 2.00195
c19.333 0 34 -0.666992 44 -2c-24 -90 -43.5 -170 -58.5 -240l-30 -138c-5 -22 -12.5 -47.833 -22.5 -77.5s-20.333 -54.5 -31 -74.5s-25.5 -40.5 -44.5 -61.5s-39.833 -37.5 -62.5 -49.5c-46.667 -24 -101.667 -36 -165 -36c-10.667 0 -21.667 0.333008 -33 1
c-8 24 -12 47.167 -12 69.5s2 43.5 6 63.5l66 -2c25.333 0 41.333 3.33301 48 10c12 11.333 18 26 18 44c0 28 -18.333 114.667 -55 260l-38 143.5c-14.667 53.667 -22.667 83.167 -24 88.5c10.667 -1.33301 25.334 -2 44.001 -2l63 1c18.667 0 32.334 -0.666992 41.001 -2
l15.5 -83.5l19.5 -105.5c16 -79.333 30.333 -136.333 43 -171c9.33301 25.333 19.833 85.166 31.5 179.499s23.167 155.166 34.5 182.499z" />
    <glyph glyph-name="thorn" unicode="&#xfe;" horiz-adv-x="470" 
d="M130 -173l-88.998 1h-11c4 92.667 6 245.167 6 457.5s1.66699 359.166 5 440.499l136 -3c0 -25.333 -0.666992 -116 -2 -272c6 14.667 15.167 25.5 27.5 32.5s23.666 11 33.999 12s25.833 1.5 46.5 1.5c47.333 -1.33301 87.166 -23.666 119.499 -66.999
s48.5 -98 48.5 -164c0 -92 -21.333 -166 -64 -222c-23.333 -30.667 -51 -46 -83 -46c-22 0 -44.833 5 -68.5 15s-43.5 23 -59.5 39c0 -116 1 -188.667 3 -218c-0.666992 -4.66699 -17 -7 -49 -7zM229.002 363c-26 0 -41.166 -5 -45.499 -15s-6.5 -28 -6.5 -54v-56
c0 -11.333 0.166992 -21 0.5 -29s1.5 -17.667 3.5 -29s5 -19.333 9 -24c11.333 -12 29.166 -18 53.499 -18s44.5 10.333 60.5 31s24 44.167 24 70.5s-2 47.333 -6 63s-14 29.667 -30 42s-37 18.5 -63 18.5z" />
    <glyph glyph-name="ydieresis" unicode="&#xff;" horiz-adv-x="449" 
d="M205 629c-4 -6 -18 -9 -42 -9l-79 2h-14l-4 118v20l136 -3zM389 629c-4 -6 -18 -9 -42 -9l-79 2h-14l-4 118v20l136 -3zM295 499l101.998 2.00195c19.333 0 34 -0.666992 44 -2c-24 -90 -43.5 -170 -58.5 -240l-30 -138c-5 -22 -12.5 -47.833 -22.5 -77.5
s-20.333 -54.5 -31 -74.5s-25.5 -40.5 -44.5 -61.5s-39.833 -37.5 -62.5 -49.5c-46.667 -24 -101.667 -36 -165 -36c-10.667 0 -21.667 0.333008 -33 1c-8 24 -12 47.167 -12 69.5s2 43.5 6 63.5l66 -2c25.333 0 41.333 3.33301 48 10c12 11.333 18 26 18 44
c0 28 -18.333 114.667 -55 260l-38 143.5c-14.667 53.667 -22.667 83.167 -24 88.5c10.667 -1.33301 25.334 -2 44.001 -2l63 1c18.667 0 32.334 -0.666992 41.001 -2l15.5 -83.5l19.5 -105.5c16 -79.333 30.333 -136.333 43 -171
c9.33301 25.333 19.833 85.166 31.5 179.499s23.167 155.166 34.5 182.499z" />
    <glyph glyph-name="ij" unicode="&#x133;" horiz-adv-x="500" 
d="M39 506l27.999 -1.00098c24.667 -1.33301 44.334 -2 59.001 -2h32h17v-3l-5 -330c0 -34 1.33301 -88.667 4 -164c-0.666992 -4.66699 -16 -7 -46 -7l-85 1h-10c2.66699 32.667 4 76.334 4 131.001l-3 232c0 62.667 1.66699 110 5 142v1zM173.999 589.999
c-4 -6 -18 -9 -42 -9l-79 2h-14l-4 118v20l136 -3zM464.999 262.999l1.00098 -149.001c0 -76 -5.33301 -147 -16 -213c-25.333 -59.333 -102 -89 -230 -89c-14 0 -28.667 0.333008 -44 1c-4 12.667 -6 30.334 -6 53.001s2 50 6 82c7.33301 -0.666992 18.333 -1 33 -1
s35.667 2.66699 63 8s46.666 16.333 57.999 33c0.666992 31.333 1 92 1 182s1 154.333 3 193v134c6 -0.666992 13.667 -1 23 -1l92 5c5.33301 0 10 -0.333008 14 -1c2 -14.667 3 -38 3 -70l-2 -128c0 -18.667 0.333008 -31.667 1 -39zM464 589.998c-4 -6 -17.333 -9 -40 -9
l-78 2h-14l-4 118v20l133 -3z" />
    <glyph glyph-name="OE" unicode="&#x152;" horiz-adv-x="830" 
d="M556 142l256.004 -4.99902v-2c1.33301 -16.667 2 -37.5 2 -62.5s-3.66699 -48.167 -11 -69.5h-1c-18 -0.666992 -51 -1 -99 -1l-109 1c-80.667 0 -133.667 -1.66699 -159 -5c-22 -0.666992 -51 -2.66699 -87 -6c-40.667 -4 -69.334 -6 -86.001 -6
s-42.334 1.33301 -77.001 4c-70 7.33301 -118 47 -144 119c-8.66699 38.667 -13.334 70.5 -14.001 95.5s-1 49 -1 72s1.66699 61.667 5 116s5.33301 91.5 6 111.5c0.666992 38 10.167 72.833 28.5 104.5s43.5 55.834 75.5 72.501c22 12.667 49.667 19 83 19l79 -3
c4 0 23.333 -0.333008 58 -1s68 -1 100 -1c62 0 145.667 0.666992 251 2l99 1c0.666992 -16.667 1 -38.5 1 -65.5s-1.33301 -54.167 -4 -81.5c-26.667 -4.66699 -64.667 -7 -114 -7h-41c-69.333 0 -106.333 -2.33301 -111 -7v-10l-3 -63c0 -18 2.66699 -32 8 -42
c12 -1.33301 31.833 -2 59.5 -2s48.5 -1 62.5 -3c0 -0.666992 0.5 -1.33398 1.5 -2.00098s1.5 -11.334 1.5 -32.001l-2 -109v-1h-1c-4.66699 0.666992 -15.334 1 -32.001 1l-84 -1h-1c-5.33301 -4 -8 -24 -8 -60s3.33301 -59.667 10 -71h2zM159.004 361.001
l-0.999023 -84.999c0 -67.333 14 -114.333 42 -141c10.667 -8.66699 19.5 -13 26.5 -13s14.667 0.666992 23 2s19.166 7 32.499 17c16 14 27.167 30 33.5 48s11.833 41 16.5 69c7.33301 68 11 115.333 11 142c0 48 -3 80.667 -9 98
c-1.33301 1.33301 -2.5 3.66602 -3.5 6.99902s-2.16699 6 -3.5 8c-17.333 34 -46.333 51 -87 51c-18.667 0 -34.667 -4.33301 -48 -13c-17.333 -14 -28.333 -36.333 -33 -67c-1.33301 -12 -2 -36 -2 -72c1.33301 -13.333 2 -30.333 2 -51z" />
    <glyph glyph-name="oe" unicode="&#x153;" horiz-adv-x="703" 
d="M566 190l78.0029 2.00098c19.333 0 31.666 -1.33301 36.999 -4c-6.66699 -94 -16 -146 -28 -156c-8.66699 -12 -25.834 -21.167 -51.501 -27.5s-47.667 -9.5 -66 -9.5s-35.833 1.33301 -52.5 4l-14 2c-42.667 6.66699 -75.334 24.334 -98.001 53.001
c-5.33301 6.66699 -9.5 12.167 -12.5 16.5s-4.83301 6.5 -5.5 6.5c-15.333 -38.667 -44.333 -62 -87 -70c-31.333 -6 -56.333 -9 -75 -9h-31c-32 0 -59.667 15.333 -83 46c-42.667 56 -64 130 -64 222c0 66 16.167 121 48.5 165s72.166 66.667 119.499 68l56 1
c15.333 0 33.5 -1.83301 54.5 -5.5s36.333 -9.66699 46 -18s16.834 -18.833 21.501 -31.5c14 16 31.333 28.333 52 37s37.834 13.667 51.501 15s32.834 2 57.501 2h44c30.667 -5.33301 55.667 -20.5 75 -45.5s31.666 -51.667 36.999 -80s8 -52 8 -71
s-0.333008 -34.167 -1 -45.5c-14.667 -4 -46.834 -7 -96.501 -9s-87.334 -3 -113.001 -3s-45.167 1.33301 -58.5 4v-31l1 -22c0 -4.66699 0.166992 -7.83398 0.5 -9.50098s0.833008 -4.5 1.5 -8.5s1.33398 -7 2.00098 -9c11.333 -34.667 30.333 -56.334 57 -65.001
c6 -1.33301 13.833 -2 23.5 -2s21.167 6 34.5 18s20 33 20 63v7h11zM536.003 404.001c-10.667 6.66699 -26.3359 10 -47.0029 10c-42 0 -65.667 -21.667 -71 -65c-2 -12 -1.16699 -18.667 2.5 -20s19.334 -2 47.001 -2h53c7.66699 0 17.834 -0.333008 30.501 -1
s19.834 -0.666992 21.501 0s2.5 2.66699 2.5 6v7c0 30 -13 51.667 -39 65zM284.001 254.001l-1.00391 45.001c0 45.333 -4.83301 74.833 -14.5 88.5s-28.5 20.5 -56.5 20.5c-47.333 0 -75.333 -19.667 -84 -59c-7.33301 -24.667 -11 -42.5 -11 -53.5v-32.5
c0 -10.667 0.166992 -21.334 0.5 -32.001s1.83301 -25.5 4.5 -44.5s6.33398 -34.167 11.001 -45.5s12.334 -21.666 23.001 -30.999c10.667 -10 22.834 -15 36.501 -15s24.5 0.833008 32.5 2.5s15 5.5 21 11.5s11.333 12.167 16 18.5s8.33398 14.666 11.001 24.999
s4.83398 19.5 6.50098 27.5s2.66699 18.5 3 31.5s0.666016 22.167 0.999023 27.5s0.5 10.333 0.5 15z" />
    <glyph glyph-name="Scaron" unicode="&#x160;" horiz-adv-x="485" 
d="M87 911c53.333 2.66699 84.1699 4 92.5029 4s13.666 -0.333008 15.999 -1s10.5 -8.5 24.5 -23.5s22.667 -23.167 26 -24.5c3.33301 2 11.666 10.667 24.999 26s22 23 26 23c13.333 1.33301 24.666 2 33.999 2s19.666 -0.5 30.999 -1.5s22.333 -2.33301 33 -4
s16.334 -2.16699 17.001 -1.5l-163 -162l-42.5 38.5l-45.5 41.5c-28 27.333 -52.667 55 -74 83zM-34.9961 206c4 2.66699 18.3311 3.99609 42.998 3.99609l110 -3c1.33301 -20.667 9.83301 -36.667 25.5 -48s29.667 -17 42 -17s23.166 2 32.499 6
c24 8.66699 36 24.834 36 48.501s-5.33301 40.834 -16 51.501l-13 12.5c-4 3.66699 -9.66699 7.16699 -17 10.5s-13.166 5.83301 -17.499 7.5s-11.166 3.66699 -20.499 6s-21 4.83301 -35 7.5s-22.333 4.33398 -25 5.00098c-23.333 4.66699 -46 16 -68 34
c-44.667 42.667 -67 94 -67 154c0 48.667 17.333 94.334 52 137.001c22.667 27.333 49.667 47.666 81 60.999c28.667 10.667 63 16 103 16s79.667 -9 119 -27c34 -17.333 59.333 -42.666 76 -75.999c10 -22 15 -43.5 15 -64.5s-1.66699 -40.167 -5 -57.5h-1
c-29.333 -4.66699 -56.666 -7 -81.999 -7s-48 2.66699 -68 8c1.33301 4.66699 2 9.33398 2 14.001c0 16 -7.5 29.333 -22.5 40s-28 16 -39 16s-19.5 -0.666992 -25.5 -2c-30.667 -7.33301 -44 -30.666 -40 -69.999c8 -23.333 29.667 -37.666 65 -42.999
c35.333 -4 68 -15.333 98 -34s55 -42.334 75 -71.001c25.333 -32.667 38 -72.334 38 -119.001c0 -34.667 -7.33301 -66.667 -22 -96c-15.333 -39.333 -40 -68.333 -74 -87s-71.5 -28 -112.5 -28s-81.5 8.33301 -121.5 25c-36 16 -65.167 39.167 -87.5 69.5
s-33.5 63.166 -33.5 98.499v12v6z" />
    <glyph glyph-name="scaron" unicode="&#x161;" horiz-adv-x="450" 
d="M57 713l78.0039 7c11.333 0 23.666 -0.666992 36.999 -2c4 0 12.667 -7.66699 26 -23s21.666 -24 24.999 -26c3.33301 1.33301 12 9.5 26 24.5s22.167 22.833 24.5 23.5s7.66602 1 15.999 1s39.166 -1.33301 92.499 -4c-21.333 -28 -41.5 -51.167 -60.5 -69.5l-59 -55
l-42.5 -38.5zM38.0039 160l84.001 -2.00098c0.666992 -19.333 11.667 -34.666 33 -45.999c13.333 -6.66699 25 -10 35 -10c38.667 0 57.667 16.667 57 50c0.666992 2.66699 1 7.5 1 14.5s-4.5 14.667 -13.5 23s-20.5 13.833 -34.5 16.5
c-54 10.667 -90.667 20.334 -110 29.001c-36 12 -62.667 31.333 -80 58s-26 53.334 -26 80.001c0 30 9.5 58.167 28.5 84.5s42.333 43.333 70 51s62.5 11.5 104.5 11.5c47.333 0 89 -4.33301 125 -13c58 -24.667 87 -78.334 87 -161.001c-26 -4 -51 -6 -75 -6
s-46.667 2 -68 6c0.666992 3.33301 1 6.66602 1 9.99902c0 12.667 -6.83301 24.5 -20.5 35.5s-28.5 16.5 -44.5 16.5h-5c-19.333 -3.33301 -33 -12 -41 -26c-3.33301 -6.66699 -5 -13.667 -5 -21s1.66699 -15 5 -23c8 -14.667 22 -25.667 42 -33
c95.333 -14 154.333 -35.667 177 -65c17.333 -28.667 26 -57.167 26 -85.5s-4.33301 -55.166 -13 -80.499c-28.667 -60 -86.334 -90 -173.001 -90h-8.5h-13.5c-60 0 -109.833 14.667 -149.5 44s-59.5 70.666 -59.5 123.999v5c18 2 39.333 3 64 3z" />
    <glyph glyph-name="Ydieresis" unicode="&#x178;" horiz-adv-x="434" 
d="M16 688l98.999 6c22.667 0 40.334 -2.66699 53.001 -8c18 -71.333 37.667 -129 59 -173c19.333 34.667 45.666 91.667 78.999 171c0.666992 0 10.667 1.5 30 4.5s39.833 4.5 61.5 4.5s38.5 -1.33301 50.5 -4v-1c-26 -82.667 -75 -199.667 -147 -351
s-120.667 -264 -146 -338c-6 0.666992 -14.667 1 -26 1l-98 -2h-18h-2c11.333 36 54.666 150.667 129.999 344v2c-9.33301 38.667 -30.166 96.167 -62.499 172.5s-53.166 133.5 -62.499 171.5zM89.999 759c-2 10.667 -3 26 -3 46l2 55c14 4.66699 33.5 7 58.5 7
s41.833 -2 50.5 -6l-2 -22c-2.66699 -44 -4 -70.333 -4 -79v-2h-2l-97 1h-3zM263.999 759c-2 10.667 -3 26 -3 46l2 55c14 4.66699 33.5 7 58.5 7s41.833 -2 50.5 -6l-2 -22c-2.66699 -44 -4 -70.333 -4 -79v-2h-2l-97 1h-3z" />
    <glyph glyph-name="Zcaron" unicode="&#x17d;" horiz-adv-x="474" 
d="M83 911c53.333 2.66699 84.1699 4 92.5029 4s13.666 -0.333008 15.999 -1s10.5 -8.5 24.5 -23.5s22.667 -23.167 26 -24.5c3.33301 2 11.666 10.667 24.999 26s22 23 26 23c13.333 1.33301 24.666 2 33.999 2s19.666 -0.5 30.999 -1.5s22.333 -2.33301 33 -4
s16.334 -2.16699 17.001 -1.5l-163 -162l-42.5 38.5l-45.5 41.5c-28 27.333 -52.667 55 -74 83zM10.0039 74l2.00098 50.002c0 10.667 -0.666992 22.334 -2 35.001c25.333 57.333 62.666 121.333 111.999 192l72.5 100.5l60.5 83.5c-64.667 8.66699 -145 13 -241 13
c-5.33301 6 -8 27 -8 63s-2 60.667 -6 74v1c0 1.33301 -0.666992 2.66602 -2 3.99902c48.667 5.33301 111 8 187 8l251 -4c2 -6 3 -19.667 3 -41l-3 -118v-1c-29.333 -50 -75 -119.333 -137 -208s-102 -147 -120 -175l-1 -1c51.333 6.66699 106.333 10 165 10
c32.667 0.666992 61.667 1.66699 87 3v-3c2 -14.667 3 -34.834 3 -60.501s-1.66699 -58.834 -5 -99.501v-2c-74.667 4 -146 6 -214 6s-133 -1.66699 -195 -5c-6 18 -9 43 -9 75z" />
    <glyph glyph-name="zcaron" unicode="&#x17e;" horiz-adv-x="456" 
d="M85 713l78.0039 7c11.333 0 23.666 -0.666992 36.999 -2c4 0 12.667 -7.66699 26 -23s21.666 -24 24.999 -26c3.33301 1.33301 12 9.5 26 24.5s22.167 22.833 24.5 23.5s7.66602 1 15.999 1s39.166 -1.33301 92.499 -4c-21.333 -28 -41.5 -51.167 -60.5 -69.5l-59 -55
l-42.5 -38.5zM425.004 497l-2 -93.001c0 -14 0.666992 -27.667 2 -41c-20.667 -22 -56.834 -57.833 -108.501 -107.5s-89.5 -88.167 -113.5 -115.5c11.333 0.666992 30.666 1 57.999 1h71c42 0 71.333 1.66699 88 5l2 -139c-164 -4 -299.667 -6 -407 -6
c0.666992 12.667 1 24.667 1 36l-3 80v12c22.667 29.333 61.334 69.5 116.001 120.5s92.334 88.833 113.001 113.5c-103.333 -4.66699 -177.666 -10 -222.999 -16c-1.33301 14.667 -2 30.334 -2 47.001l2 84v19l278 1c4 -1.33301 12.667 -2 26 -2l83 3
c11.333 0 17.666 -0.666992 18.999 -2z" />
    <glyph glyph-name="florin" unicode="&#x192;" horiz-adv-x="478" 
d="M151 319l-9 0.000976562h-13l-55 -1c-23.333 0 -41.666 2.66699 -54.999 8c-1.33301 1.33301 -2 6 -2 14l2 40c0.666992 21.333 1 45.333 1 72h18c22.667 0 59 0.666992 109 2c0.666992 17.333 1 42 1 74s-2 75.333 -6 130c7.33301 6 93.666 9 258.999 9h51l8 -155
c-4 -1.33301 -33 -3.5 -87 -6.5s-86.667 -4.5 -98 -4.5c-2 -3.33301 -3.66699 -9.83301 -5 -19.5s-1 -17.5 1 -23.5l59 -2c14 0 38.333 0.333008 73 1c-2.66699 -7.33301 -3.66699 -14.333 -3 -21c2.66699 -28.667 4 -52.667 4 -72v-40h-1c-4 1.33301 -16.167 2 -36.5 2
s-51.833 -1 -94.5 -3c0.666992 -35.333 1 -63 1 -83s-2.66699 -101.667 -8 -245v-1c-17.333 4 -56.333 6 -117 6c-1.33301 8.66699 -2 43.667 -2 105s1.66699 132.666 5 213.999z" />
    <glyph glyph-name="circumflex" unicode="&#x2c6;" horiz-adv-x="347" 
d="M336 529l-78.0039 -7c-11.333 0 -23.666 0.666992 -36.999 2c-4 0 -12.667 7.66699 -26 23s-21.666 24 -24.999 26c-3.33301 -1.33301 -12 -9.5 -26 -24.5s-22.167 -22.833 -24.5 -23.5s-7.66602 -1 -15.999 -1s-39.166 1.33301 -92.499 4
c21.333 28 41.5 51.167 60.5 69.5l59 55l42.5 38.5z" />
    <glyph glyph-name="tilde" unicode="&#x2dc;" horiz-adv-x="449" 
d="M134 498c-8.66699 2 -27.501 3.00293 -56.501 3.00293s-49.167 -0.333008 -60.5 -1c4.66699 18 13.167 40.667 25.5 68s23.833 47.666 34.5 60.999c23.333 23.333 51 35 83 35c19.333 0 34.666 -3.83301 45.999 -11.5s21.833 -17.167 31.5 -28.5s17.834 -19 24.501 -23
c8 -8 15.667 -12 23 -12s16.333 5.66699 27 17s19.334 26.666 26.001 45.999c1.33301 0 28.666 1 81.999 3c3.33301 0 5 -7.33301 5 -22c0 -35.333 -13.667 -70 -41 -104c-17.333 -24.667 -42.333 -37 -75 -37c-11.333 0 -22.666 2 -33.999 6c-24 7.33301 -41 22 -51 44
c-12.667 15.333 -25.667 23 -39 23c-10 0 -21.333 -3.33301 -34 -10c-13.333 -8.66699 -20 -20.334 -20 -35.001c0 -6.66699 1 -14 3 -22z" />
    <glyph glyph-name="endash" unicode="&#x2013;" horiz-adv-x="455" 
d="M417 159l-380 7l3 190h375c0 -53.333 1 -119 3 -197h-1z" />
    <glyph glyph-name="emdash" unicode="&#x2014;" horiz-adv-x="692" 
d="M655 153l-617 7l3 196h612l-2 -119c0 -37.333 1.66699 -65.333 5 -84h-1z" />
    <glyph glyph-name="quoteleft" unicode="&#x2018;" horiz-adv-x="207" 
d="M104 708l91.001 0.999023v-1l-23 -90c-24.667 -97.333 -39.667 -148.666 -45 -153.999h-1l-85 -7c-10.667 0 -18.334 1.66699 -23.001 5c36 130.667 57.333 212.667 64 246h22z" />
    <glyph glyph-name="quoteright" unicode="&#x2019;" horiz-adv-x="207" 
d="M104 708l91.001 0.999023v-1l-23 -90c-24.667 -97.333 -39.667 -148.666 -45 -153.999h-1l-85 -7c-10.667 0 -18.334 1.66699 -23.001 5c36 130.667 57.333 212.667 64 246h22z" />
    <glyph glyph-name="quotesinglbase" unicode="&#x201a;" horiz-adv-x="196" 
d="M82 152l91.001 0.999023v-1l-23 -90c-24.667 -97.333 -39.667 -148.666 -45 -153.999h-1l-85 -7c-10.667 0 -18.334 1.66699 -23.001 5c36 130.667 57.333 212.667 64 246h22z" />
    <glyph glyph-name="quotedblleft" unicode="&#x201c;" horiz-adv-x="367" 
d="M108 458l-91.001 -0.999023v1l23 90c24.667 97.333 39.667 148.666 45 153.999h1l84 7c10.667 0 18.667 -1.66699 24 -5c-13.333 -57.333 -34.666 -139.333 -63.999 -246h-22zM267.999 458.001l-91 -0.999023v1l23 90c24.667 97.333 39.667 148.666 45 153.999h1l84 7
c10.667 0 18.667 -1.66699 24 -5c-12.667 -57.333 -34 -139.333 -64 -246h-22z" />
    <glyph glyph-name="quotedblright" unicode="&#x201d;" horiz-adv-x="367" 
d="M264 708l91.001 0.999023v-1l-23 -90c-24.667 -97.333 -39.667 -148.666 -45 -153.999h-1l-85 -7c-10.667 0 -18.334 1.66699 -23.001 5c36 130.667 57.333 212.667 64 246h22zM104.001 707.999l91.001 0.999023v-1l-23 -90
c-24.667 -97.333 -39.667 -148.666 -45 -153.999h-1l-85 -7c-10.667 0 -18.334 1.66699 -23.001 5c36 130.667 57.333 212.667 64 246h22z" />
    <glyph glyph-name="quotedblbase" unicode="&#x201e;" horiz-adv-x="353" 
d="M85 -98l-91 -0.999023v1l23 90c24.667 97.333 39.667 148.666 45 153.999h1l84 7c10.667 0 18.667 -1.66699 24 -5c-12.667 -57.333 -34 -139.333 -64 -246h-22zM245 -97.999l-91.001 -0.999023v1l23 90c24.667 97.333 39.667 148.666 45 153.999h1l84 7
c10.667 0 18.667 -1.66699 24 -5c-13.333 -57.333 -34.666 -139.333 -63.999 -246h-22z" />
    <glyph glyph-name="dagger" unicode="&#x2020;" horiz-adv-x="271" 
d="M168 504l3.99902 -260.999v-1c-33.333 0 -55.333 -1 -66 -3c-2.66699 18.667 -4 51 -4 97v108v56h-6l-48 -1c-16 0 -25.333 2 -28 6c-1.33301 3.33301 -2 12 -2 26l1 50c6 1.33301 16.333 2 31 2l19 -1c17.333 0 28.333 1.33301 33 4c0 42 1.33301 77.333 4 106
c13.333 4 25.333 6 36 6s20.334 -1 29.001 -3c-0.666992 -8.66699 -1 -19.334 -1 -32.001v-52v-25v-2c21.333 0.666992 38.833 1 52.5 1s23.167 -0.333008 28.5 -1c-0.666992 -14 -1 -27.833 -1 -41.5s0.666992 -25.5 2 -35.5v-1l-69 -2h-14h-1z" />
    <glyph glyph-name="daggerdbl" unicode="&#x2021;" horiz-adv-x="286" 
d="M27 426c17.333 2 44.668 2.99902 82.001 2.99902c0.666992 18 1 33 1 45s-0.333008 21.333 -1 28v1h-9l-42 -1c-13.333 0 -22.666 1.33301 -27.999 4c-2.66699 2.66699 -4 10.667 -4 24l1 44v9c10 1.33301 24.333 2.16602 43 2.49902s31.667 0.833008 39 1.5l3 105v1
c13.333 4 25.333 6 36 6s20.334 -1 29.001 -3l1 -85v-24c21.333 0.666992 38.666 1 51.999 1s22.666 -0.333008 27.999 -1c0 -38 0.333008 -64 1 -78h-5l-62 -4c-5.33301 0 -10 0.333008 -14 1h-1c-1.33301 -8.66699 -2 -19.167 -2 -31.5s1.33301 -27.166 4 -44.499
c17.333 2 32.333 3 45 3s24 -0.666992 34 -2v-35c0 -20 0.666992 -34 2 -42v-1c-50.667 -2.66699 -77.667 -4 -81 -4h-2c0.666992 -8 1 -23.333 1 -46s0.333008 -42 1 -58c-11.333 -2 -34 -3 -68 -3h-1l-2 68c0 10.667 0.333008 22.334 1 35.001
c-4.66699 1.33301 -14 2 -28 2l-17 -1c-16.667 0 -28.334 1.33301 -35.001 4c-1.33301 4.66699 -2 12.667 -2 24l1 37c0 6 -0.333008 11 -1 15z" />
    <glyph glyph-name="bullet" unicode="&#x2022;" horiz-adv-x="289" 
d="M56 331c6 21.333 23.666 33.667 52.999 37h48.5c17 0 28.167 -1 33.5 -3c28.667 -8.66699 44.334 -24 47.001 -46c0.666992 -5.33301 1 -14.333 1 -27s-1.33301 -33 -4 -61c-4.66699 -22.667 -15 -37.334 -31 -44.001c-7.33301 -3.33301 -19.333 -5.66602 -36 -6.99902
l-57 -3h-1c-2 -0.666992 -4.33301 -1 -7 -1c-15.333 0 -29 8.33301 -41 25c-6.66699 11.333 -10 32.333 -10 63v27c0 12.667 1.33301 26 4 40z" />
    <glyph glyph-name="ellipsis" unicode="&#x2026;" horiz-adv-x="520" 
d="M34 1c-2 11.333 -3 29 -3 53l2 63c12.667 5.33301 34.5 8 65.5 8s50.833 -2 59.5 -6l-2 -25c-2.66699 -51.333 -4 -82 -4 -92v-2h-2l-113 1h-3zM199 1c-2 12.667 -3 30.333 -3 53l2 63c12.667 5.33301 34.5 8 65.5 8s50.833 -2 59.5 -6l-1 -25
c-3.33301 -51.333 -5 -82 -5 -92v-2h-2l-113 1h-3zM365 0.999023c-2 11.333 -3 29 -3 53l2 63c12.667 5.33301 34.5 8 65.5 8s50.833 -2 59.5 -6l-1 -25c-3.33301 -51.333 -5 -82 -5 -92v-2h-2l-113 1h-3z" />
    <glyph glyph-name="perthousand" unicode="&#x2030;" horiz-adv-x="853" 
d="M382 707l54 1c24.667 0 40 -2.33301 46 -7c-2 -4 -4 -9.83301 -6 -17.5s-10.333 -35.5 -25 -83.5s-26.834 -85.167 -36.501 -111.5l-19.5 -54l-33 -97.5c-28 -86.667 -49.667 -148.667 -65 -186l-57 -144c-0.666992 -2 -1.66699 -3.66699 -3 -5
c-4.66699 -0.666992 -14.334 -1 -29.001 -1s-46.667 -0.666992 -96 -2h-1c-5.33301 0 -2.5 14.667 8.5 44s19.5 53.5 25.5 72.5s14 39.833 24 62.5c4.66699 16.667 23 68 55 154s52.333 143.167 61 171.5s13.834 44.333 15.501 48s4.83398 12.5 9.50098 26.5
c14 39.333 27.333 83 40 131c6 -1.33301 16.667 -2 32 -2zM203.5 653.5c18.333 -19.667 30.5 -44.5 36.5 -74.5c2.66699 -20 4 -34 4 -42v-17.5v-26.5c0 -14 -3 -33 -9 -57s-18.333 -45.667 -37 -65s-41.334 -29 -68.001 -29c-18.667 0 -36.334 4.33301 -53.001 13
c-25.333 16.667 -41.666 41 -48.999 73l-8 59v1l-1 25l2 25c0.666992 3.33301 1.5 10.5 2.5 21.5s2 19.167 3 24.5s2.83301 12.333 5.5 21c4 16.667 11 30 21 40c20.667 25.333 46.334 38 77.001 38s55.167 -9.83301 73.5 -29.5zM161 462l0.998047 11.002
c0.666992 12 1 28.5 1 49.5s-1.83301 38.167 -5.5 51.5s-5.83398 20.166 -6.50098 20.499s-1 1.16602 -1 2.49902c-5.33301 7.33301 -10.666 11 -15.999 11s-10.666 -1 -15.999 -3c-13.333 -6 -20 -20 -20 -42v-10v-1l5 -73l2 -38c0 -8 3.33301 -13.833 10 -17.5
s12.667 -4.66699 18 -3s9 3.16699 11 4.5s3.66699 2.5 5 3.5s2.5 2.66699 3.5 5s1.83301 4 2.5 5s1.33398 2.83301 2.00098 5.5s1 4.66699 1 6c2 4.66699 3 8.66699 3 12zM546.498 314.502c18.333 -19.667 30.5 -44.5 36.5 -74.5c2.66699 -20 4 -34 4 -42v-17.5v-26.5
c0 -14 -3 -33 -9 -57s-18.333 -45.667 -37 -65s-41.334 -29 -68.001 -29c-18.667 0 -36.334 4.33301 -53.001 13c-25.333 16.667 -41.666 41 -48.999 73l-8 59v1l-1 25l2 25c0.666992 3.33301 1.5 10.5 2.5 21.5s2 19.167 3 24.5s2.5 12.333 4.5 21
c4.66699 16.667 12 30 22 40c20.667 25.333 46.334 38 77.001 38s55.167 -9.83301 73.5 -29.5zM503.998 123.002l0.998047 11c0.666992 12 1 28.5 1 49.5s-1.66699 38 -5 51s-5.33301 19.833 -6 20.5s-2.66699 3.16699 -6 7.5s-7.5 6.5 -12.5 6.5s-10.167 -1 -15.5 -3
c-13.333 -6 -20 -20 -20 -42v-10v-1l5 -73l2 -38c0 -8 3.33301 -13.833 10 -17.5s12.667 -4.66699 18 -3s9 3.16699 11 4.5s3.66699 2.5 5 3.5s2.5 2.66699 3.5 5s1.83301 4 2.5 5s1.33398 2.83301 2.00098 5.5s1.33398 4.33398 2.00098 5.00098
c1.33301 5.33301 2 9.66602 2 12.999zM794.496 314.502c18.333 -19.667 30.5 -44.5 36.5 -74.5c2.66699 -20 4 -34 4 -42v-17.5v-26.5c0 -14 -3 -33 -9 -57s-18.333 -45.667 -37 -65s-41.334 -29 -68.001 -29c-18.667 0 -36.334 4.33301 -53.001 13
c-25.333 16.667 -41.666 41 -48.999 73l-8 59v1l-1 25l2 25c0.666992 3.33301 1.5 10.5 2.5 21.5s2 19.167 3 24.5s2.5 12.333 4.5 21c4.66699 16.667 12 30 22 40c20.667 25.333 46.334 38 77.001 38s55.167 -9.83301 73.5 -29.5zM751.996 123.002l0.998047 11
c0.666992 12 1 28.5 1 49.5s-1.66699 38 -5 51s-5.33301 19.833 -6 20.5s-2.66699 3.16699 -6 7.5s-7.5 6.5 -12.5 6.5s-10.167 -1 -15.5 -3c-13.333 -6 -20 -20 -20 -42v-10v-1l5 -73l2 -38c0 -8 2.66699 -13.5 8 -16.5s9.83301 -4.5 13.5 -4.5s7 0.5 10 1.5
s5.5 2.16699 7.5 3.5s3.66699 2.5 5 3.5s2.5 2.66699 3.5 5s1.83301 4 2.5 5s1.33398 2.83301 2.00098 5.5s1.33398 4.33398 2.00098 5.00098c1.33301 5.33301 2 9.66602 2 12.999z" />
    <glyph glyph-name="guilsinglleft" unicode="&#x2039;" horiz-adv-x="362" 
d="M343 85l-27.001 -25.9971c-18 -18 -35 -34 -51 -48c-13.333 13.333 -51.166 48.666 -113.499 105.999s-108.5 105.666 -138.5 144.999c26.667 34 89.334 100.333 188.001 199l57 59c8.66699 -4.66699 21.667 -16.167 39 -34.5s29.666 -29.833 36.999 -34.5
c-13.333 -16.667 -41.5 -47.5 -84.5 -92.5s-73.5 -78.167 -91.5 -99.5c18 -16 47.5 -44.333 88.5 -85s73.167 -70.334 96.5 -89.001z" />
    <glyph glyph-name="guilsinglright" unicode="&#x203a;" horiz-adv-x="362" 
d="M30 75l-11.001 9.99707c23.333 18.667 55.5 48.334 96.5 89.001s70.5 69 88.5 85c-18 21.333 -48.5 54.5 -91.5 99.5s-71.167 75.833 -84.5 92.5c7.33301 4.66699 19.666 16.167 36.999 34.5s30.333 29.833 39 34.5l57 -59c98.667 -98.667 161.334 -165 188.001 -199
c-30 -39.333 -76.167 -87.666 -138.5 -144.999s-100.166 -92.666 -113.499 -105.999c-16 14 -33 30 -51 48z" />
    <glyph glyph-name="Euro" unicode="&#x20ac;" horiz-adv-x="490" 
d="M461 151l3.00098 -98.998c0 -22 -1.66699 -37 -5 -45c-32.667 -5.33301 -68.834 -8 -108.501 -8s-75.167 0.666992 -106.5 2l-18 2c-34 6.66699 -62 16.5 -84 29.5s-37.667 25.5 -47 37.5c-24 28 -41 64.333 -51 109s-15 88.334 -15 131.001l2 161
c3.33301 60 17.333 109.333 42 148c28 41.333 70.333 67.333 127 78c43.333 8 90 12 140 12l64 -1l48 1h1v-1c3.33301 -30.667 5 -58 5 -82c0 -42.667 -1.33301 -65.334 -4 -68.001c-4 0 -14 0.666992 -30 2s-27 2.16602 -33 2.49902s-16.333 0.5 -31 0.5
s-25.667 -0.5 -33 -1.5s-17 -2.83301 -29 -5.5s-21.333 -6 -28 -10c-18 -10 -32 -23 -42 -39h4c46 0 74.333 -1.66699 85 -5v-1c2 -15.333 3 -31.333 3 -48s-1 -33.667 -3 -51v-1c-13.333 -4.66699 -37 -7 -71 -7h-57c0 -14 1 -25 3 -33
c62.667 0 104.334 -0.666992 125.001 -2c3.33301 -14 5 -29.333 5 -46s-1.33301 -34.334 -4 -53.001c-15.333 -2.66699 -36.333 -4.16699 -63 -4.5s-44.334 -0.833008 -53.001 -1.5c8 -40 33 -65 75 -75c28 -6.66699 62.167 -10.5 102.5 -11.5s67.5 -2.83301 81.5 -5.5v-1
v-10z" />
    <glyph glyph-name="trademark" unicode="&#x2122;" horiz-adv-x="564" 
d="M111 348l-1 71c0 40 -1.33301 86 -4 138l-1 1c-8 4 -28.667 6 -62 6c-3.33301 5.33301 -5 15.5 -5 30.5s1 32.167 3 51.5l-1 1c112.667 0 186 -1.66699 220 -5c0.666992 -10.667 1 -23 1 -37s-1 -28.667 -3 -44c-6 1.33301 -14.333 2 -25 2s-23.667 -0.666992 -39 -2h-1
c-0.666992 -0.666992 -1 -10.5 -1 -29.5s1 -101.167 3 -246.5v-1c-8.66699 -1.33301 -23.167 -2 -43.5 -2s-34.5 -0.666992 -42.5 -2c0.666992 8.66699 1 16.667 1 24zM522 602l1.00098 -97.002c0 -24.667 -0.333008 -44 -1 -58l-1 -166c-6 0.666992 -13.333 1 -22 1l-47 -1
c-0.666992 10 -1.33398 37.333 -2.00098 82s-2.33398 78.667 -5.00098 102c-1.33301 -1.33301 -10.666 -13.666 -27.999 -36.999c-3.33301 1.33301 -8.5 7.5 -15.5 18.5s-14.167 15.833 -21.5 14.5c-0.666992 -34.667 -1 -68.167 -1 -100.5s0.666992 -58.166 2 -77.499
c-8 -1.33301 -32.333 -2 -73 -2c0 0.666992 -0.666992 2.33398 -2 5.00098s-2 36.667 -2 102s0.666992 148.666 2 249.999c0.666992 2 9 3 25 3l46 -1h1c4.66699 -5.33301 10 -13.666 16 -24.999c8.66699 -16 14 -24 16 -24l36 50l64 2h13
c-0.666992 -10.667 -1 -24.334 -1 -41.001z" />
    <glyph glyph-name="oneeighth" unicode="&#x215b;" horiz-adv-x="588" 
d="M380 708l49.998 2c15.333 0 24.333 -1.66699 27 -5v-1c-119.333 -357.333 -199.666 -589.333 -240.999 -696l-2 -3l-2 -4h-9l-61 1c-9.33301 0 -15 -0.333008 -17 -1c14 42 51.333 147.5 112 316.5s103.334 299.5 128.001 391.5c2 -0.666992 7 -1 15 -1zM173.998 572
l-5 -224.999c0 -15.333 0.333008 -27 1 -35c0 -6 -10.333 -9 -31 -9l-48 3v49l6 190c0 4.66699 -0.333008 8 -1 10c-1.33301 0 -4.16602 -4.66699 -8.49902 -14s-8.5 -14 -12.5 -14s-15 2.5 -33 7.5s-27 8.5 -27 10.5c1.33301 10 10.666 30 27.999 60s28 47 32 51l45 1
c12 0 29.333 -0.666992 52 -2c1.33301 -12.667 2 -40.334 2 -83.001zM562.998 264.001v-14.002c0 -28 -11 -52.333 -33 -73c21.333 -19.333 32 -44.166 32 -74.499s-7.83301 -54.666 -23.5 -72.999s-39 -27.5 -70 -27.5s-54.667 9.33301 -71 28s-24.5 43.834 -24.5 75.501
s8.66699 56.5 26 74.5c-15.333 19.333 -23 42.666 -23 69.999s6.66699 51.333 20 72s31 31.667 53 33h12c27.333 0 49 -4 65 -12c8 -4 16.167 -13.167 24.5 -27.5s12.5 -31.5 12.5 -51.5zM466.998 294.999c-19.333 0 -28.998 -12.332 -28.998 -36.999
s10.667 -37.334 32 -38.001c9.33301 0 16.666 3.5 21.999 10.5s8 15.833 8 26.5s-2.83301 19.667 -8.5 27s-13.834 11 -24.501 11zM462 144c-17.333 0 -26 -10.999 -26 -32.999c0 -11.333 2.83301 -21.333 8.5 -30s13.167 -13 22.5 -13s16.5 3.66699 21.5 11
s7.5 16.166 7.5 26.499s-3 19.333 -9 27s-14.333 11.5 -25 11.5z" />
    <glyph glyph-name="threeeighths" unicode="&#x215c;" horiz-adv-x="624" 
d="M422 708l49.998 2c15.333 0 24.333 -1.66699 27 -5v-1c-119.333 -357.333 -199.666 -589.333 -240.999 -696l-2 -3l-2 -4h-9l-61 1c-9.33301 0 -15 -0.333008 -17 -1c14 42 51.333 147.5 112 316.5s103.334 299.5 128.001 391.5c2 -0.666992 7 -1 15 -1zM604.998 264
v-14.002c0 -28 -11 -52.333 -33 -73c21.333 -19.333 32 -44.166 32 -74.499s-7.83301 -54.666 -23.5 -72.999s-39 -27.5 -70 -27.5s-54.667 9.33301 -71 28s-24.5 43.834 -24.5 75.501s8.66699 56.5 26 74.5c-15.333 19.333 -23 42.666 -23 69.999s6.66699 51.333 20 72
s31 31.667 53 33h12c27.333 0 49 -4 65 -12c8 -4 16.167 -13.167 24.5 -27.5s12.5 -31.5 12.5 -51.5zM508.998 294.998c-19.333 0 -28.998 -12.332 -28.998 -36.999s10.667 -37.334 32 -38.001c9.33301 0 16.666 3.5 21.999 10.5s8 15.833 8 26.5s-2.83301 19.667 -8.5 27
s-13.834 11 -24.501 11zM504 143.999c-17.333 0 -26 -10.999 -26 -32.999c0 -11.333 2.83301 -21.333 8.5 -30s13.167 -13 22.5 -13s16.5 3.66699 21.5 11s7.5 16.166 7.5 26.499s-3 19.333 -9 27s-14.333 11.5 -25 11.5zM158 550c0 18 -8.66895 26.999 -26.002 26.999
c-7.33301 0 -15.833 -2.66699 -25.5 -8s-16.5 -12.666 -20.5 -21.999c-4 0 -16 -0.333008 -36 -1h-30v1c0 26.667 0.666992 42 2 46c7.33301 25.333 25.333 43.333 54 54c18 6.66699 34.333 10 49 10c50.667 0 84.334 -14.333 101.001 -43c4.66699 -7.33301 7 -14.5 7 -21.5
s0.166992 -18.5 0.5 -34.5s0.5 -39 0.5 -69c0 -76 -3.33301 -121 -10 -135c-8.66699 -22.667 -25.334 -38 -50.001 -46c-14.667 -4 -29 -6 -43 -6c-42 0 -70.667 6.66699 -86 20c-2 1.33301 -3.33301 2 -4 2c-10 12 -15.333 24 -16 36
c-1.33301 5.33301 -2.33301 13.5 -3 24.5s-1.16699 18.333 -1.5 22s-0.166016 5.5 0.500977 5.5l57 4h8h1c4.66699 -14 14.334 -24 29.001 -30c4.66699 -1.33301 10.334 -2 17.001 -2s13.667 4.33301 21 13c4 6 5.5 13.333 4.5 22s-5.33301 15.834 -13 21.501
s-16.667 8.5 -27 8.5s-19.5 -0.666992 -27.5 -2c-2.66699 5.33301 -4 12.333 -4 21l2 48c4 1.33301 13 2.16602 27 2.49902s24.667 2.5 32 6.5s10.666 12.333 9.99902 25z" />
    <glyph glyph-name="fiveeighths" unicode="&#x215d;" horiz-adv-x="625" 
d="M423 708l49.998 2c15.333 0 24.333 -1.66699 27 -5v-1c-119.333 -357.333 -199.666 -589.333 -240.999 -696l-2 -3l-2 -4h-9l-61 1c-9.33301 0 -15 -0.333008 -17 -1c14 42 51.333 147.5 112 316.5s103.334 299.5 128.001 391.5c2 -0.666992 7 -1 15 -1zM605.998 264
v-14.002c0 -28 -11 -52.333 -33 -73c21.333 -19.333 32 -44.166 32 -74.499s-7.83301 -54.666 -23.5 -72.999s-39 -27.5 -70 -27.5s-54.667 9.33301 -71 28s-24.5 43.834 -24.5 75.501s8.66699 56.5 26 74.5c-15.333 19.333 -23 42.666 -23 69.999s6.66699 51.333 20 72
s31 31.667 53 33h12c27.333 0 49 -4 65 -12c8 -4 16.167 -13.167 24.5 -27.5s12.5 -31.5 12.5 -51.5zM509.998 294.998c-19.333 0 -28.998 -12.332 -28.998 -36.999s10.667 -37.334 32 -38.001c9.33301 0 16.666 3.5 21.999 10.5s8 15.833 8 26.5s-2.83301 19.667 -8.5 27
s-13.834 11 -24.501 11zM505 143.999c-17.333 0 -26 -10.999 -26 -32.999c0 -11.333 2.83301 -21.333 8.5 -30s13.167 -13 22.5 -13s16.5 3.66699 21.5 11s7.5 16.166 7.5 26.499s-3 19.333 -9 27s-14.333 11.5 -25 11.5zM99.5 576
c0.333008 0 0.500977 -1.83594 0.500977 -5.50293s1 -7.5 3 -11.5h1v-1h1c9.33301 1.33301 18.333 2 27 2s16.667 -0.333008 24 -1c25.333 -4 45.333 -16.167 60 -36.5s22.667 -39.666 24 -57.999s2 -34.166 2 -47.499s-0.666992 -27.666 -2 -42.999
c-4 -17.333 -14 -32.333 -30 -45s-31.667 -20.167 -47 -22.5s-28 -3.5 -38 -3.5s-22.667 1.33301 -38 4s-29.333 10.834 -42 24.501s-19 30.5 -19 50.5c0 5.33301 0.666992 15.666 2 30.999v1l71 3v-3c2 -19.333 10 -29 24 -29c18 0 30.333 8.66699 37 26
c3.33301 7.33301 5 14.5 5 21.5s-1.33301 14.167 -4 21.5c-5.33301 14 -14.333 22.667 -27 26c-4.66699 2 -14.334 3 -29.001 3l-78 -3c-0.666992 0 -1 18.333 -1 55s-0.333008 76 -1 118h1l33 1c44 1.33301 84 2 120 2s55.333 -0.333008 58 -1l-1 -19v-36l-1 -18
c-8.66699 -2 -53.667 -3 -135 -3h-1v-2c0 -0.666992 0.166992 -1 0.5 -1z" />
    <glyph glyph-name="seveneighths" unicode="&#x215e;" horiz-adv-x="616" 
d="M414 708l49.998 2c15.333 0 24.333 -1.66699 27 -5v-1c-119.333 -357.333 -199.666 -589.333 -240.999 -696l-2 -3l-2 -4h-9l-61 1c-9.33301 0 -15 -0.333008 -17 -1c14 42 51.333 147.5 112 316.5s103.334 299.5 128.001 391.5c2 -0.666992 7 -1 15 -1zM596.998 264
v-14.002c0 -28 -11 -52.333 -33 -73c21.333 -19.333 32 -44.166 32 -74.499s-7.83301 -54.666 -23.5 -72.999s-39 -27.5 -70 -27.5s-54.667 9.33301 -71 28s-24.5 43.834 -24.5 75.501s8.66699 56.5 26 74.5c-15.333 19.333 -23 42.666 -23 69.999s6.66699 51.333 20 72
s31 31.667 53 33h12c27.333 0 49 -4 65 -12c8 -4 16.167 -13.167 24.5 -27.5s12.5 -31.5 12.5 -51.5zM500.998 294.998c-19.333 0 -28.998 -12.332 -28.998 -36.999s10.667 -37.334 32 -38.001c9.33301 0 16.666 3.5 21.999 10.5s8 15.833 8 26.5s-2.83301 19.667 -8.5 27
s-13.834 11 -24.501 11zM496 143.999c-17.333 0 -26 -10.999 -26 -32.999c0 -11.333 2.83301 -21.333 8.5 -30s13.167 -13 22.5 -13s16.5 3.66699 21.5 11s7.5 16.166 7.5 26.499s-3 19.333 -9 27s-14.333 11.5 -25 11.5zM142 561l-105 4.00098h-13h-2
c2 13.333 3 34.666 3 63.999c42.667 2 81.5 3 116.5 3s63.833 -1.33301 86.5 -4v-65c-14 -33.333 -37.833 -80 -71.5 -140s-55.5 -100 -65.5 -120l-50 -2c-8.66699 0 -15.667 0.666992 -21 2c65.333 135.333 106 221.333 122 258z" />
    <glyph glyph-name="H18533" unicode="&#x25cf;" horiz-adv-x="579" 
d="M161 20c-61.333 28 -95.333 68 -102 120c-6 32.667 -9 66.334 -9 101.001s1.5 67.667 4.5 99s15.167 59.666 36.5 84.999c27.333 34.667 67.666 56 120.999 64c31.333 1.33301 61.833 2 91.5 2s56.5 -2.16699 80.5 -6.5s48.667 -14.5 74 -30.5l12 -8
c38.667 -29.333 59.334 -71.333 62.001 -126c0.666992 -14.667 1 -28 1 -40c0 -22 -1.83301 -47.167 -5.5 -75.5s-6.16699 -46.5 -7.5 -54.5c-3.33301 -32 -19.333 -61.667 -48 -89c-28 -28 -71.333 -44.667 -130 -50c-36.667 -3.33301 -68.5 -5 -95.5 -5
s-55.5 4.66699 -85.5 14z" />
    <glyph glyph-name="f_f" unicode="&#xfb00;" horiz-adv-x="789" 
d="M84 136l3.00098 236.999c-30.667 0 -55.667 -0.333008 -75 -1l-3 129c35.333 0 60.666 -0.333008 75.999 -1c-0.666992 8 -1 16.833 -1 26.5s0.833008 22.167 2.5 37.5s6.33398 33 14.001 53s19.5 38 35.5 54s35.333 27.333 58 34c39.333 14 90.333 21 153 21
c14.667 0 29.667 -0.333008 45 -1c4 -12.667 6 -31 6 -55s-2 -53.333 -6 -88c-6 0.666992 -18.333 1 -37 1s-50.334 -4.66699 -95.001 -14c-22.667 -3.33301 -34 -17.666 -34 -42.999c0 -8 1.33301 -17.333 4 -28l253 1c-0.666992 6 -1 13.833 -1 23.5
s1.16699 22.667 3.5 39s7.33301 34.666 15 54.999s19.334 38.5 35.001 54.5s34.5 27.333 56.5 34c41.333 14 92.666 21 153.999 21c14 0 28.667 -0.333008 44 -1c6 -18 9 -38.833 9 -62.5s-3 -50.5 -9 -80.5c-7.33301 0.666992 -20.5 1 -39.5 1s-49.5 -4.66699 -91.5 -14
c-22.667 -4 -34 -21.333 -34 -52c0 -8.66699 1 -17.667 3 -27h155c0.666992 -8.66699 1 -20.667 1 -36l-1 -83c-41.333 2 -94.333 3 -159 3v-372c-6.66699 0.666992 -15 1 -25 1l-96 -5c-6 0 -11 0.333008 -15 1c0 101.333 -3 225 -9 371c-82.667 2.66699 -167 4 -253 4
v-372c-6.66699 0.666992 -15 1 -25 1l-97 -5c-6 0 -11 0.333008 -15 1c-3.33301 18.667 -5 64.334 -5 137.001z" />
    <glyph glyph-name="fi" unicode="&#xfb01;" horiz-adv-x="555" 
d="M381 370c-41.333 2 -93.999 2.99902 -157.999 2.99902v-368c-6.66699 0.666992 -14.334 1 -23.001 1l-99 -6c-5.33301 0 -9.66602 0.333008 -12.999 1c-3.33301 18.667 -5 68 -5 148l2 223c-30.667 0 -55.334 -0.333008 -74.001 -1l-3 120
c34.667 0 59.667 -0.333008 75 -1c-0.666992 7.33301 -1 15.833 -1 25.5s1 22.5 3 38.5s6.66699 34.333 14 55c16 45.333 45.667 75.5 89 90.5s95.333 22.5 156 22.5c14 0 28.667 -0.333008 44 -1c4 -14 6 -32.833 6 -56.5s-2 -52.167 -6 -85.5h-19.5
c-11 0 -48.167 -4 -111.5 -12c-22 -3.33301 -33 -21 -33 -53c0 -8 1 -16.667 3 -26h154v42l29 -1c27.333 -1.33301 48.333 -2 63 -2h32h18v-3l-6 -357c0 -39.333 1.66699 -92.666 5 -159.999c-5.33301 -5.33301 -21 -8 -47 -8l-76 3c-12.667 0 -21 -0.666992 -25 -2
c4.66699 62.667 7 186 7 370z" />
    <glyph glyph-name="fl" unicode="&#xfb02;" horiz-adv-x="562" 
d="M386 376c-41.333 2 -94.668 3 -160.001 3v-374c-6.66699 0.666992 -15 1 -25 1l-97 -5c-6 0 -11 0.333008 -15 1c-3.33301 18.667 -5 64.667 -5 138l3 238c-31.333 0 -56.666 -0.333008 -75.999 -1l-3 122c36 0 61.667 -0.333008 77 -1
c-0.666992 9.33301 -1 20.666 -1 33.999s1.83301 31 5.5 53s14.667 46.167 33 72.5s45 45.5 80 57.5s82.833 18 143.5 18c13.333 0 27.666 -0.333008 42.999 -1l28 -1c28 -1.33301 49.5 -2 64.5 -2h32.5h18v-4l-7 -513c0 -61.333 1.66699 -129.666 5 -204.999
c-1.33301 -4.66699 -16.666 -7 -45.999 -7l-86 2c-10 0 -16 -0.333008 -18 -1c4 54.667 6 179.667 6 375zM385.998 496v92c-28 0.666992 -53.333 1 -76 1s-39 -0.666992 -49 -2c-14.667 -2 -24.667 -12.667 -30 -32c-2.66699 -10 -4 -20 -4 -30s1 -19.667 3 -29h156z" />
    <glyph glyph-name="f_f_i" unicode="&#xfb03;" horiz-adv-x="954" 
d="M201 6l-98.9922 -6.00195c-5.33301 0 -10 0.333008 -14 1c-1.33301 17.333 -2 141.333 -2 372c-30.667 0 -55.334 -0.333008 -74.001 -1l-3 128c34.667 0 59.667 -0.333008 75 -1c-0.666992 7.33301 -1 15.666 -1 24.999s1 21.833 3 37.5s6.66699 33.167 14 52.5
c16 43.333 45.667 72.5 89 87.5s95.666 22.5 156.999 22.5c14 0 28.667 -0.333008 44 -1c4 -14 6 -32.833 6 -56.5s-2 -52.167 -6 -85.5c-6 0.666992 -18.333 1 -37 1s-50.334 -4.66699 -95.001 -14c-22 -3.33301 -33 -18 -33 -44c0 -8 1 -17 3 -27l252 1
c-0.666992 6.66699 -1 13.334 -1 20.001c0 35.333 7.33301 70 22 104c17.333 40.667 46.833 67.834 88.5 81.501s94.167 20.5 157.5 20.5c12.667 0 26 -0.333008 40 -1c4.66699 -14 7 -32.833 7 -56.5s-2.33301 -52.167 -7 -85.5c-6 0.666992 -18.333 1 -37 1
s-50.334 -4.66699 -95.001 -14c-22 -2.66699 -33 -20.334 -33 -53.001c0 -8 1 -16.333 3 -25h154v42l30 -1c25.333 -1.33301 45.666 -2 60.999 -2h34h18v-4l-5 -346c0 -35.333 1.33301 -92.666 4 -171.999c-5.33301 -5.33301 -21 -8 -47 -8l-76 3
c-12.667 0 -21 -0.666992 -25 -2c4 60.667 6 184.334 6 371.001c-40.667 2 -93.334 3 -158.001 3v-369c-6.66699 0.666992 -14.334 1 -23.001 1l-99 -6c-5.33301 -0 -10 0.333008 -14 1c0 102 -3 225 -9 369c-83.333 2.66699 -167.333 4 -252 4v-369
c-6.66699 0.666992 -14.334 1 -23.001 1z" />
    <glyph glyph-name="f_f_l" unicode="&#xfb04;" horiz-adv-x="1010" 
d="M84 136l3.00098 236.999c-30.667 0 -55.667 -0.333008 -75 -1l-3 129c35.333 0 60.666 -0.333008 75.999 -1c-0.666992 8 -1 16.833 -1 26.5s0.833008 22.167 2.5 37.5s6.33398 33 14.001 53s19.5 38 35.5 54s35.333 27.333 58 34c39.333 14 90.333 21 153 21
c14.667 0 29.667 -0.333008 45 -1c4 -12.667 6 -31 6 -55s-2 -53.333 -6 -88c-6 0.666992 -18.333 1 -37 1s-50.334 -4.66699 -95.001 -14c-22.667 -3.33301 -34 -17.666 -34 -42.999c0 -8 1.33301 -17.333 4 -28l253 1c-0.666992 6 -1 13.833 -1 23.5
s1.16699 22.667 3.5 39s7.33301 34.666 15 54.999s19.334 38.5 35.001 54.5s34.5 27.333 56.5 34c41.333 14 92.666 21 153.999 21c14 0 28.667 -0.333008 44 -1c6 -18 9 -38.833 9 -62.5s-3 -50.5 -9 -80.5c-7.33301 0.666992 -20.5 1 -39.5 1s-49.5 -4.66699 -91.5 -14
c-22.667 -4 -34 -21.333 -34 -52c0 -8.66699 1 -17.667 3 -27h155c0.666992 -8.66699 1 -20.667 1 -36l-1 -83c-41.333 2 -94.333 3 -159 3v-372c-6.66699 0.666992 -15 1 -25 1l-96 -5c-6 0 -11 0.333008 -15 1c0 101.333 -3 225 -9 371c-82.667 2.66699 -167 4 -253 4
v-372c-6.66699 0.666992 -15 1 -25 1l-97 -5c-6 0 -11 0.333008 -15 1c-3.33301 18.667 -5 64.334 -5 137.001zM975.001 721.999l-2 -374.001c0 -156 2.33301 -270.667 7 -344c-1.33301 -4.66699 -16.333 -7 -45 -7l-85 2c-10.667 0 -17 -0.333008 -19 -1
c2.66699 36.667 4 84.334 4 143.001s-1.83301 128.5 -5.5 209.5s-5.5 152.5 -5.5 214.5s2.33301 115.333 7 160z" />
    <glyph glyph-name=".null" horiz-adv-x="0" 
 />
    <glyph glyph-name="nonmarkingreturn" horiz-adv-x="333" 
 />
    <glyph glyph-name="CR" horiz-adv-x="238" 
 />
    </font>
</defs>
</svg>
